G04 MADE WITH FRITZING*
G04 WWW.FRITZING.ORG*
G04 DOUBLE SIDED*
G04 HOLES PLATED*
G04 CONTOUR ON CENTER OF CONTOUR VECTOR*
%ASAXBY*%
%FSLAX23Y23*%
%MOIN*%
%OFA0B0*%
%SFA1.0B1.0*%
%ADD10C,0.076194*%
%ADD11C,0.076222*%
%ADD12C,0.080866*%
%ADD13C,0.049370*%
%ADD14C,0.085000*%
%LNMASK0*%
G90*
G70*
G54D10*
X2106Y107D03*
X2206Y107D03*
X2306Y107D03*
X2406Y107D03*
X2506Y107D03*
G54D11*
X1646Y2007D03*
X1546Y2007D03*
X1446Y2007D03*
X1346Y2007D03*
X1246Y2007D03*
X1146Y2007D03*
X1046Y2007D03*
X946Y2007D03*
X846Y2007D03*
X746Y2007D03*
X2506Y2007D03*
X2406Y2007D03*
X2306Y2007D03*
X2206Y2007D03*
X2106Y2007D03*
X2006Y2007D03*
X1906Y2007D03*
X1806Y2007D03*
G54D10*
X1206Y107D03*
X1106Y107D03*
X1306Y107D03*
X1406Y107D03*
X1506Y107D03*
X1606Y107D03*
X1706Y107D03*
X1806Y107D03*
X2006Y107D03*
G54D12*
X1896Y807D03*
X1696Y1607D03*
X1696Y1207D03*
X1896Y407D03*
X1896Y507D03*
X1896Y607D03*
X1896Y707D03*
X1696Y1507D03*
X1696Y1407D03*
X2546Y1457D03*
X2546Y1307D03*
X2596Y657D03*
X2546Y907D03*
X2596Y557D03*
X1696Y1107D03*
X1696Y1307D03*
X2596Y457D03*
G54D13*
X1496Y557D03*
G54D14*
X2546Y1307D03*
X2546Y907D03*
G04 End of Mask0*
M02*