; NON-PLATED HOLES START AT T1
; THROUGH (PLATED) HOLES START AT T100
M48
INCH
T100C0.038445
T101C0.015748
T102C0.038417
T103C0.035000
T104C0.039370
%
T100
X008459Y020066
X010459Y020066
X025059Y020066
X011459Y020066
X009459Y020066
X018059Y020066
X019059Y020066
X012459Y020066
X013459Y020066
X020059Y020066
X021059Y020066
X022059Y020066
X014459Y020066
X015459Y020066
X016459Y020066
X023059Y020066
X024059Y020066
X007459Y020066
T101
X014959Y005566
T102
X023059Y001066
X024059Y001066
X015059Y001066
X016059Y001066
X025059Y001066
X017059Y001066
X018059Y001066
X011059Y001066
X012059Y001066
X020059Y001066
X021059Y001066
X022059Y001066
X013059Y001066
X014059Y001066
T103
X025459Y009066
X025459Y013066
T104
X018959Y006066
X016959Y011066
X018959Y007066
X016959Y012066
X025459Y009066
X025959Y004566
X018959Y008066
X025459Y013066
X025459Y014566
X016959Y013066
X025959Y005566
X016959Y014066
X025959Y006566
X018959Y004066
X016959Y015066
X018959Y005066
X016959Y016066
T00
M30
