G04 MADE WITH FRITZING*
G04 WWW.FRITZING.ORG*
G04 DOUBLE SIDED*
G04 HOLES PLATED*
G04 CONTOUR ON CENTER OF CONTOUR VECTOR*
%ASAXBY*%
%FSLAX23Y23*%
%MOIN*%
%OFA0B0*%
%SFA1.0B1.0*%
%ADD10C,0.075000*%
%ADD11C,0.066194*%
%ADD12C,0.066222*%
%ADD13C,0.070866*%
%ADD14C,0.039370*%
%ADD15C,0.024000*%
%LNCOPPER1*%
G90*
G70*
G54D10*
X1500Y1302D03*
X132Y2011D03*
X1497Y635D03*
G54D11*
X2106Y107D03*
X2206Y107D03*
X2306Y107D03*
X2406Y107D03*
X2506Y107D03*
G54D12*
X1646Y2007D03*
X1546Y2007D03*
X1446Y2007D03*
X1346Y2007D03*
X1246Y2007D03*
X1146Y2007D03*
X1046Y2007D03*
X946Y2007D03*
X846Y2007D03*
X746Y2007D03*
X2506Y2007D03*
X2406Y2007D03*
X2306Y2007D03*
X2206Y2007D03*
X2106Y2007D03*
X2006Y2007D03*
X1906Y2007D03*
X1806Y2007D03*
G54D11*
X1206Y107D03*
X1106Y107D03*
X1306Y107D03*
X1406Y107D03*
X1506Y107D03*
X1606Y107D03*
X1706Y107D03*
X1806Y107D03*
X2006Y107D03*
G54D13*
X1896Y807D03*
X1896Y707D03*
X1896Y607D03*
X1896Y507D03*
X1896Y407D03*
X1696Y1607D03*
X1696Y1207D03*
X1696Y1507D03*
X1696Y1407D03*
X1696Y1307D03*
X1696Y1107D03*
X2596Y457D03*
X2596Y557D03*
X2596Y657D03*
X2546Y907D03*
X2546Y1307D03*
X2546Y1457D03*
G54D14*
X1496Y557D03*
G54D10*
X2546Y1307D03*
X2546Y907D03*
G54D15*
X2196Y357D02*
X2196Y1055D01*
D02*
X2496Y357D02*
X2196Y357D01*
D02*
X2196Y1055D02*
X1725Y1198D01*
D02*
X2505Y137D02*
X2496Y357D01*
D02*
X1395Y708D02*
X1395Y1406D01*
D02*
X1395Y1406D02*
X1665Y1407D01*
D02*
X1405Y137D02*
X1395Y708D01*
D02*
X1395Y708D02*
X1865Y707D01*
D02*
X1405Y137D02*
X1395Y708D01*
D02*
X1515Y559D02*
X1865Y603D01*
D02*
X1995Y507D02*
X1927Y507D01*
D02*
X2005Y137D02*
X1995Y507D01*
D02*
X1896Y776D02*
X1896Y737D01*
D02*
X1636Y107D02*
X1676Y107D01*
D02*
X1597Y957D02*
X2098Y957D01*
D02*
X2098Y957D02*
X2098Y259D01*
D02*
X1597Y1308D02*
X1597Y957D01*
D02*
X2098Y259D02*
X2397Y259D01*
D02*
X1665Y1307D02*
X1597Y1308D01*
D02*
X2397Y259D02*
X2404Y137D01*
D02*
X2445Y558D02*
X2565Y557D01*
D02*
X2537Y877D02*
X2445Y558D01*
D02*
X1724Y1394D02*
X2248Y1158D01*
D02*
X2248Y1158D02*
X2522Y926D01*
D02*
X2646Y755D02*
X2610Y684D01*
D02*
X2646Y1355D02*
X2646Y755D01*
D02*
X2567Y1435D02*
X2646Y1355D01*
D02*
X1727Y1505D02*
X2515Y1458D01*
G36*
X1590Y1383D02*
X1590Y1381D01*
X1420Y1381D01*
X1420Y853D01*
X1908Y853D01*
X1908Y851D01*
X1914Y851D01*
X1914Y849D01*
X1918Y849D01*
X1918Y847D01*
X1922Y847D01*
X1922Y845D01*
X1924Y845D01*
X1924Y843D01*
X1926Y843D01*
X1926Y841D01*
X1930Y841D01*
X1930Y837D01*
X1932Y837D01*
X1932Y835D01*
X1934Y835D01*
X1934Y833D01*
X1936Y833D01*
X1936Y829D01*
X1938Y829D01*
X1938Y825D01*
X1940Y825D01*
X1940Y821D01*
X1942Y821D01*
X1942Y811D01*
X1944Y811D01*
X1944Y801D01*
X1942Y801D01*
X1942Y793D01*
X1940Y793D01*
X1940Y787D01*
X1938Y787D01*
X1938Y783D01*
X1936Y783D01*
X1936Y779D01*
X1934Y779D01*
X1934Y777D01*
X1932Y777D01*
X1932Y775D01*
X1930Y775D01*
X1930Y773D01*
X1928Y773D01*
X1928Y771D01*
X1926Y771D01*
X1926Y769D01*
X1924Y769D01*
X1924Y767D01*
X1920Y767D01*
X1920Y747D01*
X1922Y747D01*
X1922Y745D01*
X1924Y745D01*
X1924Y743D01*
X1926Y743D01*
X1926Y741D01*
X1930Y741D01*
X1930Y737D01*
X1932Y737D01*
X1932Y735D01*
X1934Y735D01*
X1934Y733D01*
X1936Y733D01*
X1936Y729D01*
X1938Y729D01*
X1938Y725D01*
X1940Y725D01*
X1940Y721D01*
X1942Y721D01*
X1942Y711D01*
X1944Y711D01*
X1944Y701D01*
X1942Y701D01*
X1942Y693D01*
X1940Y693D01*
X1940Y687D01*
X1938Y687D01*
X1938Y683D01*
X1936Y683D01*
X1936Y679D01*
X1934Y679D01*
X1934Y677D01*
X1932Y677D01*
X1932Y675D01*
X1930Y675D01*
X1930Y673D01*
X1928Y673D01*
X1928Y671D01*
X1926Y671D01*
X1926Y669D01*
X1924Y669D01*
X1924Y667D01*
X1920Y667D01*
X1920Y647D01*
X1922Y647D01*
X1922Y645D01*
X1924Y645D01*
X1924Y643D01*
X1926Y643D01*
X1926Y641D01*
X1930Y641D01*
X1930Y637D01*
X1932Y637D01*
X1932Y635D01*
X1934Y635D01*
X1934Y633D01*
X1936Y633D01*
X1936Y629D01*
X1938Y629D01*
X1938Y625D01*
X1940Y625D01*
X1940Y621D01*
X1942Y621D01*
X1942Y611D01*
X1944Y611D01*
X1944Y601D01*
X1942Y601D01*
X1942Y593D01*
X1940Y593D01*
X1940Y587D01*
X1938Y587D01*
X1938Y583D01*
X1936Y583D01*
X1936Y579D01*
X1934Y579D01*
X1934Y577D01*
X1932Y577D01*
X1932Y575D01*
X1930Y575D01*
X1930Y573D01*
X1928Y573D01*
X1928Y571D01*
X1926Y571D01*
X1926Y569D01*
X1924Y569D01*
X1924Y567D01*
X1920Y567D01*
X1920Y547D01*
X1922Y547D01*
X1922Y545D01*
X1924Y545D01*
X1924Y543D01*
X1926Y543D01*
X1926Y541D01*
X1930Y541D01*
X1930Y537D01*
X1932Y537D01*
X1932Y535D01*
X1934Y535D01*
X1934Y533D01*
X1936Y533D01*
X1936Y531D01*
X2000Y531D01*
X2000Y529D01*
X2006Y529D01*
X2006Y527D01*
X2008Y527D01*
X2008Y525D01*
X2012Y525D01*
X2012Y523D01*
X2014Y523D01*
X2014Y519D01*
X2016Y519D01*
X2016Y515D01*
X2018Y515D01*
X2018Y503D01*
X2020Y503D01*
X2020Y431D01*
X2022Y431D01*
X2022Y359D01*
X2024Y359D01*
X2024Y285D01*
X2026Y285D01*
X2026Y213D01*
X2028Y213D01*
X2028Y151D01*
X2316Y151D01*
X2316Y149D01*
X2322Y149D01*
X2322Y147D01*
X2326Y147D01*
X2326Y145D01*
X2330Y145D01*
X2330Y143D01*
X2332Y143D01*
X2332Y141D01*
X2336Y141D01*
X2336Y139D01*
X2338Y139D01*
X2338Y137D01*
X2340Y137D01*
X2340Y135D01*
X2342Y135D01*
X2342Y131D01*
X2344Y131D01*
X2344Y129D01*
X2346Y129D01*
X2346Y125D01*
X2366Y125D01*
X2366Y129D01*
X2368Y129D01*
X2368Y131D01*
X2370Y131D01*
X2370Y135D01*
X2372Y135D01*
X2372Y137D01*
X2374Y137D01*
X2374Y139D01*
X2376Y139D01*
X2376Y141D01*
X2378Y141D01*
X2378Y193D01*
X2376Y193D01*
X2376Y229D01*
X2374Y229D01*
X2374Y235D01*
X2088Y235D01*
X2088Y237D01*
X2084Y237D01*
X2084Y239D01*
X2082Y239D01*
X2082Y241D01*
X2080Y241D01*
X2080Y243D01*
X2078Y243D01*
X2078Y247D01*
X2076Y247D01*
X2076Y251D01*
X2074Y251D01*
X2074Y933D01*
X1588Y933D01*
X1588Y935D01*
X1584Y935D01*
X1584Y937D01*
X1582Y937D01*
X1582Y939D01*
X1578Y939D01*
X1578Y943D01*
X1576Y943D01*
X1576Y945D01*
X1574Y945D01*
X1574Y953D01*
X1572Y953D01*
X1572Y1311D01*
X1574Y1311D01*
X1574Y1317D01*
X1576Y1317D01*
X1576Y1321D01*
X1578Y1321D01*
X1578Y1323D01*
X1580Y1323D01*
X1580Y1325D01*
X1582Y1325D01*
X1582Y1327D01*
X1584Y1327D01*
X1584Y1329D01*
X1590Y1329D01*
X1590Y1331D01*
X1656Y1331D01*
X1656Y1333D01*
X1658Y1333D01*
X1658Y1335D01*
X1660Y1335D01*
X1660Y1339D01*
X1662Y1339D01*
X1662Y1341D01*
X1666Y1341D01*
X1666Y1343D01*
X1668Y1343D01*
X1668Y1345D01*
X1670Y1345D01*
X1670Y1347D01*
X1672Y1347D01*
X1672Y1367D01*
X1668Y1367D01*
X1668Y1369D01*
X1666Y1369D01*
X1666Y1371D01*
X1664Y1371D01*
X1664Y1373D01*
X1662Y1373D01*
X1662Y1375D01*
X1660Y1375D01*
X1660Y1377D01*
X1658Y1377D01*
X1658Y1379D01*
X1656Y1379D01*
X1656Y1383D01*
X1590Y1383D01*
G37*
D02*
G36*
X1420Y853D02*
X1420Y731D01*
X1856Y731D01*
X1856Y733D01*
X1858Y733D01*
X1858Y735D01*
X1860Y735D01*
X1860Y737D01*
X1862Y737D01*
X1862Y741D01*
X1866Y741D01*
X1866Y743D01*
X1868Y743D01*
X1868Y745D01*
X1870Y745D01*
X1870Y747D01*
X1872Y747D01*
X1872Y767D01*
X1868Y767D01*
X1868Y769D01*
X1866Y769D01*
X1866Y771D01*
X1864Y771D01*
X1864Y773D01*
X1862Y773D01*
X1862Y775D01*
X1860Y775D01*
X1860Y777D01*
X1858Y777D01*
X1858Y779D01*
X1856Y779D01*
X1856Y783D01*
X1854Y783D01*
X1854Y787D01*
X1852Y787D01*
X1852Y791D01*
X1850Y791D01*
X1850Y801D01*
X1848Y801D01*
X1848Y813D01*
X1850Y813D01*
X1850Y821D01*
X1852Y821D01*
X1852Y827D01*
X1854Y827D01*
X1854Y829D01*
X1856Y829D01*
X1856Y833D01*
X1858Y833D01*
X1858Y835D01*
X1860Y835D01*
X1860Y837D01*
X1862Y837D01*
X1862Y841D01*
X1866Y841D01*
X1866Y843D01*
X1868Y843D01*
X1868Y845D01*
X1870Y845D01*
X1870Y847D01*
X1874Y847D01*
X1874Y849D01*
X1878Y849D01*
X1878Y851D01*
X1884Y851D01*
X1884Y853D01*
X1420Y853D01*
G37*
D02*
G36*
X2028Y151D02*
X2028Y145D01*
X2030Y145D01*
X2030Y143D01*
X2032Y143D01*
X2032Y141D01*
X2036Y141D01*
X2036Y139D01*
X2038Y139D01*
X2038Y137D01*
X2040Y137D01*
X2040Y135D01*
X2042Y135D01*
X2042Y131D01*
X2044Y131D01*
X2044Y129D01*
X2046Y129D01*
X2046Y125D01*
X2066Y125D01*
X2066Y129D01*
X2068Y129D01*
X2068Y131D01*
X2070Y131D01*
X2070Y135D01*
X2072Y135D01*
X2072Y137D01*
X2074Y137D01*
X2074Y139D01*
X2076Y139D01*
X2076Y141D01*
X2078Y141D01*
X2078Y143D01*
X2082Y143D01*
X2082Y145D01*
X2086Y145D01*
X2086Y147D01*
X2090Y147D01*
X2090Y149D01*
X2096Y149D01*
X2096Y151D01*
X2028Y151D01*
G37*
D02*
G36*
X2116Y151D02*
X2116Y149D01*
X2122Y149D01*
X2122Y147D01*
X2126Y147D01*
X2126Y145D01*
X2130Y145D01*
X2130Y143D01*
X2132Y143D01*
X2132Y141D01*
X2136Y141D01*
X2136Y139D01*
X2138Y139D01*
X2138Y137D01*
X2140Y137D01*
X2140Y135D01*
X2142Y135D01*
X2142Y131D01*
X2144Y131D01*
X2144Y129D01*
X2146Y129D01*
X2146Y125D01*
X2166Y125D01*
X2166Y129D01*
X2168Y129D01*
X2168Y131D01*
X2170Y131D01*
X2170Y135D01*
X2172Y135D01*
X2172Y137D01*
X2174Y137D01*
X2174Y139D01*
X2176Y139D01*
X2176Y141D01*
X2178Y141D01*
X2178Y143D01*
X2182Y143D01*
X2182Y145D01*
X2186Y145D01*
X2186Y147D01*
X2190Y147D01*
X2190Y149D01*
X2196Y149D01*
X2196Y151D01*
X2116Y151D01*
G37*
D02*
G36*
X2216Y151D02*
X2216Y149D01*
X2222Y149D01*
X2222Y147D01*
X2226Y147D01*
X2226Y145D01*
X2230Y145D01*
X2230Y143D01*
X2232Y143D01*
X2232Y141D01*
X2236Y141D01*
X2236Y139D01*
X2238Y139D01*
X2238Y137D01*
X2240Y137D01*
X2240Y135D01*
X2242Y135D01*
X2242Y131D01*
X2244Y131D01*
X2244Y129D01*
X2246Y129D01*
X2246Y125D01*
X2266Y125D01*
X2266Y129D01*
X2268Y129D01*
X2268Y131D01*
X2270Y131D01*
X2270Y135D01*
X2272Y135D01*
X2272Y137D01*
X2274Y137D01*
X2274Y139D01*
X2276Y139D01*
X2276Y141D01*
X2278Y141D01*
X2278Y143D01*
X2282Y143D01*
X2282Y145D01*
X2286Y145D01*
X2286Y147D01*
X2290Y147D01*
X2290Y149D01*
X2296Y149D01*
X2296Y151D01*
X2216Y151D01*
G37*
D02*
G36*
X76Y2059D02*
X76Y2057D01*
X70Y2057D01*
X70Y2055D01*
X68Y2055D01*
X68Y2053D01*
X64Y2053D01*
X64Y2051D01*
X62Y2051D01*
X62Y2049D01*
X60Y2049D01*
X60Y2047D01*
X58Y2047D01*
X58Y2043D01*
X56Y2043D01*
X56Y2041D01*
X54Y2041D01*
X54Y2035D01*
X52Y2035D01*
X52Y1961D01*
X738Y1961D01*
X738Y1963D01*
X730Y1963D01*
X730Y1965D01*
X726Y1965D01*
X726Y1967D01*
X722Y1967D01*
X722Y1969D01*
X720Y1969D01*
X720Y1971D01*
X716Y1971D01*
X716Y1973D01*
X714Y1973D01*
X714Y1975D01*
X712Y1975D01*
X712Y1979D01*
X710Y1979D01*
X710Y1981D01*
X708Y1981D01*
X708Y1983D01*
X706Y1983D01*
X706Y1987D01*
X704Y1987D01*
X704Y1993D01*
X702Y1993D01*
X702Y2003D01*
X700Y2003D01*
X700Y2009D01*
X702Y2009D01*
X702Y2019D01*
X704Y2019D01*
X704Y2025D01*
X706Y2025D01*
X706Y2029D01*
X708Y2029D01*
X708Y2031D01*
X710Y2031D01*
X710Y2035D01*
X712Y2035D01*
X712Y2037D01*
X714Y2037D01*
X714Y2039D01*
X716Y2039D01*
X716Y2059D01*
X76Y2059D01*
G37*
D02*
G36*
X1676Y2059D02*
X1676Y2039D01*
X1678Y2039D01*
X1678Y2037D01*
X1680Y2037D01*
X1680Y2035D01*
X1682Y2035D01*
X1682Y2031D01*
X1684Y2031D01*
X1684Y2029D01*
X1686Y2029D01*
X1686Y2025D01*
X1688Y2025D01*
X1688Y2019D01*
X1690Y2019D01*
X1690Y2007D01*
X1692Y2007D01*
X1692Y2005D01*
X1690Y2005D01*
X1690Y1993D01*
X1688Y1993D01*
X1688Y1987D01*
X1686Y1987D01*
X1686Y1985D01*
X1684Y1985D01*
X1684Y1981D01*
X1682Y1981D01*
X1682Y1979D01*
X1680Y1979D01*
X1680Y1975D01*
X1678Y1975D01*
X1678Y1973D01*
X1674Y1973D01*
X1674Y1971D01*
X1672Y1971D01*
X1672Y1969D01*
X1670Y1969D01*
X1670Y1967D01*
X1666Y1967D01*
X1666Y1965D01*
X1662Y1965D01*
X1662Y1963D01*
X1654Y1963D01*
X1654Y1961D01*
X1798Y1961D01*
X1798Y1963D01*
X1790Y1963D01*
X1790Y1965D01*
X1786Y1965D01*
X1786Y1967D01*
X1782Y1967D01*
X1782Y1969D01*
X1780Y1969D01*
X1780Y1971D01*
X1776Y1971D01*
X1776Y1973D01*
X1774Y1973D01*
X1774Y1975D01*
X1772Y1975D01*
X1772Y1979D01*
X1770Y1979D01*
X1770Y1981D01*
X1768Y1981D01*
X1768Y1983D01*
X1766Y1983D01*
X1766Y1987D01*
X1764Y1987D01*
X1764Y1993D01*
X1762Y1993D01*
X1762Y2003D01*
X1760Y2003D01*
X1760Y2009D01*
X1762Y2009D01*
X1762Y2019D01*
X1764Y2019D01*
X1764Y2025D01*
X1766Y2025D01*
X1766Y2029D01*
X1768Y2029D01*
X1768Y2031D01*
X1770Y2031D01*
X1770Y2035D01*
X1772Y2035D01*
X1772Y2037D01*
X1774Y2037D01*
X1774Y2039D01*
X1776Y2039D01*
X1776Y2059D01*
X1676Y2059D01*
G37*
D02*
G36*
X786Y1987D02*
X786Y1985D01*
X784Y1985D01*
X784Y1981D01*
X782Y1981D01*
X782Y1979D01*
X780Y1979D01*
X780Y1975D01*
X778Y1975D01*
X778Y1973D01*
X774Y1973D01*
X774Y1971D01*
X772Y1971D01*
X772Y1969D01*
X770Y1969D01*
X770Y1967D01*
X766Y1967D01*
X766Y1965D01*
X762Y1965D01*
X762Y1963D01*
X754Y1963D01*
X754Y1961D01*
X838Y1961D01*
X838Y1963D01*
X830Y1963D01*
X830Y1965D01*
X826Y1965D01*
X826Y1967D01*
X822Y1967D01*
X822Y1969D01*
X820Y1969D01*
X820Y1971D01*
X816Y1971D01*
X816Y1973D01*
X814Y1973D01*
X814Y1975D01*
X812Y1975D01*
X812Y1979D01*
X810Y1979D01*
X810Y1981D01*
X808Y1981D01*
X808Y1983D01*
X806Y1983D01*
X806Y1987D01*
X786Y1987D01*
G37*
D02*
G36*
X886Y1987D02*
X886Y1985D01*
X884Y1985D01*
X884Y1981D01*
X882Y1981D01*
X882Y1979D01*
X880Y1979D01*
X880Y1975D01*
X878Y1975D01*
X878Y1973D01*
X876Y1973D01*
X876Y1971D01*
X872Y1971D01*
X872Y1969D01*
X870Y1969D01*
X870Y1967D01*
X866Y1967D01*
X866Y1965D01*
X862Y1965D01*
X862Y1963D01*
X854Y1963D01*
X854Y1961D01*
X938Y1961D01*
X938Y1963D01*
X930Y1963D01*
X930Y1965D01*
X926Y1965D01*
X926Y1967D01*
X922Y1967D01*
X922Y1969D01*
X920Y1969D01*
X920Y1971D01*
X916Y1971D01*
X916Y1973D01*
X914Y1973D01*
X914Y1975D01*
X912Y1975D01*
X912Y1979D01*
X910Y1979D01*
X910Y1981D01*
X908Y1981D01*
X908Y1983D01*
X906Y1983D01*
X906Y1987D01*
X886Y1987D01*
G37*
D02*
G36*
X986Y1987D02*
X986Y1985D01*
X984Y1985D01*
X984Y1981D01*
X982Y1981D01*
X982Y1979D01*
X980Y1979D01*
X980Y1975D01*
X978Y1975D01*
X978Y1973D01*
X976Y1973D01*
X976Y1971D01*
X972Y1971D01*
X972Y1969D01*
X970Y1969D01*
X970Y1967D01*
X966Y1967D01*
X966Y1965D01*
X962Y1965D01*
X962Y1963D01*
X954Y1963D01*
X954Y1961D01*
X1038Y1961D01*
X1038Y1963D01*
X1030Y1963D01*
X1030Y1965D01*
X1026Y1965D01*
X1026Y1967D01*
X1022Y1967D01*
X1022Y1969D01*
X1020Y1969D01*
X1020Y1971D01*
X1016Y1971D01*
X1016Y1973D01*
X1014Y1973D01*
X1014Y1975D01*
X1012Y1975D01*
X1012Y1979D01*
X1010Y1979D01*
X1010Y1981D01*
X1008Y1981D01*
X1008Y1983D01*
X1006Y1983D01*
X1006Y1987D01*
X986Y1987D01*
G37*
D02*
G36*
X1086Y1987D02*
X1086Y1985D01*
X1084Y1985D01*
X1084Y1981D01*
X1082Y1981D01*
X1082Y1979D01*
X1080Y1979D01*
X1080Y1975D01*
X1078Y1975D01*
X1078Y1973D01*
X1076Y1973D01*
X1076Y1971D01*
X1072Y1971D01*
X1072Y1969D01*
X1070Y1969D01*
X1070Y1967D01*
X1066Y1967D01*
X1066Y1965D01*
X1062Y1965D01*
X1062Y1963D01*
X1054Y1963D01*
X1054Y1961D01*
X1138Y1961D01*
X1138Y1963D01*
X1130Y1963D01*
X1130Y1965D01*
X1126Y1965D01*
X1126Y1967D01*
X1122Y1967D01*
X1122Y1969D01*
X1120Y1969D01*
X1120Y1971D01*
X1116Y1971D01*
X1116Y1973D01*
X1114Y1973D01*
X1114Y1975D01*
X1112Y1975D01*
X1112Y1979D01*
X1110Y1979D01*
X1110Y1981D01*
X1108Y1981D01*
X1108Y1983D01*
X1106Y1983D01*
X1106Y1987D01*
X1086Y1987D01*
G37*
D02*
G36*
X1186Y1987D02*
X1186Y1985D01*
X1184Y1985D01*
X1184Y1981D01*
X1182Y1981D01*
X1182Y1979D01*
X1180Y1979D01*
X1180Y1975D01*
X1178Y1975D01*
X1178Y1973D01*
X1176Y1973D01*
X1176Y1971D01*
X1172Y1971D01*
X1172Y1969D01*
X1170Y1969D01*
X1170Y1967D01*
X1166Y1967D01*
X1166Y1965D01*
X1162Y1965D01*
X1162Y1963D01*
X1154Y1963D01*
X1154Y1961D01*
X1238Y1961D01*
X1238Y1963D01*
X1230Y1963D01*
X1230Y1965D01*
X1226Y1965D01*
X1226Y1967D01*
X1222Y1967D01*
X1222Y1969D01*
X1220Y1969D01*
X1220Y1971D01*
X1216Y1971D01*
X1216Y1973D01*
X1214Y1973D01*
X1214Y1975D01*
X1212Y1975D01*
X1212Y1979D01*
X1210Y1979D01*
X1210Y1981D01*
X1208Y1981D01*
X1208Y1983D01*
X1206Y1983D01*
X1206Y1987D01*
X1186Y1987D01*
G37*
D02*
G36*
X1286Y1987D02*
X1286Y1985D01*
X1284Y1985D01*
X1284Y1981D01*
X1282Y1981D01*
X1282Y1979D01*
X1280Y1979D01*
X1280Y1975D01*
X1278Y1975D01*
X1278Y1973D01*
X1276Y1973D01*
X1276Y1971D01*
X1272Y1971D01*
X1272Y1969D01*
X1270Y1969D01*
X1270Y1967D01*
X1266Y1967D01*
X1266Y1965D01*
X1262Y1965D01*
X1262Y1963D01*
X1254Y1963D01*
X1254Y1961D01*
X1338Y1961D01*
X1338Y1963D01*
X1330Y1963D01*
X1330Y1965D01*
X1326Y1965D01*
X1326Y1967D01*
X1322Y1967D01*
X1322Y1969D01*
X1320Y1969D01*
X1320Y1971D01*
X1316Y1971D01*
X1316Y1973D01*
X1314Y1973D01*
X1314Y1975D01*
X1312Y1975D01*
X1312Y1979D01*
X1310Y1979D01*
X1310Y1981D01*
X1308Y1981D01*
X1308Y1983D01*
X1306Y1983D01*
X1306Y1987D01*
X1286Y1987D01*
G37*
D02*
G36*
X1386Y1987D02*
X1386Y1985D01*
X1384Y1985D01*
X1384Y1981D01*
X1382Y1981D01*
X1382Y1979D01*
X1380Y1979D01*
X1380Y1975D01*
X1378Y1975D01*
X1378Y1973D01*
X1376Y1973D01*
X1376Y1971D01*
X1372Y1971D01*
X1372Y1969D01*
X1370Y1969D01*
X1370Y1967D01*
X1366Y1967D01*
X1366Y1965D01*
X1362Y1965D01*
X1362Y1963D01*
X1354Y1963D01*
X1354Y1961D01*
X1438Y1961D01*
X1438Y1963D01*
X1430Y1963D01*
X1430Y1965D01*
X1426Y1965D01*
X1426Y1967D01*
X1422Y1967D01*
X1422Y1969D01*
X1420Y1969D01*
X1420Y1971D01*
X1416Y1971D01*
X1416Y1973D01*
X1414Y1973D01*
X1414Y1975D01*
X1412Y1975D01*
X1412Y1979D01*
X1410Y1979D01*
X1410Y1981D01*
X1408Y1981D01*
X1408Y1983D01*
X1406Y1983D01*
X1406Y1987D01*
X1386Y1987D01*
G37*
D02*
G36*
X1486Y1987D02*
X1486Y1985D01*
X1484Y1985D01*
X1484Y1981D01*
X1482Y1981D01*
X1482Y1979D01*
X1480Y1979D01*
X1480Y1975D01*
X1478Y1975D01*
X1478Y1973D01*
X1476Y1973D01*
X1476Y1971D01*
X1472Y1971D01*
X1472Y1969D01*
X1470Y1969D01*
X1470Y1967D01*
X1466Y1967D01*
X1466Y1965D01*
X1462Y1965D01*
X1462Y1963D01*
X1454Y1963D01*
X1454Y1961D01*
X1538Y1961D01*
X1538Y1963D01*
X1530Y1963D01*
X1530Y1965D01*
X1526Y1965D01*
X1526Y1967D01*
X1522Y1967D01*
X1522Y1969D01*
X1520Y1969D01*
X1520Y1971D01*
X1516Y1971D01*
X1516Y1973D01*
X1514Y1973D01*
X1514Y1975D01*
X1512Y1975D01*
X1512Y1979D01*
X1510Y1979D01*
X1510Y1981D01*
X1508Y1981D01*
X1508Y1983D01*
X1506Y1983D01*
X1506Y1987D01*
X1486Y1987D01*
G37*
D02*
G36*
X1586Y1987D02*
X1586Y1985D01*
X1584Y1985D01*
X1584Y1981D01*
X1582Y1981D01*
X1582Y1979D01*
X1580Y1979D01*
X1580Y1975D01*
X1578Y1975D01*
X1578Y1973D01*
X1576Y1973D01*
X1576Y1971D01*
X1572Y1971D01*
X1572Y1969D01*
X1570Y1969D01*
X1570Y1967D01*
X1566Y1967D01*
X1566Y1965D01*
X1562Y1965D01*
X1562Y1963D01*
X1554Y1963D01*
X1554Y1961D01*
X1638Y1961D01*
X1638Y1963D01*
X1630Y1963D01*
X1630Y1965D01*
X1626Y1965D01*
X1626Y1967D01*
X1622Y1967D01*
X1622Y1969D01*
X1620Y1969D01*
X1620Y1971D01*
X1616Y1971D01*
X1616Y1973D01*
X1614Y1973D01*
X1614Y1975D01*
X1612Y1975D01*
X1612Y1979D01*
X1610Y1979D01*
X1610Y1981D01*
X1608Y1981D01*
X1608Y1983D01*
X1606Y1983D01*
X1606Y1987D01*
X1586Y1987D01*
G37*
D02*
G36*
X1846Y1987D02*
X1846Y1985D01*
X1844Y1985D01*
X1844Y1981D01*
X1842Y1981D01*
X1842Y1979D01*
X1840Y1979D01*
X1840Y1975D01*
X1838Y1975D01*
X1838Y1973D01*
X1836Y1973D01*
X1836Y1971D01*
X1832Y1971D01*
X1832Y1969D01*
X1830Y1969D01*
X1830Y1967D01*
X1826Y1967D01*
X1826Y1965D01*
X1822Y1965D01*
X1822Y1963D01*
X1814Y1963D01*
X1814Y1961D01*
X1898Y1961D01*
X1898Y1963D01*
X1890Y1963D01*
X1890Y1965D01*
X1886Y1965D01*
X1886Y1967D01*
X1882Y1967D01*
X1882Y1969D01*
X1880Y1969D01*
X1880Y1971D01*
X1876Y1971D01*
X1876Y1973D01*
X1874Y1973D01*
X1874Y1975D01*
X1872Y1975D01*
X1872Y1979D01*
X1870Y1979D01*
X1870Y1981D01*
X1868Y1981D01*
X1868Y1983D01*
X1866Y1983D01*
X1866Y1987D01*
X1846Y1987D01*
G37*
D02*
G36*
X1946Y1987D02*
X1946Y1985D01*
X1944Y1985D01*
X1944Y1981D01*
X1942Y1981D01*
X1942Y1979D01*
X1940Y1979D01*
X1940Y1975D01*
X1938Y1975D01*
X1938Y1973D01*
X1936Y1973D01*
X1936Y1971D01*
X1932Y1971D01*
X1932Y1969D01*
X1930Y1969D01*
X1930Y1967D01*
X1926Y1967D01*
X1926Y1965D01*
X1922Y1965D01*
X1922Y1963D01*
X1914Y1963D01*
X1914Y1961D01*
X1998Y1961D01*
X1998Y1963D01*
X1990Y1963D01*
X1990Y1965D01*
X1986Y1965D01*
X1986Y1967D01*
X1982Y1967D01*
X1982Y1969D01*
X1980Y1969D01*
X1980Y1971D01*
X1976Y1971D01*
X1976Y1973D01*
X1974Y1973D01*
X1974Y1975D01*
X1972Y1975D01*
X1972Y1979D01*
X1970Y1979D01*
X1970Y1981D01*
X1968Y1981D01*
X1968Y1983D01*
X1966Y1983D01*
X1966Y1987D01*
X1946Y1987D01*
G37*
D02*
G36*
X2046Y1987D02*
X2046Y1985D01*
X2044Y1985D01*
X2044Y1981D01*
X2042Y1981D01*
X2042Y1979D01*
X2040Y1979D01*
X2040Y1975D01*
X2038Y1975D01*
X2038Y1973D01*
X2036Y1973D01*
X2036Y1971D01*
X2032Y1971D01*
X2032Y1969D01*
X2030Y1969D01*
X2030Y1967D01*
X2026Y1967D01*
X2026Y1965D01*
X2022Y1965D01*
X2022Y1963D01*
X2014Y1963D01*
X2014Y1961D01*
X2098Y1961D01*
X2098Y1963D01*
X2090Y1963D01*
X2090Y1965D01*
X2086Y1965D01*
X2086Y1967D01*
X2082Y1967D01*
X2082Y1969D01*
X2080Y1969D01*
X2080Y1971D01*
X2076Y1971D01*
X2076Y1973D01*
X2074Y1973D01*
X2074Y1975D01*
X2072Y1975D01*
X2072Y1979D01*
X2070Y1979D01*
X2070Y1981D01*
X2068Y1981D01*
X2068Y1983D01*
X2066Y1983D01*
X2066Y1987D01*
X2046Y1987D01*
G37*
D02*
G36*
X2146Y1987D02*
X2146Y1985D01*
X2144Y1985D01*
X2144Y1981D01*
X2142Y1981D01*
X2142Y1979D01*
X2140Y1979D01*
X2140Y1975D01*
X2138Y1975D01*
X2138Y1973D01*
X2136Y1973D01*
X2136Y1971D01*
X2132Y1971D01*
X2132Y1969D01*
X2130Y1969D01*
X2130Y1967D01*
X2126Y1967D01*
X2126Y1965D01*
X2122Y1965D01*
X2122Y1963D01*
X2114Y1963D01*
X2114Y1961D01*
X2198Y1961D01*
X2198Y1963D01*
X2190Y1963D01*
X2190Y1965D01*
X2186Y1965D01*
X2186Y1967D01*
X2182Y1967D01*
X2182Y1969D01*
X2180Y1969D01*
X2180Y1971D01*
X2176Y1971D01*
X2176Y1973D01*
X2174Y1973D01*
X2174Y1975D01*
X2172Y1975D01*
X2172Y1979D01*
X2170Y1979D01*
X2170Y1981D01*
X2168Y1981D01*
X2168Y1983D01*
X2166Y1983D01*
X2166Y1987D01*
X2146Y1987D01*
G37*
D02*
G36*
X2246Y1987D02*
X2246Y1985D01*
X2244Y1985D01*
X2244Y1981D01*
X2242Y1981D01*
X2242Y1979D01*
X2240Y1979D01*
X2240Y1975D01*
X2238Y1975D01*
X2238Y1973D01*
X2234Y1973D01*
X2234Y1971D01*
X2232Y1971D01*
X2232Y1969D01*
X2230Y1969D01*
X2230Y1967D01*
X2226Y1967D01*
X2226Y1965D01*
X2222Y1965D01*
X2222Y1963D01*
X2214Y1963D01*
X2214Y1961D01*
X2298Y1961D01*
X2298Y1963D01*
X2290Y1963D01*
X2290Y1965D01*
X2286Y1965D01*
X2286Y1967D01*
X2282Y1967D01*
X2282Y1969D01*
X2280Y1969D01*
X2280Y1971D01*
X2276Y1971D01*
X2276Y1973D01*
X2274Y1973D01*
X2274Y1975D01*
X2272Y1975D01*
X2272Y1979D01*
X2270Y1979D01*
X2270Y1981D01*
X2268Y1981D01*
X2268Y1983D01*
X2266Y1983D01*
X2266Y1987D01*
X2246Y1987D01*
G37*
D02*
G36*
X2346Y1987D02*
X2346Y1985D01*
X2344Y1985D01*
X2344Y1981D01*
X2342Y1981D01*
X2342Y1979D01*
X2340Y1979D01*
X2340Y1975D01*
X2338Y1975D01*
X2338Y1973D01*
X2336Y1973D01*
X2336Y1971D01*
X2332Y1971D01*
X2332Y1969D01*
X2330Y1969D01*
X2330Y1967D01*
X2326Y1967D01*
X2326Y1965D01*
X2322Y1965D01*
X2322Y1963D01*
X2314Y1963D01*
X2314Y1961D01*
X2398Y1961D01*
X2398Y1963D01*
X2390Y1963D01*
X2390Y1965D01*
X2386Y1965D01*
X2386Y1967D01*
X2382Y1967D01*
X2382Y1969D01*
X2380Y1969D01*
X2380Y1971D01*
X2376Y1971D01*
X2376Y1973D01*
X2374Y1973D01*
X2374Y1975D01*
X2372Y1975D01*
X2372Y1979D01*
X2370Y1979D01*
X2370Y1981D01*
X2368Y1981D01*
X2368Y1983D01*
X2366Y1983D01*
X2366Y1987D01*
X2346Y1987D01*
G37*
D02*
G36*
X2446Y1987D02*
X2446Y1985D01*
X2444Y1985D01*
X2444Y1981D01*
X2442Y1981D01*
X2442Y1979D01*
X2440Y1979D01*
X2440Y1975D01*
X2438Y1975D01*
X2438Y1973D01*
X2436Y1973D01*
X2436Y1971D01*
X2432Y1971D01*
X2432Y1969D01*
X2430Y1969D01*
X2430Y1967D01*
X2426Y1967D01*
X2426Y1965D01*
X2422Y1965D01*
X2422Y1963D01*
X2414Y1963D01*
X2414Y1961D01*
X2498Y1961D01*
X2498Y1963D01*
X2490Y1963D01*
X2490Y1965D01*
X2486Y1965D01*
X2486Y1967D01*
X2482Y1967D01*
X2482Y1969D01*
X2480Y1969D01*
X2480Y1971D01*
X2476Y1971D01*
X2476Y1973D01*
X2474Y1973D01*
X2474Y1975D01*
X2472Y1975D01*
X2472Y1979D01*
X2470Y1979D01*
X2470Y1981D01*
X2468Y1981D01*
X2468Y1983D01*
X2466Y1983D01*
X2466Y1987D01*
X2446Y1987D01*
G37*
D02*
G36*
X2544Y1985D02*
X2544Y1981D01*
X2542Y1981D01*
X2542Y1979D01*
X2540Y1979D01*
X2540Y1975D01*
X2538Y1975D01*
X2538Y1973D01*
X2536Y1973D01*
X2536Y1971D01*
X2532Y1971D01*
X2532Y1969D01*
X2530Y1969D01*
X2530Y1967D01*
X2526Y1967D01*
X2526Y1965D01*
X2522Y1965D01*
X2522Y1963D01*
X2514Y1963D01*
X2514Y1961D01*
X2564Y1961D01*
X2564Y1985D01*
X2544Y1985D01*
G37*
D02*
G36*
X52Y1961D02*
X52Y1959D01*
X2564Y1959D01*
X2564Y1961D01*
X52Y1961D01*
G37*
D02*
G36*
X52Y1961D02*
X52Y1959D01*
X2564Y1959D01*
X2564Y1961D01*
X52Y1961D01*
G37*
D02*
G36*
X52Y1961D02*
X52Y1959D01*
X2564Y1959D01*
X2564Y1961D01*
X52Y1961D01*
G37*
D02*
G36*
X52Y1961D02*
X52Y1959D01*
X2564Y1959D01*
X2564Y1961D01*
X52Y1961D01*
G37*
D02*
G36*
X52Y1961D02*
X52Y1959D01*
X2564Y1959D01*
X2564Y1961D01*
X52Y1961D01*
G37*
D02*
G36*
X52Y1961D02*
X52Y1959D01*
X2564Y1959D01*
X2564Y1961D01*
X52Y1961D01*
G37*
D02*
G36*
X52Y1961D02*
X52Y1959D01*
X2564Y1959D01*
X2564Y1961D01*
X52Y1961D01*
G37*
D02*
G36*
X52Y1961D02*
X52Y1959D01*
X2564Y1959D01*
X2564Y1961D01*
X52Y1961D01*
G37*
D02*
G36*
X52Y1961D02*
X52Y1959D01*
X2564Y1959D01*
X2564Y1961D01*
X52Y1961D01*
G37*
D02*
G36*
X52Y1961D02*
X52Y1959D01*
X2564Y1959D01*
X2564Y1961D01*
X52Y1961D01*
G37*
D02*
G36*
X52Y1961D02*
X52Y1959D01*
X2564Y1959D01*
X2564Y1961D01*
X52Y1961D01*
G37*
D02*
G36*
X52Y1961D02*
X52Y1959D01*
X2564Y1959D01*
X2564Y1961D01*
X52Y1961D01*
G37*
D02*
G36*
X52Y1961D02*
X52Y1959D01*
X2564Y1959D01*
X2564Y1961D01*
X52Y1961D01*
G37*
D02*
G36*
X52Y1961D02*
X52Y1959D01*
X2564Y1959D01*
X2564Y1961D01*
X52Y1961D01*
G37*
D02*
G36*
X52Y1961D02*
X52Y1959D01*
X2564Y1959D01*
X2564Y1961D01*
X52Y1961D01*
G37*
D02*
G36*
X52Y1961D02*
X52Y1959D01*
X2564Y1959D01*
X2564Y1961D01*
X52Y1961D01*
G37*
D02*
G36*
X52Y1961D02*
X52Y1959D01*
X2564Y1959D01*
X2564Y1961D01*
X52Y1961D01*
G37*
D02*
G36*
X52Y1961D02*
X52Y1959D01*
X2564Y1959D01*
X2564Y1961D01*
X52Y1961D01*
G37*
D02*
G36*
X52Y1961D02*
X52Y1959D01*
X2564Y1959D01*
X2564Y1961D01*
X52Y1961D01*
G37*
D02*
G36*
X52Y1959D02*
X52Y1653D01*
X1708Y1653D01*
X1708Y1651D01*
X1714Y1651D01*
X1714Y1649D01*
X1718Y1649D01*
X1718Y1647D01*
X1722Y1647D01*
X1722Y1645D01*
X1724Y1645D01*
X1724Y1643D01*
X1726Y1643D01*
X1726Y1641D01*
X1730Y1641D01*
X1730Y1637D01*
X1732Y1637D01*
X1732Y1635D01*
X1734Y1635D01*
X1734Y1633D01*
X1736Y1633D01*
X1736Y1629D01*
X1738Y1629D01*
X1738Y1625D01*
X1740Y1625D01*
X1740Y1621D01*
X1742Y1621D01*
X1742Y1611D01*
X1744Y1611D01*
X1744Y1601D01*
X1742Y1601D01*
X1742Y1593D01*
X1740Y1593D01*
X1740Y1587D01*
X1738Y1587D01*
X1738Y1583D01*
X1736Y1583D01*
X1736Y1579D01*
X1734Y1579D01*
X1734Y1577D01*
X1732Y1577D01*
X1732Y1575D01*
X1730Y1575D01*
X1730Y1573D01*
X1728Y1573D01*
X1728Y1571D01*
X1726Y1571D01*
X1726Y1569D01*
X1724Y1569D01*
X1724Y1567D01*
X1720Y1567D01*
X1720Y1547D01*
X1722Y1547D01*
X1722Y1545D01*
X1724Y1545D01*
X1724Y1543D01*
X1726Y1543D01*
X1726Y1541D01*
X1730Y1541D01*
X1730Y1537D01*
X1732Y1537D01*
X1732Y1535D01*
X1734Y1535D01*
X1734Y1533D01*
X1736Y1533D01*
X1736Y1529D01*
X1738Y1529D01*
X1738Y1525D01*
X1740Y1525D01*
X1740Y1521D01*
X1742Y1521D01*
X1742Y1511D01*
X1744Y1511D01*
X1744Y1503D01*
X2558Y1503D01*
X2558Y1501D01*
X2564Y1501D01*
X2564Y1499D01*
X2568Y1499D01*
X2568Y1497D01*
X2572Y1497D01*
X2572Y1495D01*
X2574Y1495D01*
X2574Y1493D01*
X2576Y1493D01*
X2576Y1491D01*
X2580Y1491D01*
X2580Y1487D01*
X2582Y1487D01*
X2582Y1485D01*
X2584Y1485D01*
X2584Y1483D01*
X2586Y1483D01*
X2586Y1479D01*
X2588Y1479D01*
X2588Y1475D01*
X2590Y1475D01*
X2590Y1471D01*
X2592Y1471D01*
X2592Y1461D01*
X2594Y1461D01*
X2594Y1451D01*
X2592Y1451D01*
X2592Y1443D01*
X2590Y1443D01*
X2590Y1437D01*
X2588Y1437D01*
X2588Y1433D01*
X2586Y1433D01*
X2586Y1429D01*
X2584Y1429D01*
X2584Y1427D01*
X2582Y1427D01*
X2582Y1425D01*
X2580Y1425D01*
X2580Y1423D01*
X2578Y1423D01*
X2578Y1421D01*
X2576Y1421D01*
X2576Y1419D01*
X2574Y1419D01*
X2574Y1417D01*
X2570Y1417D01*
X2570Y1415D01*
X2568Y1415D01*
X2568Y1413D01*
X2562Y1413D01*
X2562Y1411D01*
X2556Y1411D01*
X2556Y1409D01*
X2664Y1409D01*
X2664Y1453D01*
X2662Y1453D01*
X2662Y1455D01*
X2660Y1455D01*
X2660Y1457D01*
X2658Y1457D01*
X2658Y1459D01*
X2656Y1459D01*
X2656Y1461D01*
X2654Y1461D01*
X2654Y1463D01*
X2652Y1463D01*
X2652Y1465D01*
X2650Y1465D01*
X2650Y1467D01*
X2648Y1467D01*
X2648Y1469D01*
X2646Y1469D01*
X2646Y1471D01*
X2644Y1471D01*
X2644Y1473D01*
X2642Y1473D01*
X2642Y1475D01*
X2640Y1475D01*
X2640Y1477D01*
X2638Y1477D01*
X2638Y1479D01*
X2636Y1479D01*
X2636Y1481D01*
X2634Y1481D01*
X2634Y1483D01*
X2632Y1483D01*
X2632Y1485D01*
X2630Y1485D01*
X2630Y1487D01*
X2628Y1487D01*
X2628Y1489D01*
X2626Y1489D01*
X2626Y1491D01*
X2624Y1491D01*
X2624Y1493D01*
X2622Y1493D01*
X2622Y1495D01*
X2620Y1495D01*
X2620Y1497D01*
X2618Y1497D01*
X2618Y1499D01*
X2616Y1499D01*
X2616Y1501D01*
X2614Y1501D01*
X2614Y1503D01*
X2612Y1503D01*
X2612Y1505D01*
X2610Y1505D01*
X2610Y1507D01*
X2608Y1507D01*
X2608Y1509D01*
X2606Y1509D01*
X2606Y1511D01*
X2604Y1511D01*
X2604Y1513D01*
X2602Y1513D01*
X2602Y1515D01*
X2600Y1515D01*
X2600Y1517D01*
X2598Y1517D01*
X2598Y1519D01*
X2596Y1519D01*
X2596Y1521D01*
X2594Y1521D01*
X2594Y1523D01*
X2592Y1523D01*
X2592Y1525D01*
X2590Y1525D01*
X2590Y1527D01*
X2588Y1527D01*
X2588Y1529D01*
X2586Y1529D01*
X2586Y1531D01*
X2584Y1531D01*
X2584Y1533D01*
X2582Y1533D01*
X2582Y1535D01*
X2580Y1535D01*
X2580Y1537D01*
X2578Y1537D01*
X2578Y1539D01*
X2576Y1539D01*
X2576Y1541D01*
X2574Y1541D01*
X2574Y1543D01*
X2572Y1543D01*
X2572Y1545D01*
X2570Y1545D01*
X2570Y1547D01*
X2568Y1547D01*
X2568Y1549D01*
X2566Y1549D01*
X2566Y1551D01*
X2564Y1551D01*
X2564Y1959D01*
X52Y1959D01*
G37*
D02*
G36*
X52Y1653D02*
X52Y151D01*
X1316Y151D01*
X1316Y149D01*
X1322Y149D01*
X1322Y147D01*
X1326Y147D01*
X1326Y145D01*
X1330Y145D01*
X1330Y143D01*
X1332Y143D01*
X1332Y141D01*
X1336Y141D01*
X1336Y139D01*
X1338Y139D01*
X1338Y137D01*
X1340Y137D01*
X1340Y135D01*
X1342Y135D01*
X1342Y131D01*
X1344Y131D01*
X1344Y129D01*
X1346Y129D01*
X1346Y125D01*
X1366Y125D01*
X1366Y129D01*
X1368Y129D01*
X1368Y131D01*
X1370Y131D01*
X1370Y135D01*
X1372Y135D01*
X1372Y137D01*
X1374Y137D01*
X1374Y139D01*
X1376Y139D01*
X1376Y141D01*
X1378Y141D01*
X1378Y143D01*
X1380Y143D01*
X1380Y275D01*
X1378Y275D01*
X1378Y389D01*
X1376Y389D01*
X1376Y503D01*
X1374Y503D01*
X1374Y617D01*
X1372Y617D01*
X1372Y1415D01*
X1374Y1415D01*
X1374Y1419D01*
X1376Y1419D01*
X1376Y1421D01*
X1378Y1421D01*
X1378Y1423D01*
X1380Y1423D01*
X1380Y1425D01*
X1382Y1425D01*
X1382Y1427D01*
X1386Y1427D01*
X1386Y1429D01*
X1582Y1429D01*
X1582Y1431D01*
X1656Y1431D01*
X1656Y1433D01*
X1658Y1433D01*
X1658Y1435D01*
X1660Y1435D01*
X1660Y1439D01*
X1662Y1439D01*
X1662Y1441D01*
X1666Y1441D01*
X1666Y1443D01*
X1668Y1443D01*
X1668Y1445D01*
X1670Y1445D01*
X1670Y1447D01*
X1672Y1447D01*
X1672Y1467D01*
X1668Y1467D01*
X1668Y1469D01*
X1666Y1469D01*
X1666Y1471D01*
X1664Y1471D01*
X1664Y1473D01*
X1662Y1473D01*
X1662Y1475D01*
X1660Y1475D01*
X1660Y1477D01*
X1658Y1477D01*
X1658Y1479D01*
X1656Y1479D01*
X1656Y1483D01*
X1654Y1483D01*
X1654Y1487D01*
X1652Y1487D01*
X1652Y1491D01*
X1650Y1491D01*
X1650Y1501D01*
X1648Y1501D01*
X1648Y1513D01*
X1650Y1513D01*
X1650Y1521D01*
X1652Y1521D01*
X1652Y1527D01*
X1654Y1527D01*
X1654Y1529D01*
X1656Y1529D01*
X1656Y1533D01*
X1658Y1533D01*
X1658Y1535D01*
X1660Y1535D01*
X1660Y1539D01*
X1662Y1539D01*
X1662Y1541D01*
X1666Y1541D01*
X1666Y1543D01*
X1668Y1543D01*
X1668Y1545D01*
X1670Y1545D01*
X1670Y1547D01*
X1672Y1547D01*
X1672Y1567D01*
X1668Y1567D01*
X1668Y1569D01*
X1666Y1569D01*
X1666Y1571D01*
X1664Y1571D01*
X1664Y1573D01*
X1662Y1573D01*
X1662Y1575D01*
X1660Y1575D01*
X1660Y1577D01*
X1658Y1577D01*
X1658Y1579D01*
X1656Y1579D01*
X1656Y1583D01*
X1654Y1583D01*
X1654Y1587D01*
X1652Y1587D01*
X1652Y1591D01*
X1650Y1591D01*
X1650Y1601D01*
X1648Y1601D01*
X1648Y1613D01*
X1650Y1613D01*
X1650Y1621D01*
X1652Y1621D01*
X1652Y1627D01*
X1654Y1627D01*
X1654Y1629D01*
X1656Y1629D01*
X1656Y1633D01*
X1658Y1633D01*
X1658Y1635D01*
X1660Y1635D01*
X1660Y1639D01*
X1662Y1639D01*
X1662Y1641D01*
X1666Y1641D01*
X1666Y1643D01*
X1668Y1643D01*
X1668Y1645D01*
X1670Y1645D01*
X1670Y1647D01*
X1674Y1647D01*
X1674Y1649D01*
X1678Y1649D01*
X1678Y1651D01*
X1684Y1651D01*
X1684Y1653D01*
X52Y1653D01*
G37*
D02*
G36*
X1744Y1503D02*
X1744Y1501D01*
X1742Y1501D01*
X1742Y1493D01*
X1740Y1493D01*
X1740Y1487D01*
X1738Y1487D01*
X1738Y1483D01*
X1736Y1483D01*
X1736Y1479D01*
X1734Y1479D01*
X1734Y1477D01*
X1732Y1477D01*
X1732Y1475D01*
X1730Y1475D01*
X1730Y1473D01*
X1728Y1473D01*
X1728Y1471D01*
X1726Y1471D01*
X1726Y1469D01*
X1724Y1469D01*
X1724Y1467D01*
X1720Y1467D01*
X1720Y1447D01*
X1722Y1447D01*
X1722Y1445D01*
X1724Y1445D01*
X1724Y1443D01*
X1726Y1443D01*
X1726Y1441D01*
X1730Y1441D01*
X1730Y1437D01*
X1732Y1437D01*
X1732Y1435D01*
X1734Y1435D01*
X1734Y1433D01*
X1736Y1433D01*
X1736Y1429D01*
X1738Y1429D01*
X1738Y1425D01*
X1740Y1425D01*
X1740Y1421D01*
X1742Y1421D01*
X1742Y1411D01*
X1746Y1411D01*
X1746Y1409D01*
X2536Y1409D01*
X2536Y1411D01*
X2530Y1411D01*
X2530Y1413D01*
X2524Y1413D01*
X2524Y1415D01*
X2522Y1415D01*
X2522Y1417D01*
X2518Y1417D01*
X2518Y1419D01*
X2516Y1419D01*
X2516Y1421D01*
X2514Y1421D01*
X2514Y1423D01*
X2512Y1423D01*
X2512Y1425D01*
X2510Y1425D01*
X2510Y1427D01*
X2508Y1427D01*
X2508Y1429D01*
X2506Y1429D01*
X2506Y1433D01*
X2504Y1433D01*
X2504Y1437D01*
X2502Y1437D01*
X2502Y1441D01*
X2500Y1441D01*
X2500Y1451D01*
X2498Y1451D01*
X2498Y1463D01*
X2500Y1463D01*
X2500Y1471D01*
X2502Y1471D01*
X2502Y1477D01*
X2504Y1477D01*
X2504Y1479D01*
X2506Y1479D01*
X2506Y1483D01*
X2508Y1483D01*
X2508Y1485D01*
X2510Y1485D01*
X2510Y1489D01*
X2512Y1489D01*
X2512Y1491D01*
X2516Y1491D01*
X2516Y1493D01*
X2518Y1493D01*
X2518Y1495D01*
X2520Y1495D01*
X2520Y1497D01*
X2524Y1497D01*
X2524Y1499D01*
X2528Y1499D01*
X2528Y1501D01*
X2534Y1501D01*
X2534Y1503D01*
X1744Y1503D01*
G37*
D02*
G36*
X1750Y1409D02*
X1750Y1407D01*
X2664Y1407D01*
X2664Y1409D01*
X1750Y1409D01*
G37*
D02*
G36*
X1750Y1409D02*
X1750Y1407D01*
X2664Y1407D01*
X2664Y1409D01*
X1750Y1409D01*
G37*
D02*
G36*
X1754Y1407D02*
X1754Y1405D01*
X1760Y1405D01*
X1760Y1403D01*
X1764Y1403D01*
X1764Y1401D01*
X1768Y1401D01*
X1768Y1399D01*
X1772Y1399D01*
X1772Y1397D01*
X1776Y1397D01*
X1776Y1395D01*
X1782Y1395D01*
X1782Y1393D01*
X1786Y1393D01*
X1786Y1391D01*
X1790Y1391D01*
X1790Y1389D01*
X1794Y1389D01*
X1794Y1387D01*
X1800Y1387D01*
X1800Y1385D01*
X1804Y1385D01*
X1804Y1383D01*
X1808Y1383D01*
X1808Y1381D01*
X1812Y1381D01*
X1812Y1379D01*
X1816Y1379D01*
X1816Y1377D01*
X1822Y1377D01*
X1822Y1375D01*
X1826Y1375D01*
X1826Y1373D01*
X1830Y1373D01*
X1830Y1371D01*
X1834Y1371D01*
X1834Y1369D01*
X1838Y1369D01*
X1838Y1367D01*
X1844Y1367D01*
X1844Y1365D01*
X1848Y1365D01*
X1848Y1363D01*
X1852Y1363D01*
X1852Y1361D01*
X1856Y1361D01*
X1856Y1359D01*
X1862Y1359D01*
X1862Y1357D01*
X1866Y1357D01*
X1866Y1355D01*
X2558Y1355D01*
X2558Y1353D01*
X2564Y1353D01*
X2564Y1351D01*
X2568Y1351D01*
X2568Y1349D01*
X2572Y1349D01*
X2572Y1347D01*
X2574Y1347D01*
X2574Y1345D01*
X2578Y1345D01*
X2578Y1343D01*
X2580Y1343D01*
X2580Y1341D01*
X2582Y1341D01*
X2582Y1339D01*
X2584Y1339D01*
X2584Y1337D01*
X2586Y1337D01*
X2586Y1333D01*
X2588Y1333D01*
X2588Y1331D01*
X2590Y1331D01*
X2590Y1327D01*
X2592Y1327D01*
X2592Y1321D01*
X2594Y1321D01*
X2594Y1311D01*
X2596Y1311D01*
X2596Y1301D01*
X2594Y1301D01*
X2594Y1291D01*
X2592Y1291D01*
X2592Y1285D01*
X2590Y1285D01*
X2590Y1283D01*
X2588Y1283D01*
X2588Y1279D01*
X2586Y1279D01*
X2586Y1277D01*
X2584Y1277D01*
X2584Y1273D01*
X2582Y1273D01*
X2582Y1271D01*
X2580Y1271D01*
X2580Y1269D01*
X2576Y1269D01*
X2576Y1267D01*
X2574Y1267D01*
X2574Y1265D01*
X2572Y1265D01*
X2572Y1263D01*
X2568Y1263D01*
X2568Y1261D01*
X2564Y1261D01*
X2564Y1259D01*
X2556Y1259D01*
X2556Y1257D01*
X2664Y1257D01*
X2664Y1407D01*
X1754Y1407D01*
G37*
D02*
G36*
X1720Y1361D02*
X1720Y1347D01*
X1722Y1347D01*
X1722Y1345D01*
X1724Y1345D01*
X1724Y1343D01*
X1726Y1343D01*
X1726Y1341D01*
X1730Y1341D01*
X1730Y1337D01*
X1732Y1337D01*
X1732Y1335D01*
X1734Y1335D01*
X1734Y1333D01*
X1736Y1333D01*
X1736Y1329D01*
X1738Y1329D01*
X1738Y1325D01*
X1740Y1325D01*
X1740Y1321D01*
X1742Y1321D01*
X1742Y1311D01*
X1744Y1311D01*
X1744Y1301D01*
X1742Y1301D01*
X1742Y1293D01*
X1740Y1293D01*
X1740Y1287D01*
X1738Y1287D01*
X1738Y1283D01*
X1736Y1283D01*
X1736Y1279D01*
X1734Y1279D01*
X1734Y1277D01*
X1732Y1277D01*
X1732Y1275D01*
X1730Y1275D01*
X1730Y1273D01*
X1728Y1273D01*
X1728Y1271D01*
X1726Y1271D01*
X1726Y1269D01*
X1724Y1269D01*
X1724Y1267D01*
X1720Y1267D01*
X1720Y1247D01*
X1722Y1247D01*
X1722Y1245D01*
X1724Y1245D01*
X1724Y1243D01*
X1726Y1243D01*
X1726Y1241D01*
X1730Y1241D01*
X1730Y1237D01*
X1732Y1237D01*
X1732Y1235D01*
X1734Y1235D01*
X1734Y1233D01*
X1736Y1233D01*
X1736Y1229D01*
X1738Y1229D01*
X1738Y1225D01*
X1740Y1225D01*
X1740Y1221D01*
X1742Y1221D01*
X1742Y1217D01*
X1746Y1217D01*
X1746Y1215D01*
X1752Y1215D01*
X1752Y1213D01*
X1760Y1213D01*
X1760Y1211D01*
X1766Y1211D01*
X1766Y1209D01*
X1772Y1209D01*
X1772Y1207D01*
X1780Y1207D01*
X1780Y1205D01*
X1786Y1205D01*
X1786Y1203D01*
X1792Y1203D01*
X1792Y1201D01*
X1800Y1201D01*
X1800Y1199D01*
X1806Y1199D01*
X1806Y1197D01*
X1812Y1197D01*
X1812Y1195D01*
X1818Y1195D01*
X1818Y1193D01*
X1826Y1193D01*
X1826Y1191D01*
X1832Y1191D01*
X1832Y1189D01*
X1838Y1189D01*
X1838Y1187D01*
X1846Y1187D01*
X1846Y1185D01*
X1852Y1185D01*
X1852Y1183D01*
X1858Y1183D01*
X1858Y1181D01*
X1866Y1181D01*
X1866Y1179D01*
X1872Y1179D01*
X1872Y1177D01*
X1878Y1177D01*
X1878Y1175D01*
X1884Y1175D01*
X1884Y1173D01*
X1892Y1173D01*
X1892Y1171D01*
X1898Y1171D01*
X1898Y1169D01*
X1904Y1169D01*
X1904Y1167D01*
X1912Y1167D01*
X1912Y1165D01*
X1918Y1165D01*
X1918Y1163D01*
X1924Y1163D01*
X1924Y1161D01*
X1932Y1161D01*
X1932Y1159D01*
X1938Y1159D01*
X1938Y1157D01*
X1944Y1157D01*
X1944Y1155D01*
X1950Y1155D01*
X1950Y1153D01*
X1958Y1153D01*
X1958Y1151D01*
X1964Y1151D01*
X1964Y1149D01*
X1970Y1149D01*
X1970Y1147D01*
X1978Y1147D01*
X1978Y1145D01*
X1984Y1145D01*
X1984Y1143D01*
X1990Y1143D01*
X1990Y1141D01*
X1998Y1141D01*
X1998Y1139D01*
X2004Y1139D01*
X2004Y1137D01*
X2010Y1137D01*
X2010Y1135D01*
X2016Y1135D01*
X2016Y1133D01*
X2024Y1133D01*
X2024Y1131D01*
X2030Y1131D01*
X2030Y1129D01*
X2036Y1129D01*
X2036Y1127D01*
X2044Y1127D01*
X2044Y1125D01*
X2050Y1125D01*
X2050Y1123D01*
X2056Y1123D01*
X2056Y1121D01*
X2062Y1121D01*
X2062Y1119D01*
X2070Y1119D01*
X2070Y1117D01*
X2076Y1117D01*
X2076Y1115D01*
X2082Y1115D01*
X2082Y1113D01*
X2090Y1113D01*
X2090Y1111D01*
X2096Y1111D01*
X2096Y1109D01*
X2102Y1109D01*
X2102Y1107D01*
X2110Y1107D01*
X2110Y1105D01*
X2116Y1105D01*
X2116Y1103D01*
X2122Y1103D01*
X2122Y1101D01*
X2128Y1101D01*
X2128Y1099D01*
X2136Y1099D01*
X2136Y1097D01*
X2142Y1097D01*
X2142Y1095D01*
X2148Y1095D01*
X2148Y1093D01*
X2156Y1093D01*
X2156Y1091D01*
X2162Y1091D01*
X2162Y1089D01*
X2168Y1089D01*
X2168Y1087D01*
X2176Y1087D01*
X2176Y1085D01*
X2182Y1085D01*
X2182Y1083D01*
X2188Y1083D01*
X2188Y1081D01*
X2194Y1081D01*
X2194Y1079D01*
X2202Y1079D01*
X2202Y1077D01*
X2206Y1077D01*
X2206Y1075D01*
X2210Y1075D01*
X2210Y1073D01*
X2212Y1073D01*
X2212Y1071D01*
X2214Y1071D01*
X2214Y1069D01*
X2216Y1069D01*
X2216Y1067D01*
X2218Y1067D01*
X2218Y1061D01*
X2220Y1061D01*
X2220Y409D01*
X2586Y409D01*
X2586Y411D01*
X2580Y411D01*
X2580Y413D01*
X2574Y413D01*
X2574Y415D01*
X2572Y415D01*
X2572Y417D01*
X2568Y417D01*
X2568Y419D01*
X2566Y419D01*
X2566Y421D01*
X2564Y421D01*
X2564Y423D01*
X2562Y423D01*
X2562Y425D01*
X2560Y425D01*
X2560Y427D01*
X2558Y427D01*
X2558Y429D01*
X2556Y429D01*
X2556Y433D01*
X2554Y433D01*
X2554Y437D01*
X2552Y437D01*
X2552Y441D01*
X2550Y441D01*
X2550Y451D01*
X2548Y451D01*
X2548Y463D01*
X2550Y463D01*
X2550Y471D01*
X2552Y471D01*
X2552Y477D01*
X2554Y477D01*
X2554Y479D01*
X2556Y479D01*
X2556Y483D01*
X2558Y483D01*
X2558Y485D01*
X2560Y485D01*
X2560Y487D01*
X2562Y487D01*
X2562Y491D01*
X2566Y491D01*
X2566Y493D01*
X2568Y493D01*
X2568Y495D01*
X2570Y495D01*
X2570Y497D01*
X2572Y497D01*
X2572Y517D01*
X2568Y517D01*
X2568Y519D01*
X2566Y519D01*
X2566Y521D01*
X2564Y521D01*
X2564Y523D01*
X2562Y523D01*
X2562Y525D01*
X2560Y525D01*
X2560Y527D01*
X2558Y527D01*
X2558Y529D01*
X2556Y529D01*
X2556Y533D01*
X2442Y533D01*
X2442Y535D01*
X2434Y535D01*
X2434Y537D01*
X2432Y537D01*
X2432Y539D01*
X2428Y539D01*
X2428Y541D01*
X2426Y541D01*
X2426Y543D01*
X2424Y543D01*
X2424Y547D01*
X2422Y547D01*
X2422Y553D01*
X2420Y553D01*
X2420Y563D01*
X2422Y563D01*
X2422Y569D01*
X2424Y569D01*
X2424Y577D01*
X2426Y577D01*
X2426Y583D01*
X2428Y583D01*
X2428Y591D01*
X2430Y591D01*
X2430Y597D01*
X2432Y597D01*
X2432Y605D01*
X2434Y605D01*
X2434Y611D01*
X2436Y611D01*
X2436Y617D01*
X2438Y617D01*
X2438Y625D01*
X2440Y625D01*
X2440Y631D01*
X2442Y631D01*
X2442Y639D01*
X2444Y639D01*
X2444Y645D01*
X2446Y645D01*
X2446Y653D01*
X2448Y653D01*
X2448Y659D01*
X2450Y659D01*
X2450Y665D01*
X2452Y665D01*
X2452Y673D01*
X2454Y673D01*
X2454Y679D01*
X2456Y679D01*
X2456Y687D01*
X2458Y687D01*
X2458Y693D01*
X2460Y693D01*
X2460Y701D01*
X2462Y701D01*
X2462Y707D01*
X2464Y707D01*
X2464Y715D01*
X2466Y715D01*
X2466Y721D01*
X2468Y721D01*
X2468Y727D01*
X2470Y727D01*
X2470Y735D01*
X2472Y735D01*
X2472Y741D01*
X2474Y741D01*
X2474Y749D01*
X2476Y749D01*
X2476Y755D01*
X2478Y755D01*
X2478Y763D01*
X2480Y763D01*
X2480Y769D01*
X2482Y769D01*
X2482Y775D01*
X2484Y775D01*
X2484Y783D01*
X2486Y783D01*
X2486Y789D01*
X2488Y789D01*
X2488Y797D01*
X2490Y797D01*
X2490Y803D01*
X2492Y803D01*
X2492Y811D01*
X2494Y811D01*
X2494Y817D01*
X2496Y817D01*
X2496Y823D01*
X2498Y823D01*
X2498Y831D01*
X2500Y831D01*
X2500Y837D01*
X2502Y837D01*
X2502Y845D01*
X2504Y845D01*
X2504Y851D01*
X2506Y851D01*
X2506Y879D01*
X2504Y879D01*
X2504Y883D01*
X2502Y883D01*
X2502Y885D01*
X2500Y885D01*
X2500Y891D01*
X2498Y891D01*
X2498Y899D01*
X2496Y899D01*
X2496Y917D01*
X2494Y917D01*
X2494Y919D01*
X2492Y919D01*
X2492Y921D01*
X2490Y921D01*
X2490Y923D01*
X2488Y923D01*
X2488Y925D01*
X2486Y925D01*
X2486Y927D01*
X2482Y927D01*
X2482Y929D01*
X2480Y929D01*
X2480Y931D01*
X2478Y931D01*
X2478Y933D01*
X2476Y933D01*
X2476Y935D01*
X2474Y935D01*
X2474Y937D01*
X2470Y937D01*
X2470Y939D01*
X2468Y939D01*
X2468Y941D01*
X2466Y941D01*
X2466Y943D01*
X2464Y943D01*
X2464Y945D01*
X2462Y945D01*
X2462Y947D01*
X2458Y947D01*
X2458Y949D01*
X2456Y949D01*
X2456Y951D01*
X2454Y951D01*
X2454Y953D01*
X2452Y953D01*
X2452Y955D01*
X2450Y955D01*
X2450Y957D01*
X2448Y957D01*
X2448Y959D01*
X2444Y959D01*
X2444Y961D01*
X2442Y961D01*
X2442Y963D01*
X2440Y963D01*
X2440Y965D01*
X2438Y965D01*
X2438Y967D01*
X2436Y967D01*
X2436Y969D01*
X2432Y969D01*
X2432Y971D01*
X2430Y971D01*
X2430Y973D01*
X2428Y973D01*
X2428Y975D01*
X2426Y975D01*
X2426Y977D01*
X2424Y977D01*
X2424Y979D01*
X2420Y979D01*
X2420Y981D01*
X2418Y981D01*
X2418Y983D01*
X2416Y983D01*
X2416Y985D01*
X2414Y985D01*
X2414Y987D01*
X2412Y987D01*
X2412Y989D01*
X2410Y989D01*
X2410Y991D01*
X2406Y991D01*
X2406Y993D01*
X2404Y993D01*
X2404Y995D01*
X2402Y995D01*
X2402Y997D01*
X2400Y997D01*
X2400Y999D01*
X2398Y999D01*
X2398Y1001D01*
X2394Y1001D01*
X2394Y1003D01*
X2392Y1003D01*
X2392Y1005D01*
X2390Y1005D01*
X2390Y1007D01*
X2388Y1007D01*
X2388Y1009D01*
X2386Y1009D01*
X2386Y1011D01*
X2382Y1011D01*
X2382Y1013D01*
X2380Y1013D01*
X2380Y1015D01*
X2378Y1015D01*
X2378Y1017D01*
X2376Y1017D01*
X2376Y1019D01*
X2374Y1019D01*
X2374Y1021D01*
X2372Y1021D01*
X2372Y1023D01*
X2368Y1023D01*
X2368Y1025D01*
X2366Y1025D01*
X2366Y1027D01*
X2364Y1027D01*
X2364Y1029D01*
X2362Y1029D01*
X2362Y1031D01*
X2360Y1031D01*
X2360Y1033D01*
X2356Y1033D01*
X2356Y1035D01*
X2354Y1035D01*
X2354Y1037D01*
X2352Y1037D01*
X2352Y1039D01*
X2350Y1039D01*
X2350Y1041D01*
X2348Y1041D01*
X2348Y1043D01*
X2344Y1043D01*
X2344Y1045D01*
X2342Y1045D01*
X2342Y1047D01*
X2340Y1047D01*
X2340Y1049D01*
X2338Y1049D01*
X2338Y1051D01*
X2336Y1051D01*
X2336Y1053D01*
X2334Y1053D01*
X2334Y1055D01*
X2330Y1055D01*
X2330Y1057D01*
X2328Y1057D01*
X2328Y1059D01*
X2326Y1059D01*
X2326Y1061D01*
X2324Y1061D01*
X2324Y1063D01*
X2322Y1063D01*
X2322Y1065D01*
X2318Y1065D01*
X2318Y1067D01*
X2316Y1067D01*
X2316Y1069D01*
X2314Y1069D01*
X2314Y1071D01*
X2312Y1071D01*
X2312Y1073D01*
X2310Y1073D01*
X2310Y1075D01*
X2306Y1075D01*
X2306Y1077D01*
X2304Y1077D01*
X2304Y1079D01*
X2302Y1079D01*
X2302Y1081D01*
X2300Y1081D01*
X2300Y1083D01*
X2298Y1083D01*
X2298Y1085D01*
X2296Y1085D01*
X2296Y1087D01*
X2292Y1087D01*
X2292Y1089D01*
X2290Y1089D01*
X2290Y1091D01*
X2288Y1091D01*
X2288Y1093D01*
X2286Y1093D01*
X2286Y1095D01*
X2284Y1095D01*
X2284Y1097D01*
X2280Y1097D01*
X2280Y1099D01*
X2278Y1099D01*
X2278Y1101D01*
X2276Y1101D01*
X2276Y1103D01*
X2274Y1103D01*
X2274Y1105D01*
X2272Y1105D01*
X2272Y1107D01*
X2268Y1107D01*
X2268Y1109D01*
X2266Y1109D01*
X2266Y1111D01*
X2264Y1111D01*
X2264Y1113D01*
X2262Y1113D01*
X2262Y1115D01*
X2260Y1115D01*
X2260Y1117D01*
X2256Y1117D01*
X2256Y1119D01*
X2254Y1119D01*
X2254Y1121D01*
X2252Y1121D01*
X2252Y1123D01*
X2250Y1123D01*
X2250Y1125D01*
X2248Y1125D01*
X2248Y1127D01*
X2246Y1127D01*
X2246Y1129D01*
X2242Y1129D01*
X2242Y1131D01*
X2240Y1131D01*
X2240Y1133D01*
X2238Y1133D01*
X2238Y1135D01*
X2236Y1135D01*
X2236Y1137D01*
X2232Y1137D01*
X2232Y1139D01*
X2228Y1139D01*
X2228Y1141D01*
X2224Y1141D01*
X2224Y1143D01*
X2218Y1143D01*
X2218Y1145D01*
X2214Y1145D01*
X2214Y1147D01*
X2210Y1147D01*
X2210Y1149D01*
X2206Y1149D01*
X2206Y1151D01*
X2200Y1151D01*
X2200Y1153D01*
X2196Y1153D01*
X2196Y1155D01*
X2192Y1155D01*
X2192Y1157D01*
X2188Y1157D01*
X2188Y1159D01*
X2184Y1159D01*
X2184Y1161D01*
X2178Y1161D01*
X2178Y1163D01*
X2174Y1163D01*
X2174Y1165D01*
X2170Y1165D01*
X2170Y1167D01*
X2166Y1167D01*
X2166Y1169D01*
X2162Y1169D01*
X2162Y1171D01*
X2156Y1171D01*
X2156Y1173D01*
X2152Y1173D01*
X2152Y1175D01*
X2148Y1175D01*
X2148Y1177D01*
X2144Y1177D01*
X2144Y1179D01*
X2138Y1179D01*
X2138Y1181D01*
X2134Y1181D01*
X2134Y1183D01*
X2130Y1183D01*
X2130Y1185D01*
X2126Y1185D01*
X2126Y1187D01*
X2122Y1187D01*
X2122Y1189D01*
X2116Y1189D01*
X2116Y1191D01*
X2112Y1191D01*
X2112Y1193D01*
X2108Y1193D01*
X2108Y1195D01*
X2104Y1195D01*
X2104Y1197D01*
X2100Y1197D01*
X2100Y1199D01*
X2094Y1199D01*
X2094Y1201D01*
X2090Y1201D01*
X2090Y1203D01*
X2086Y1203D01*
X2086Y1205D01*
X2082Y1205D01*
X2082Y1207D01*
X2076Y1207D01*
X2076Y1209D01*
X2072Y1209D01*
X2072Y1211D01*
X2068Y1211D01*
X2068Y1213D01*
X2064Y1213D01*
X2064Y1215D01*
X2060Y1215D01*
X2060Y1217D01*
X2054Y1217D01*
X2054Y1219D01*
X2050Y1219D01*
X2050Y1221D01*
X2046Y1221D01*
X2046Y1223D01*
X2042Y1223D01*
X2042Y1225D01*
X2036Y1225D01*
X2036Y1227D01*
X2032Y1227D01*
X2032Y1229D01*
X2028Y1229D01*
X2028Y1231D01*
X2024Y1231D01*
X2024Y1233D01*
X2020Y1233D01*
X2020Y1235D01*
X2014Y1235D01*
X2014Y1237D01*
X2010Y1237D01*
X2010Y1239D01*
X2006Y1239D01*
X2006Y1241D01*
X2002Y1241D01*
X2002Y1243D01*
X1998Y1243D01*
X1998Y1245D01*
X1992Y1245D01*
X1992Y1247D01*
X1988Y1247D01*
X1988Y1249D01*
X1984Y1249D01*
X1984Y1251D01*
X1980Y1251D01*
X1980Y1253D01*
X1974Y1253D01*
X1974Y1255D01*
X1970Y1255D01*
X1970Y1257D01*
X1966Y1257D01*
X1966Y1259D01*
X1962Y1259D01*
X1962Y1261D01*
X1958Y1261D01*
X1958Y1263D01*
X1952Y1263D01*
X1952Y1265D01*
X1948Y1265D01*
X1948Y1267D01*
X1944Y1267D01*
X1944Y1269D01*
X1940Y1269D01*
X1940Y1271D01*
X1936Y1271D01*
X1936Y1273D01*
X1930Y1273D01*
X1930Y1275D01*
X1926Y1275D01*
X1926Y1277D01*
X1922Y1277D01*
X1922Y1279D01*
X1918Y1279D01*
X1918Y1281D01*
X1912Y1281D01*
X1912Y1283D01*
X1908Y1283D01*
X1908Y1285D01*
X1904Y1285D01*
X1904Y1287D01*
X1900Y1287D01*
X1900Y1289D01*
X1896Y1289D01*
X1896Y1291D01*
X1890Y1291D01*
X1890Y1293D01*
X1886Y1293D01*
X1886Y1295D01*
X1882Y1295D01*
X1882Y1297D01*
X1878Y1297D01*
X1878Y1299D01*
X1872Y1299D01*
X1872Y1301D01*
X1868Y1301D01*
X1868Y1303D01*
X1864Y1303D01*
X1864Y1305D01*
X1860Y1305D01*
X1860Y1307D01*
X1856Y1307D01*
X1856Y1309D01*
X1850Y1309D01*
X1850Y1311D01*
X1846Y1311D01*
X1846Y1313D01*
X1842Y1313D01*
X1842Y1315D01*
X1838Y1315D01*
X1838Y1317D01*
X1834Y1317D01*
X1834Y1319D01*
X1828Y1319D01*
X1828Y1321D01*
X1824Y1321D01*
X1824Y1323D01*
X1820Y1323D01*
X1820Y1325D01*
X1816Y1325D01*
X1816Y1327D01*
X1810Y1327D01*
X1810Y1329D01*
X1806Y1329D01*
X1806Y1331D01*
X1802Y1331D01*
X1802Y1333D01*
X1798Y1333D01*
X1798Y1335D01*
X1794Y1335D01*
X1794Y1337D01*
X1788Y1337D01*
X1788Y1339D01*
X1784Y1339D01*
X1784Y1341D01*
X1780Y1341D01*
X1780Y1343D01*
X1776Y1343D01*
X1776Y1345D01*
X1770Y1345D01*
X1770Y1347D01*
X1766Y1347D01*
X1766Y1349D01*
X1762Y1349D01*
X1762Y1351D01*
X1758Y1351D01*
X1758Y1353D01*
X1754Y1353D01*
X1754Y1355D01*
X1748Y1355D01*
X1748Y1357D01*
X1744Y1357D01*
X1744Y1359D01*
X1740Y1359D01*
X1740Y1361D01*
X1720Y1361D01*
G37*
D02*
G36*
X1870Y1355D02*
X1870Y1353D01*
X1874Y1353D01*
X1874Y1351D01*
X1878Y1351D01*
X1878Y1349D01*
X1884Y1349D01*
X1884Y1347D01*
X1888Y1347D01*
X1888Y1345D01*
X1892Y1345D01*
X1892Y1343D01*
X1896Y1343D01*
X1896Y1341D01*
X1902Y1341D01*
X1902Y1339D01*
X1906Y1339D01*
X1906Y1337D01*
X1910Y1337D01*
X1910Y1335D01*
X1914Y1335D01*
X1914Y1333D01*
X1918Y1333D01*
X1918Y1331D01*
X1924Y1331D01*
X1924Y1329D01*
X1928Y1329D01*
X1928Y1327D01*
X1932Y1327D01*
X1932Y1325D01*
X1936Y1325D01*
X1936Y1323D01*
X1940Y1323D01*
X1940Y1321D01*
X1946Y1321D01*
X1946Y1319D01*
X1950Y1319D01*
X1950Y1317D01*
X1954Y1317D01*
X1954Y1315D01*
X1958Y1315D01*
X1958Y1313D01*
X1964Y1313D01*
X1964Y1311D01*
X1968Y1311D01*
X1968Y1309D01*
X1972Y1309D01*
X1972Y1307D01*
X1976Y1307D01*
X1976Y1305D01*
X1980Y1305D01*
X1980Y1303D01*
X1986Y1303D01*
X1986Y1301D01*
X1990Y1301D01*
X1990Y1299D01*
X1994Y1299D01*
X1994Y1297D01*
X1998Y1297D01*
X1998Y1295D01*
X2002Y1295D01*
X2002Y1293D01*
X2008Y1293D01*
X2008Y1291D01*
X2012Y1291D01*
X2012Y1289D01*
X2016Y1289D01*
X2016Y1287D01*
X2020Y1287D01*
X2020Y1285D01*
X2026Y1285D01*
X2026Y1283D01*
X2030Y1283D01*
X2030Y1281D01*
X2034Y1281D01*
X2034Y1279D01*
X2038Y1279D01*
X2038Y1277D01*
X2042Y1277D01*
X2042Y1275D01*
X2048Y1275D01*
X2048Y1273D01*
X2052Y1273D01*
X2052Y1271D01*
X2056Y1271D01*
X2056Y1269D01*
X2060Y1269D01*
X2060Y1267D01*
X2066Y1267D01*
X2066Y1265D01*
X2070Y1265D01*
X2070Y1263D01*
X2074Y1263D01*
X2074Y1261D01*
X2078Y1261D01*
X2078Y1259D01*
X2082Y1259D01*
X2082Y1257D01*
X2536Y1257D01*
X2536Y1259D01*
X2528Y1259D01*
X2528Y1261D01*
X2524Y1261D01*
X2524Y1263D01*
X2520Y1263D01*
X2520Y1265D01*
X2518Y1265D01*
X2518Y1267D01*
X2514Y1267D01*
X2514Y1269D01*
X2512Y1269D01*
X2512Y1271D01*
X2510Y1271D01*
X2510Y1273D01*
X2508Y1273D01*
X2508Y1277D01*
X2506Y1277D01*
X2506Y1279D01*
X2504Y1279D01*
X2504Y1283D01*
X2502Y1283D01*
X2502Y1285D01*
X2500Y1285D01*
X2500Y1291D01*
X2498Y1291D01*
X2498Y1299D01*
X2496Y1299D01*
X2496Y1313D01*
X2498Y1313D01*
X2498Y1321D01*
X2500Y1321D01*
X2500Y1327D01*
X2502Y1327D01*
X2502Y1331D01*
X2504Y1331D01*
X2504Y1333D01*
X2506Y1333D01*
X2506Y1337D01*
X2508Y1337D01*
X2508Y1339D01*
X2510Y1339D01*
X2510Y1341D01*
X2512Y1341D01*
X2512Y1343D01*
X2514Y1343D01*
X2514Y1345D01*
X2516Y1345D01*
X2516Y1347D01*
X2520Y1347D01*
X2520Y1349D01*
X2524Y1349D01*
X2524Y1351D01*
X2528Y1351D01*
X2528Y1353D01*
X2534Y1353D01*
X2534Y1355D01*
X1870Y1355D01*
G37*
D02*
G36*
X2088Y1257D02*
X2088Y1255D01*
X2664Y1255D01*
X2664Y1257D01*
X2088Y1257D01*
G37*
D02*
G36*
X2088Y1257D02*
X2088Y1255D01*
X2664Y1255D01*
X2664Y1257D01*
X2088Y1257D01*
G37*
D02*
G36*
X2092Y1255D02*
X2092Y1253D01*
X2096Y1253D01*
X2096Y1251D01*
X2100Y1251D01*
X2100Y1249D01*
X2104Y1249D01*
X2104Y1247D01*
X2110Y1247D01*
X2110Y1245D01*
X2114Y1245D01*
X2114Y1243D01*
X2118Y1243D01*
X2118Y1241D01*
X2122Y1241D01*
X2122Y1239D01*
X2128Y1239D01*
X2128Y1237D01*
X2132Y1237D01*
X2132Y1235D01*
X2136Y1235D01*
X2136Y1233D01*
X2140Y1233D01*
X2140Y1231D01*
X2144Y1231D01*
X2144Y1229D01*
X2150Y1229D01*
X2150Y1227D01*
X2154Y1227D01*
X2154Y1225D01*
X2158Y1225D01*
X2158Y1223D01*
X2162Y1223D01*
X2162Y1221D01*
X2166Y1221D01*
X2166Y1219D01*
X2172Y1219D01*
X2172Y1217D01*
X2176Y1217D01*
X2176Y1215D01*
X2180Y1215D01*
X2180Y1213D01*
X2184Y1213D01*
X2184Y1211D01*
X2190Y1211D01*
X2190Y1209D01*
X2194Y1209D01*
X2194Y1207D01*
X2198Y1207D01*
X2198Y1205D01*
X2202Y1205D01*
X2202Y1203D01*
X2206Y1203D01*
X2206Y1201D01*
X2212Y1201D01*
X2212Y1199D01*
X2216Y1199D01*
X2216Y1197D01*
X2220Y1197D01*
X2220Y1195D01*
X2224Y1195D01*
X2224Y1193D01*
X2230Y1193D01*
X2230Y1191D01*
X2234Y1191D01*
X2234Y1189D01*
X2238Y1189D01*
X2238Y1187D01*
X2242Y1187D01*
X2242Y1185D01*
X2246Y1185D01*
X2246Y1183D01*
X2252Y1183D01*
X2252Y1181D01*
X2256Y1181D01*
X2256Y1179D01*
X2260Y1179D01*
X2260Y1177D01*
X2262Y1177D01*
X2262Y1175D01*
X2266Y1175D01*
X2266Y1173D01*
X2268Y1173D01*
X2268Y1171D01*
X2270Y1171D01*
X2270Y1169D01*
X2272Y1169D01*
X2272Y1167D01*
X2274Y1167D01*
X2274Y1165D01*
X2276Y1165D01*
X2276Y1163D01*
X2280Y1163D01*
X2280Y1161D01*
X2282Y1161D01*
X2282Y1159D01*
X2284Y1159D01*
X2284Y1157D01*
X2286Y1157D01*
X2286Y1155D01*
X2288Y1155D01*
X2288Y1153D01*
X2292Y1153D01*
X2292Y1151D01*
X2294Y1151D01*
X2294Y1149D01*
X2296Y1149D01*
X2296Y1147D01*
X2298Y1147D01*
X2298Y1145D01*
X2300Y1145D01*
X2300Y1143D01*
X2304Y1143D01*
X2304Y1141D01*
X2306Y1141D01*
X2306Y1139D01*
X2308Y1139D01*
X2308Y1137D01*
X2310Y1137D01*
X2310Y1135D01*
X2312Y1135D01*
X2312Y1133D01*
X2314Y1133D01*
X2314Y1131D01*
X2318Y1131D01*
X2318Y1129D01*
X2320Y1129D01*
X2320Y1127D01*
X2322Y1127D01*
X2322Y1125D01*
X2324Y1125D01*
X2324Y1123D01*
X2326Y1123D01*
X2326Y1121D01*
X2330Y1121D01*
X2330Y1119D01*
X2332Y1119D01*
X2332Y1117D01*
X2334Y1117D01*
X2334Y1115D01*
X2336Y1115D01*
X2336Y1113D01*
X2338Y1113D01*
X2338Y1111D01*
X2342Y1111D01*
X2342Y1109D01*
X2344Y1109D01*
X2344Y1107D01*
X2346Y1107D01*
X2346Y1105D01*
X2348Y1105D01*
X2348Y1103D01*
X2350Y1103D01*
X2350Y1101D01*
X2352Y1101D01*
X2352Y1099D01*
X2356Y1099D01*
X2356Y1097D01*
X2358Y1097D01*
X2358Y1095D01*
X2360Y1095D01*
X2360Y1093D01*
X2362Y1093D01*
X2362Y1091D01*
X2364Y1091D01*
X2364Y1089D01*
X2368Y1089D01*
X2368Y1087D01*
X2370Y1087D01*
X2370Y1085D01*
X2372Y1085D01*
X2372Y1083D01*
X2374Y1083D01*
X2374Y1081D01*
X2376Y1081D01*
X2376Y1079D01*
X2380Y1079D01*
X2380Y1077D01*
X2382Y1077D01*
X2382Y1075D01*
X2384Y1075D01*
X2384Y1073D01*
X2386Y1073D01*
X2386Y1071D01*
X2388Y1071D01*
X2388Y1069D01*
X2390Y1069D01*
X2390Y1067D01*
X2394Y1067D01*
X2394Y1065D01*
X2396Y1065D01*
X2396Y1063D01*
X2398Y1063D01*
X2398Y1061D01*
X2400Y1061D01*
X2400Y1059D01*
X2402Y1059D01*
X2402Y1057D01*
X2406Y1057D01*
X2406Y1055D01*
X2408Y1055D01*
X2408Y1053D01*
X2410Y1053D01*
X2410Y1051D01*
X2412Y1051D01*
X2412Y1049D01*
X2414Y1049D01*
X2414Y1047D01*
X2418Y1047D01*
X2418Y1045D01*
X2420Y1045D01*
X2420Y1043D01*
X2422Y1043D01*
X2422Y1041D01*
X2424Y1041D01*
X2424Y1039D01*
X2426Y1039D01*
X2426Y1037D01*
X2428Y1037D01*
X2428Y1035D01*
X2432Y1035D01*
X2432Y1033D01*
X2434Y1033D01*
X2434Y1031D01*
X2436Y1031D01*
X2436Y1029D01*
X2438Y1029D01*
X2438Y1027D01*
X2440Y1027D01*
X2440Y1025D01*
X2444Y1025D01*
X2444Y1023D01*
X2446Y1023D01*
X2446Y1021D01*
X2448Y1021D01*
X2448Y1019D01*
X2450Y1019D01*
X2450Y1017D01*
X2452Y1017D01*
X2452Y1015D01*
X2456Y1015D01*
X2456Y1013D01*
X2458Y1013D01*
X2458Y1011D01*
X2460Y1011D01*
X2460Y1009D01*
X2462Y1009D01*
X2462Y1007D01*
X2464Y1007D01*
X2464Y1005D01*
X2466Y1005D01*
X2466Y1003D01*
X2470Y1003D01*
X2470Y1001D01*
X2472Y1001D01*
X2472Y999D01*
X2474Y999D01*
X2474Y997D01*
X2476Y997D01*
X2476Y995D01*
X2478Y995D01*
X2478Y993D01*
X2482Y993D01*
X2482Y991D01*
X2484Y991D01*
X2484Y989D01*
X2486Y989D01*
X2486Y987D01*
X2488Y987D01*
X2488Y985D01*
X2490Y985D01*
X2490Y983D01*
X2494Y983D01*
X2494Y981D01*
X2496Y981D01*
X2496Y979D01*
X2498Y979D01*
X2498Y977D01*
X2500Y977D01*
X2500Y975D01*
X2502Y975D01*
X2502Y973D01*
X2506Y973D01*
X2506Y971D01*
X2508Y971D01*
X2508Y969D01*
X2510Y969D01*
X2510Y967D01*
X2512Y967D01*
X2512Y965D01*
X2514Y965D01*
X2514Y963D01*
X2516Y963D01*
X2516Y961D01*
X2520Y961D01*
X2520Y959D01*
X2522Y959D01*
X2522Y957D01*
X2524Y957D01*
X2524Y955D01*
X2558Y955D01*
X2558Y953D01*
X2564Y953D01*
X2564Y951D01*
X2568Y951D01*
X2568Y949D01*
X2572Y949D01*
X2572Y947D01*
X2574Y947D01*
X2574Y945D01*
X2578Y945D01*
X2578Y943D01*
X2580Y943D01*
X2580Y941D01*
X2582Y941D01*
X2582Y939D01*
X2584Y939D01*
X2584Y937D01*
X2586Y937D01*
X2586Y933D01*
X2588Y933D01*
X2588Y931D01*
X2590Y931D01*
X2590Y927D01*
X2592Y927D01*
X2592Y921D01*
X2594Y921D01*
X2594Y911D01*
X2596Y911D01*
X2596Y901D01*
X2594Y901D01*
X2594Y891D01*
X2592Y891D01*
X2592Y885D01*
X2590Y885D01*
X2590Y883D01*
X2588Y883D01*
X2588Y879D01*
X2586Y879D01*
X2586Y877D01*
X2584Y877D01*
X2584Y873D01*
X2582Y873D01*
X2582Y871D01*
X2580Y871D01*
X2580Y869D01*
X2576Y869D01*
X2576Y867D01*
X2574Y867D01*
X2574Y865D01*
X2572Y865D01*
X2572Y863D01*
X2568Y863D01*
X2568Y861D01*
X2564Y861D01*
X2564Y859D01*
X2556Y859D01*
X2556Y851D01*
X2554Y851D01*
X2554Y845D01*
X2552Y845D01*
X2552Y837D01*
X2550Y837D01*
X2550Y831D01*
X2548Y831D01*
X2548Y823D01*
X2546Y823D01*
X2546Y817D01*
X2544Y817D01*
X2544Y811D01*
X2542Y811D01*
X2542Y803D01*
X2540Y803D01*
X2540Y797D01*
X2538Y797D01*
X2538Y789D01*
X2536Y789D01*
X2536Y783D01*
X2534Y783D01*
X2534Y775D01*
X2532Y775D01*
X2532Y769D01*
X2530Y769D01*
X2530Y763D01*
X2528Y763D01*
X2528Y755D01*
X2526Y755D01*
X2526Y749D01*
X2524Y749D01*
X2524Y741D01*
X2522Y741D01*
X2522Y735D01*
X2520Y735D01*
X2520Y727D01*
X2518Y727D01*
X2518Y721D01*
X2516Y721D01*
X2516Y713D01*
X2514Y713D01*
X2514Y707D01*
X2512Y707D01*
X2512Y703D01*
X2608Y703D01*
X2608Y701D01*
X2614Y701D01*
X2614Y699D01*
X2618Y699D01*
X2618Y697D01*
X2622Y697D01*
X2622Y695D01*
X2624Y695D01*
X2624Y693D01*
X2626Y693D01*
X2626Y691D01*
X2630Y691D01*
X2630Y687D01*
X2632Y687D01*
X2632Y685D01*
X2634Y685D01*
X2634Y683D01*
X2636Y683D01*
X2636Y679D01*
X2638Y679D01*
X2638Y675D01*
X2640Y675D01*
X2640Y671D01*
X2642Y671D01*
X2642Y661D01*
X2644Y661D01*
X2644Y651D01*
X2642Y651D01*
X2642Y643D01*
X2640Y643D01*
X2640Y637D01*
X2638Y637D01*
X2638Y633D01*
X2636Y633D01*
X2636Y629D01*
X2634Y629D01*
X2634Y627D01*
X2632Y627D01*
X2632Y625D01*
X2630Y625D01*
X2630Y623D01*
X2628Y623D01*
X2628Y621D01*
X2626Y621D01*
X2626Y619D01*
X2624Y619D01*
X2624Y617D01*
X2620Y617D01*
X2620Y597D01*
X2622Y597D01*
X2622Y595D01*
X2624Y595D01*
X2624Y593D01*
X2626Y593D01*
X2626Y591D01*
X2630Y591D01*
X2630Y587D01*
X2632Y587D01*
X2632Y585D01*
X2634Y585D01*
X2634Y583D01*
X2636Y583D01*
X2636Y579D01*
X2638Y579D01*
X2638Y575D01*
X2640Y575D01*
X2640Y571D01*
X2642Y571D01*
X2642Y561D01*
X2644Y561D01*
X2644Y551D01*
X2642Y551D01*
X2642Y543D01*
X2640Y543D01*
X2640Y537D01*
X2638Y537D01*
X2638Y533D01*
X2636Y533D01*
X2636Y529D01*
X2634Y529D01*
X2634Y527D01*
X2632Y527D01*
X2632Y525D01*
X2630Y525D01*
X2630Y523D01*
X2628Y523D01*
X2628Y521D01*
X2626Y521D01*
X2626Y519D01*
X2624Y519D01*
X2624Y517D01*
X2620Y517D01*
X2620Y497D01*
X2622Y497D01*
X2622Y495D01*
X2624Y495D01*
X2624Y493D01*
X2626Y493D01*
X2626Y491D01*
X2630Y491D01*
X2630Y487D01*
X2632Y487D01*
X2632Y485D01*
X2634Y485D01*
X2634Y483D01*
X2636Y483D01*
X2636Y479D01*
X2638Y479D01*
X2638Y475D01*
X2640Y475D01*
X2640Y471D01*
X2642Y471D01*
X2642Y461D01*
X2644Y461D01*
X2644Y451D01*
X2642Y451D01*
X2642Y443D01*
X2640Y443D01*
X2640Y437D01*
X2638Y437D01*
X2638Y433D01*
X2636Y433D01*
X2636Y429D01*
X2634Y429D01*
X2634Y427D01*
X2632Y427D01*
X2632Y425D01*
X2630Y425D01*
X2630Y423D01*
X2628Y423D01*
X2628Y421D01*
X2626Y421D01*
X2626Y419D01*
X2624Y419D01*
X2624Y417D01*
X2620Y417D01*
X2620Y415D01*
X2618Y415D01*
X2618Y413D01*
X2612Y413D01*
X2612Y411D01*
X2606Y411D01*
X2606Y409D01*
X2664Y409D01*
X2664Y1255D01*
X2092Y1255D01*
G37*
D02*
G36*
X2512Y703D02*
X2512Y701D01*
X2510Y701D01*
X2510Y693D01*
X2508Y693D01*
X2508Y687D01*
X2506Y687D01*
X2506Y679D01*
X2504Y679D01*
X2504Y673D01*
X2502Y673D01*
X2502Y665D01*
X2500Y665D01*
X2500Y659D01*
X2498Y659D01*
X2498Y653D01*
X2496Y653D01*
X2496Y645D01*
X2494Y645D01*
X2494Y639D01*
X2492Y639D01*
X2492Y631D01*
X2490Y631D01*
X2490Y625D01*
X2488Y625D01*
X2488Y617D01*
X2486Y617D01*
X2486Y611D01*
X2484Y611D01*
X2484Y605D01*
X2482Y605D01*
X2482Y581D01*
X2556Y581D01*
X2556Y583D01*
X2558Y583D01*
X2558Y585D01*
X2560Y585D01*
X2560Y587D01*
X2562Y587D01*
X2562Y591D01*
X2566Y591D01*
X2566Y593D01*
X2568Y593D01*
X2568Y595D01*
X2570Y595D01*
X2570Y597D01*
X2572Y597D01*
X2572Y617D01*
X2568Y617D01*
X2568Y619D01*
X2566Y619D01*
X2566Y621D01*
X2564Y621D01*
X2564Y623D01*
X2562Y623D01*
X2562Y625D01*
X2560Y625D01*
X2560Y627D01*
X2558Y627D01*
X2558Y629D01*
X2556Y629D01*
X2556Y633D01*
X2554Y633D01*
X2554Y637D01*
X2552Y637D01*
X2552Y641D01*
X2550Y641D01*
X2550Y651D01*
X2548Y651D01*
X2548Y663D01*
X2550Y663D01*
X2550Y671D01*
X2552Y671D01*
X2552Y677D01*
X2554Y677D01*
X2554Y679D01*
X2556Y679D01*
X2556Y683D01*
X2558Y683D01*
X2558Y685D01*
X2560Y685D01*
X2560Y687D01*
X2562Y687D01*
X2562Y691D01*
X2566Y691D01*
X2566Y693D01*
X2568Y693D01*
X2568Y695D01*
X2570Y695D01*
X2570Y697D01*
X2574Y697D01*
X2574Y699D01*
X2578Y699D01*
X2578Y701D01*
X2584Y701D01*
X2584Y703D01*
X2512Y703D01*
G37*
D02*
G36*
X2220Y409D02*
X2220Y407D01*
X2664Y407D01*
X2664Y409D01*
X2220Y409D01*
G37*
D02*
G36*
X2220Y409D02*
X2220Y407D01*
X2664Y407D01*
X2664Y409D01*
X2220Y409D01*
G37*
D02*
G36*
X2220Y407D02*
X2220Y381D01*
X2500Y381D01*
X2500Y379D01*
X2506Y379D01*
X2506Y377D01*
X2510Y377D01*
X2510Y375D01*
X2512Y375D01*
X2512Y373D01*
X2514Y373D01*
X2514Y371D01*
X2516Y371D01*
X2516Y367D01*
X2518Y367D01*
X2518Y363D01*
X2520Y363D01*
X2520Y331D01*
X2522Y331D01*
X2522Y281D01*
X2524Y281D01*
X2524Y231D01*
X2526Y231D01*
X2526Y181D01*
X2528Y181D01*
X2528Y145D01*
X2530Y145D01*
X2530Y143D01*
X2532Y143D01*
X2532Y141D01*
X2536Y141D01*
X2536Y139D01*
X2538Y139D01*
X2538Y137D01*
X2540Y137D01*
X2540Y135D01*
X2542Y135D01*
X2542Y131D01*
X2544Y131D01*
X2544Y129D01*
X2564Y129D01*
X2564Y147D01*
X2566Y147D01*
X2566Y149D01*
X2568Y149D01*
X2568Y151D01*
X2570Y151D01*
X2570Y153D01*
X2572Y153D01*
X2572Y155D01*
X2574Y155D01*
X2574Y157D01*
X2576Y157D01*
X2576Y159D01*
X2578Y159D01*
X2578Y161D01*
X2580Y161D01*
X2580Y163D01*
X2582Y163D01*
X2582Y165D01*
X2584Y165D01*
X2584Y167D01*
X2586Y167D01*
X2586Y169D01*
X2588Y169D01*
X2588Y171D01*
X2590Y171D01*
X2590Y173D01*
X2592Y173D01*
X2592Y175D01*
X2594Y175D01*
X2594Y177D01*
X2596Y177D01*
X2596Y179D01*
X2598Y179D01*
X2598Y181D01*
X2600Y181D01*
X2600Y183D01*
X2602Y183D01*
X2602Y185D01*
X2604Y185D01*
X2604Y187D01*
X2606Y187D01*
X2606Y189D01*
X2608Y189D01*
X2608Y191D01*
X2610Y191D01*
X2610Y193D01*
X2612Y193D01*
X2612Y195D01*
X2614Y195D01*
X2614Y197D01*
X2616Y197D01*
X2616Y199D01*
X2618Y199D01*
X2618Y201D01*
X2620Y201D01*
X2620Y203D01*
X2622Y203D01*
X2622Y205D01*
X2624Y205D01*
X2624Y207D01*
X2626Y207D01*
X2626Y209D01*
X2628Y209D01*
X2628Y211D01*
X2630Y211D01*
X2630Y213D01*
X2632Y213D01*
X2632Y215D01*
X2634Y215D01*
X2634Y217D01*
X2636Y217D01*
X2636Y219D01*
X2638Y219D01*
X2638Y221D01*
X2640Y221D01*
X2640Y223D01*
X2642Y223D01*
X2642Y225D01*
X2644Y225D01*
X2644Y227D01*
X2646Y227D01*
X2646Y229D01*
X2648Y229D01*
X2648Y231D01*
X2650Y231D01*
X2650Y233D01*
X2652Y233D01*
X2652Y235D01*
X2654Y235D01*
X2654Y237D01*
X2656Y237D01*
X2656Y239D01*
X2658Y239D01*
X2658Y241D01*
X2660Y241D01*
X2660Y243D01*
X2662Y243D01*
X2662Y245D01*
X2664Y245D01*
X2664Y407D01*
X2220Y407D01*
G37*
D02*
G36*
X52Y151D02*
X52Y71D01*
X54Y71D01*
X54Y67D01*
X56Y67D01*
X56Y63D01*
X58Y63D01*
X58Y61D01*
X60Y61D01*
X60Y59D01*
X62Y59D01*
X62Y57D01*
X64Y57D01*
X64Y55D01*
X66Y55D01*
X66Y53D01*
X70Y53D01*
X70Y51D01*
X74Y51D01*
X74Y49D01*
X80Y49D01*
X80Y47D01*
X1086Y47D01*
X1086Y67D01*
X1082Y67D01*
X1082Y69D01*
X1080Y69D01*
X1080Y71D01*
X1076Y71D01*
X1076Y73D01*
X1074Y73D01*
X1074Y75D01*
X1072Y75D01*
X1072Y79D01*
X1070Y79D01*
X1070Y81D01*
X1068Y81D01*
X1068Y83D01*
X1066Y83D01*
X1066Y87D01*
X1064Y87D01*
X1064Y93D01*
X1062Y93D01*
X1062Y103D01*
X1060Y103D01*
X1060Y109D01*
X1062Y109D01*
X1062Y119D01*
X1064Y119D01*
X1064Y125D01*
X1066Y125D01*
X1066Y129D01*
X1068Y129D01*
X1068Y131D01*
X1070Y131D01*
X1070Y135D01*
X1072Y135D01*
X1072Y137D01*
X1074Y137D01*
X1074Y139D01*
X1076Y139D01*
X1076Y141D01*
X1078Y141D01*
X1078Y143D01*
X1082Y143D01*
X1082Y145D01*
X1086Y145D01*
X1086Y147D01*
X1090Y147D01*
X1090Y149D01*
X1096Y149D01*
X1096Y151D01*
X52Y151D01*
G37*
D02*
G36*
X1116Y151D02*
X1116Y149D01*
X1122Y149D01*
X1122Y147D01*
X1126Y147D01*
X1126Y145D01*
X1130Y145D01*
X1130Y143D01*
X1132Y143D01*
X1132Y141D01*
X1136Y141D01*
X1136Y139D01*
X1138Y139D01*
X1138Y137D01*
X1140Y137D01*
X1140Y135D01*
X1142Y135D01*
X1142Y131D01*
X1144Y131D01*
X1144Y129D01*
X1146Y129D01*
X1146Y125D01*
X1166Y125D01*
X1166Y129D01*
X1168Y129D01*
X1168Y131D01*
X1170Y131D01*
X1170Y135D01*
X1172Y135D01*
X1172Y137D01*
X1174Y137D01*
X1174Y139D01*
X1176Y139D01*
X1176Y141D01*
X1178Y141D01*
X1178Y143D01*
X1182Y143D01*
X1182Y145D01*
X1186Y145D01*
X1186Y147D01*
X1190Y147D01*
X1190Y149D01*
X1196Y149D01*
X1196Y151D01*
X1116Y151D01*
G37*
D02*
G36*
X1216Y151D02*
X1216Y149D01*
X1222Y149D01*
X1222Y147D01*
X1226Y147D01*
X1226Y145D01*
X1230Y145D01*
X1230Y143D01*
X1232Y143D01*
X1232Y141D01*
X1236Y141D01*
X1236Y139D01*
X1238Y139D01*
X1238Y137D01*
X1240Y137D01*
X1240Y135D01*
X1242Y135D01*
X1242Y131D01*
X1244Y131D01*
X1244Y129D01*
X1246Y129D01*
X1246Y125D01*
X1266Y125D01*
X1266Y129D01*
X1268Y129D01*
X1268Y131D01*
X1270Y131D01*
X1270Y135D01*
X1272Y135D01*
X1272Y137D01*
X1274Y137D01*
X1274Y139D01*
X1276Y139D01*
X1276Y141D01*
X1278Y141D01*
X1278Y143D01*
X1282Y143D01*
X1282Y145D01*
X1286Y145D01*
X1286Y147D01*
X1290Y147D01*
X1290Y149D01*
X1296Y149D01*
X1296Y151D01*
X1216Y151D01*
G37*
D02*
G36*
X1620Y1283D02*
X1620Y1059D01*
X1686Y1059D01*
X1686Y1061D01*
X1680Y1061D01*
X1680Y1063D01*
X1674Y1063D01*
X1674Y1065D01*
X1672Y1065D01*
X1672Y1067D01*
X1668Y1067D01*
X1668Y1069D01*
X1666Y1069D01*
X1666Y1071D01*
X1664Y1071D01*
X1664Y1073D01*
X1662Y1073D01*
X1662Y1075D01*
X1660Y1075D01*
X1660Y1077D01*
X1658Y1077D01*
X1658Y1079D01*
X1656Y1079D01*
X1656Y1083D01*
X1654Y1083D01*
X1654Y1087D01*
X1652Y1087D01*
X1652Y1091D01*
X1650Y1091D01*
X1650Y1101D01*
X1648Y1101D01*
X1648Y1113D01*
X1650Y1113D01*
X1650Y1121D01*
X1652Y1121D01*
X1652Y1127D01*
X1654Y1127D01*
X1654Y1129D01*
X1656Y1129D01*
X1656Y1133D01*
X1658Y1133D01*
X1658Y1135D01*
X1660Y1135D01*
X1660Y1139D01*
X1662Y1139D01*
X1662Y1141D01*
X1666Y1141D01*
X1666Y1143D01*
X1668Y1143D01*
X1668Y1145D01*
X1670Y1145D01*
X1670Y1147D01*
X1672Y1147D01*
X1672Y1167D01*
X1668Y1167D01*
X1668Y1169D01*
X1666Y1169D01*
X1666Y1171D01*
X1664Y1171D01*
X1664Y1173D01*
X1662Y1173D01*
X1662Y1175D01*
X1660Y1175D01*
X1660Y1177D01*
X1658Y1177D01*
X1658Y1179D01*
X1656Y1179D01*
X1656Y1183D01*
X1654Y1183D01*
X1654Y1187D01*
X1652Y1187D01*
X1652Y1191D01*
X1650Y1191D01*
X1650Y1201D01*
X1648Y1201D01*
X1648Y1213D01*
X1650Y1213D01*
X1650Y1221D01*
X1652Y1221D01*
X1652Y1227D01*
X1654Y1227D01*
X1654Y1229D01*
X1656Y1229D01*
X1656Y1233D01*
X1658Y1233D01*
X1658Y1235D01*
X1660Y1235D01*
X1660Y1239D01*
X1662Y1239D01*
X1662Y1241D01*
X1666Y1241D01*
X1666Y1243D01*
X1668Y1243D01*
X1668Y1245D01*
X1670Y1245D01*
X1670Y1247D01*
X1672Y1247D01*
X1672Y1267D01*
X1668Y1267D01*
X1668Y1269D01*
X1666Y1269D01*
X1666Y1271D01*
X1664Y1271D01*
X1664Y1273D01*
X1662Y1273D01*
X1662Y1275D01*
X1660Y1275D01*
X1660Y1277D01*
X1658Y1277D01*
X1658Y1279D01*
X1656Y1279D01*
X1656Y1283D01*
X1620Y1283D01*
G37*
D02*
G36*
X1720Y1167D02*
X1720Y1147D01*
X1722Y1147D01*
X1722Y1145D01*
X1724Y1145D01*
X1724Y1143D01*
X1726Y1143D01*
X1726Y1141D01*
X1730Y1141D01*
X1730Y1137D01*
X1732Y1137D01*
X1732Y1135D01*
X1734Y1135D01*
X1734Y1133D01*
X1736Y1133D01*
X1736Y1129D01*
X1738Y1129D01*
X1738Y1125D01*
X1740Y1125D01*
X1740Y1121D01*
X1742Y1121D01*
X1742Y1111D01*
X1744Y1111D01*
X1744Y1101D01*
X1742Y1101D01*
X1742Y1093D01*
X1740Y1093D01*
X1740Y1087D01*
X1738Y1087D01*
X1738Y1083D01*
X1736Y1083D01*
X1736Y1079D01*
X1734Y1079D01*
X1734Y1077D01*
X1732Y1077D01*
X1732Y1075D01*
X1730Y1075D01*
X1730Y1073D01*
X1728Y1073D01*
X1728Y1071D01*
X1726Y1071D01*
X1726Y1069D01*
X1724Y1069D01*
X1724Y1067D01*
X1720Y1067D01*
X1720Y1065D01*
X1718Y1065D01*
X1718Y1063D01*
X1712Y1063D01*
X1712Y1061D01*
X1706Y1061D01*
X1706Y1059D01*
X2096Y1059D01*
X2096Y1061D01*
X2088Y1061D01*
X2088Y1063D01*
X2082Y1063D01*
X2082Y1065D01*
X2076Y1065D01*
X2076Y1067D01*
X2070Y1067D01*
X2070Y1069D01*
X2062Y1069D01*
X2062Y1071D01*
X2056Y1071D01*
X2056Y1073D01*
X2050Y1073D01*
X2050Y1075D01*
X2042Y1075D01*
X2042Y1077D01*
X2036Y1077D01*
X2036Y1079D01*
X2030Y1079D01*
X2030Y1081D01*
X2022Y1081D01*
X2022Y1083D01*
X2016Y1083D01*
X2016Y1085D01*
X2010Y1085D01*
X2010Y1087D01*
X2004Y1087D01*
X2004Y1089D01*
X1996Y1089D01*
X1996Y1091D01*
X1990Y1091D01*
X1990Y1093D01*
X1984Y1093D01*
X1984Y1095D01*
X1976Y1095D01*
X1976Y1097D01*
X1970Y1097D01*
X1970Y1099D01*
X1964Y1099D01*
X1964Y1101D01*
X1956Y1101D01*
X1956Y1103D01*
X1950Y1103D01*
X1950Y1105D01*
X1944Y1105D01*
X1944Y1107D01*
X1938Y1107D01*
X1938Y1109D01*
X1930Y1109D01*
X1930Y1111D01*
X1924Y1111D01*
X1924Y1113D01*
X1918Y1113D01*
X1918Y1115D01*
X1910Y1115D01*
X1910Y1117D01*
X1904Y1117D01*
X1904Y1119D01*
X1898Y1119D01*
X1898Y1121D01*
X1890Y1121D01*
X1890Y1123D01*
X1884Y1123D01*
X1884Y1125D01*
X1878Y1125D01*
X1878Y1127D01*
X1872Y1127D01*
X1872Y1129D01*
X1864Y1129D01*
X1864Y1131D01*
X1858Y1131D01*
X1858Y1133D01*
X1852Y1133D01*
X1852Y1135D01*
X1844Y1135D01*
X1844Y1137D01*
X1838Y1137D01*
X1838Y1139D01*
X1832Y1139D01*
X1832Y1141D01*
X1824Y1141D01*
X1824Y1143D01*
X1818Y1143D01*
X1818Y1145D01*
X1812Y1145D01*
X1812Y1147D01*
X1806Y1147D01*
X1806Y1149D01*
X1798Y1149D01*
X1798Y1151D01*
X1792Y1151D01*
X1792Y1153D01*
X1786Y1153D01*
X1786Y1155D01*
X1778Y1155D01*
X1778Y1157D01*
X1772Y1157D01*
X1772Y1159D01*
X1766Y1159D01*
X1766Y1161D01*
X1758Y1161D01*
X1758Y1163D01*
X1752Y1163D01*
X1752Y1165D01*
X1746Y1165D01*
X1746Y1167D01*
X1720Y1167D01*
G37*
D02*
G36*
X1620Y1059D02*
X1620Y1057D01*
X2102Y1057D01*
X2102Y1059D01*
X1620Y1059D01*
G37*
D02*
G36*
X1620Y1059D02*
X1620Y1057D01*
X2102Y1057D01*
X2102Y1059D01*
X1620Y1059D01*
G37*
D02*
G36*
X1620Y1057D02*
X1620Y981D01*
X2098Y981D01*
X2098Y979D01*
X2108Y979D01*
X2108Y977D01*
X2110Y977D01*
X2110Y975D01*
X2114Y975D01*
X2114Y973D01*
X2116Y973D01*
X2116Y971D01*
X2118Y971D01*
X2118Y967D01*
X2120Y967D01*
X2120Y961D01*
X2122Y961D01*
X2122Y283D01*
X2398Y283D01*
X2398Y281D01*
X2408Y281D01*
X2408Y279D01*
X2410Y279D01*
X2410Y277D01*
X2414Y277D01*
X2414Y275D01*
X2416Y275D01*
X2416Y271D01*
X2418Y271D01*
X2418Y269D01*
X2420Y269D01*
X2420Y263D01*
X2422Y263D01*
X2422Y231D01*
X2424Y231D01*
X2424Y195D01*
X2426Y195D01*
X2426Y159D01*
X2428Y159D01*
X2428Y145D01*
X2430Y145D01*
X2430Y143D01*
X2432Y143D01*
X2432Y141D01*
X2436Y141D01*
X2436Y139D01*
X2438Y139D01*
X2438Y137D01*
X2440Y137D01*
X2440Y135D01*
X2442Y135D01*
X2442Y131D01*
X2444Y131D01*
X2444Y129D01*
X2446Y129D01*
X2446Y125D01*
X2466Y125D01*
X2466Y129D01*
X2468Y129D01*
X2468Y131D01*
X2470Y131D01*
X2470Y135D01*
X2472Y135D01*
X2472Y137D01*
X2474Y137D01*
X2474Y139D01*
X2476Y139D01*
X2476Y141D01*
X2478Y141D01*
X2478Y143D01*
X2480Y143D01*
X2480Y179D01*
X2478Y179D01*
X2478Y229D01*
X2476Y229D01*
X2476Y279D01*
X2474Y279D01*
X2474Y329D01*
X2472Y329D01*
X2472Y333D01*
X2188Y333D01*
X2188Y335D01*
X2184Y335D01*
X2184Y337D01*
X2182Y337D01*
X2182Y339D01*
X2178Y339D01*
X2178Y343D01*
X2176Y343D01*
X2176Y345D01*
X2174Y345D01*
X2174Y351D01*
X2172Y351D01*
X2172Y1037D01*
X2168Y1037D01*
X2168Y1039D01*
X2162Y1039D01*
X2162Y1041D01*
X2154Y1041D01*
X2154Y1043D01*
X2148Y1043D01*
X2148Y1045D01*
X2142Y1045D01*
X2142Y1047D01*
X2134Y1047D01*
X2134Y1049D01*
X2128Y1049D01*
X2128Y1051D01*
X2122Y1051D01*
X2122Y1053D01*
X2116Y1053D01*
X2116Y1055D01*
X2108Y1055D01*
X2108Y1057D01*
X1620Y1057D01*
G37*
D02*
G36*
X1420Y683D02*
X1420Y617D01*
X1422Y617D01*
X1422Y587D01*
X1506Y587D01*
X1506Y585D01*
X1540Y585D01*
X1540Y587D01*
X1556Y587D01*
X1556Y589D01*
X1572Y589D01*
X1572Y591D01*
X1588Y591D01*
X1588Y593D01*
X1604Y593D01*
X1604Y595D01*
X1620Y595D01*
X1620Y597D01*
X1636Y597D01*
X1636Y599D01*
X1652Y599D01*
X1652Y601D01*
X1668Y601D01*
X1668Y603D01*
X1684Y603D01*
X1684Y605D01*
X1700Y605D01*
X1700Y607D01*
X1716Y607D01*
X1716Y609D01*
X1732Y609D01*
X1732Y611D01*
X1748Y611D01*
X1748Y613D01*
X1764Y613D01*
X1764Y615D01*
X1780Y615D01*
X1780Y617D01*
X1796Y617D01*
X1796Y619D01*
X1812Y619D01*
X1812Y621D01*
X1828Y621D01*
X1828Y623D01*
X1844Y623D01*
X1844Y625D01*
X1852Y625D01*
X1852Y627D01*
X1854Y627D01*
X1854Y629D01*
X1856Y629D01*
X1856Y633D01*
X1858Y633D01*
X1858Y635D01*
X1860Y635D01*
X1860Y637D01*
X1862Y637D01*
X1862Y641D01*
X1866Y641D01*
X1866Y643D01*
X1868Y643D01*
X1868Y645D01*
X1870Y645D01*
X1870Y647D01*
X1872Y647D01*
X1872Y667D01*
X1868Y667D01*
X1868Y669D01*
X1866Y669D01*
X1866Y671D01*
X1864Y671D01*
X1864Y673D01*
X1862Y673D01*
X1862Y675D01*
X1860Y675D01*
X1860Y677D01*
X1858Y677D01*
X1858Y679D01*
X1856Y679D01*
X1856Y683D01*
X1420Y683D01*
G37*
D02*
G36*
X1422Y587D02*
X1422Y525D01*
X1486Y525D01*
X1486Y527D01*
X1482Y527D01*
X1482Y529D01*
X1478Y529D01*
X1478Y531D01*
X1476Y531D01*
X1476Y533D01*
X1474Y533D01*
X1474Y535D01*
X1472Y535D01*
X1472Y537D01*
X1470Y537D01*
X1470Y539D01*
X1468Y539D01*
X1468Y543D01*
X1466Y543D01*
X1466Y549D01*
X1464Y549D01*
X1464Y563D01*
X1466Y563D01*
X1466Y569D01*
X1468Y569D01*
X1468Y573D01*
X1470Y573D01*
X1470Y575D01*
X1472Y575D01*
X1472Y577D01*
X1474Y577D01*
X1474Y579D01*
X1476Y579D01*
X1476Y581D01*
X1478Y581D01*
X1478Y583D01*
X1482Y583D01*
X1482Y585D01*
X1486Y585D01*
X1486Y587D01*
X1422Y587D01*
G37*
D02*
G36*
X1832Y575D02*
X1832Y573D01*
X1816Y573D01*
X1816Y571D01*
X1800Y571D01*
X1800Y569D01*
X1784Y569D01*
X1784Y567D01*
X1768Y567D01*
X1768Y565D01*
X1752Y565D01*
X1752Y563D01*
X1736Y563D01*
X1736Y561D01*
X1720Y561D01*
X1720Y559D01*
X1704Y559D01*
X1704Y557D01*
X1688Y557D01*
X1688Y555D01*
X1672Y555D01*
X1672Y553D01*
X1656Y553D01*
X1656Y551D01*
X1640Y551D01*
X1640Y549D01*
X1624Y549D01*
X1624Y547D01*
X1608Y547D01*
X1608Y545D01*
X1592Y545D01*
X1592Y543D01*
X1576Y543D01*
X1576Y541D01*
X1560Y541D01*
X1560Y539D01*
X1544Y539D01*
X1544Y537D01*
X1528Y537D01*
X1528Y535D01*
X1518Y535D01*
X1518Y533D01*
X1516Y533D01*
X1516Y531D01*
X1514Y531D01*
X1514Y529D01*
X1510Y529D01*
X1510Y527D01*
X1504Y527D01*
X1504Y525D01*
X1852Y525D01*
X1852Y527D01*
X1854Y527D01*
X1854Y529D01*
X1856Y529D01*
X1856Y533D01*
X1858Y533D01*
X1858Y535D01*
X1860Y535D01*
X1860Y537D01*
X1862Y537D01*
X1862Y541D01*
X1866Y541D01*
X1866Y543D01*
X1868Y543D01*
X1868Y545D01*
X1870Y545D01*
X1870Y547D01*
X1872Y547D01*
X1872Y567D01*
X1868Y567D01*
X1868Y569D01*
X1866Y569D01*
X1866Y571D01*
X1864Y571D01*
X1864Y573D01*
X1862Y573D01*
X1862Y575D01*
X1832Y575D01*
G37*
D02*
G36*
X1422Y525D02*
X1422Y523D01*
X1852Y523D01*
X1852Y525D01*
X1422Y525D01*
G37*
D02*
G36*
X1422Y525D02*
X1422Y523D01*
X1852Y523D01*
X1852Y525D01*
X1422Y525D01*
G37*
D02*
G36*
X1422Y523D02*
X1422Y503D01*
X1424Y503D01*
X1424Y389D01*
X1426Y389D01*
X1426Y359D01*
X1886Y359D01*
X1886Y361D01*
X1880Y361D01*
X1880Y363D01*
X1874Y363D01*
X1874Y365D01*
X1872Y365D01*
X1872Y367D01*
X1868Y367D01*
X1868Y369D01*
X1866Y369D01*
X1866Y371D01*
X1864Y371D01*
X1864Y373D01*
X1862Y373D01*
X1862Y375D01*
X1860Y375D01*
X1860Y377D01*
X1858Y377D01*
X1858Y379D01*
X1856Y379D01*
X1856Y383D01*
X1854Y383D01*
X1854Y387D01*
X1852Y387D01*
X1852Y391D01*
X1850Y391D01*
X1850Y401D01*
X1848Y401D01*
X1848Y413D01*
X1850Y413D01*
X1850Y421D01*
X1852Y421D01*
X1852Y427D01*
X1854Y427D01*
X1854Y429D01*
X1856Y429D01*
X1856Y433D01*
X1858Y433D01*
X1858Y435D01*
X1860Y435D01*
X1860Y437D01*
X1862Y437D01*
X1862Y441D01*
X1866Y441D01*
X1866Y443D01*
X1868Y443D01*
X1868Y445D01*
X1870Y445D01*
X1870Y447D01*
X1872Y447D01*
X1872Y467D01*
X1868Y467D01*
X1868Y469D01*
X1866Y469D01*
X1866Y471D01*
X1864Y471D01*
X1864Y473D01*
X1862Y473D01*
X1862Y475D01*
X1860Y475D01*
X1860Y477D01*
X1858Y477D01*
X1858Y479D01*
X1856Y479D01*
X1856Y483D01*
X1854Y483D01*
X1854Y487D01*
X1852Y487D01*
X1852Y491D01*
X1850Y491D01*
X1850Y501D01*
X1848Y501D01*
X1848Y513D01*
X1850Y513D01*
X1850Y521D01*
X1852Y521D01*
X1852Y523D01*
X1422Y523D01*
G37*
D02*
G36*
X1936Y483D02*
X1936Y479D01*
X1934Y479D01*
X1934Y477D01*
X1932Y477D01*
X1932Y475D01*
X1930Y475D01*
X1930Y473D01*
X1928Y473D01*
X1928Y471D01*
X1926Y471D01*
X1926Y469D01*
X1924Y469D01*
X1924Y467D01*
X1920Y467D01*
X1920Y447D01*
X1922Y447D01*
X1922Y445D01*
X1924Y445D01*
X1924Y443D01*
X1926Y443D01*
X1926Y441D01*
X1930Y441D01*
X1930Y437D01*
X1932Y437D01*
X1932Y435D01*
X1934Y435D01*
X1934Y433D01*
X1936Y433D01*
X1936Y429D01*
X1938Y429D01*
X1938Y425D01*
X1940Y425D01*
X1940Y421D01*
X1942Y421D01*
X1942Y411D01*
X1944Y411D01*
X1944Y401D01*
X1942Y401D01*
X1942Y393D01*
X1940Y393D01*
X1940Y387D01*
X1938Y387D01*
X1938Y383D01*
X1936Y383D01*
X1936Y379D01*
X1934Y379D01*
X1934Y377D01*
X1932Y377D01*
X1932Y375D01*
X1930Y375D01*
X1930Y373D01*
X1928Y373D01*
X1928Y371D01*
X1926Y371D01*
X1926Y369D01*
X1924Y369D01*
X1924Y367D01*
X1920Y367D01*
X1920Y365D01*
X1918Y365D01*
X1918Y363D01*
X1912Y363D01*
X1912Y361D01*
X1906Y361D01*
X1906Y359D01*
X1974Y359D01*
X1974Y431D01*
X1972Y431D01*
X1972Y483D01*
X1936Y483D01*
G37*
D02*
G36*
X1426Y359D02*
X1426Y357D01*
X1974Y357D01*
X1974Y359D01*
X1426Y359D01*
G37*
D02*
G36*
X1426Y359D02*
X1426Y357D01*
X1974Y357D01*
X1974Y359D01*
X1426Y359D01*
G37*
D02*
G36*
X1426Y357D02*
X1426Y275D01*
X1428Y275D01*
X1428Y161D01*
X1430Y161D01*
X1430Y151D01*
X1816Y151D01*
X1816Y149D01*
X1822Y149D01*
X1822Y147D01*
X1826Y147D01*
X1826Y145D01*
X1830Y145D01*
X1830Y143D01*
X1832Y143D01*
X1832Y141D01*
X1836Y141D01*
X1836Y139D01*
X1838Y139D01*
X1838Y137D01*
X1840Y137D01*
X1840Y135D01*
X1842Y135D01*
X1842Y131D01*
X1844Y131D01*
X1844Y129D01*
X1846Y129D01*
X1846Y125D01*
X1848Y125D01*
X1848Y119D01*
X1850Y119D01*
X1850Y107D01*
X1852Y107D01*
X1852Y105D01*
X1850Y105D01*
X1850Y93D01*
X1848Y93D01*
X1848Y87D01*
X1846Y87D01*
X1846Y85D01*
X1844Y85D01*
X1844Y81D01*
X1842Y81D01*
X1842Y79D01*
X1840Y79D01*
X1840Y75D01*
X1838Y75D01*
X1838Y73D01*
X1834Y73D01*
X1834Y71D01*
X1832Y71D01*
X1832Y69D01*
X1830Y69D01*
X1830Y67D01*
X1826Y67D01*
X1826Y47D01*
X1986Y47D01*
X1986Y67D01*
X1982Y67D01*
X1982Y69D01*
X1980Y69D01*
X1980Y71D01*
X1976Y71D01*
X1976Y73D01*
X1974Y73D01*
X1974Y75D01*
X1972Y75D01*
X1972Y79D01*
X1970Y79D01*
X1970Y81D01*
X1968Y81D01*
X1968Y83D01*
X1966Y83D01*
X1966Y87D01*
X1964Y87D01*
X1964Y93D01*
X1962Y93D01*
X1962Y103D01*
X1960Y103D01*
X1960Y109D01*
X1962Y109D01*
X1962Y119D01*
X1964Y119D01*
X1964Y125D01*
X1966Y125D01*
X1966Y129D01*
X1968Y129D01*
X1968Y131D01*
X1970Y131D01*
X1970Y135D01*
X1972Y135D01*
X1972Y137D01*
X1974Y137D01*
X1974Y139D01*
X1976Y139D01*
X1976Y141D01*
X1978Y141D01*
X1978Y143D01*
X1980Y143D01*
X1980Y213D01*
X1978Y213D01*
X1978Y285D01*
X1976Y285D01*
X1976Y357D01*
X1426Y357D01*
G37*
D02*
G36*
X1430Y151D02*
X1430Y143D01*
X1432Y143D01*
X1432Y141D01*
X1436Y141D01*
X1436Y139D01*
X1438Y139D01*
X1438Y137D01*
X1440Y137D01*
X1440Y135D01*
X1442Y135D01*
X1442Y131D01*
X1444Y131D01*
X1444Y129D01*
X1446Y129D01*
X1446Y125D01*
X1466Y125D01*
X1466Y129D01*
X1468Y129D01*
X1468Y131D01*
X1470Y131D01*
X1470Y135D01*
X1472Y135D01*
X1472Y137D01*
X1474Y137D01*
X1474Y139D01*
X1476Y139D01*
X1476Y141D01*
X1478Y141D01*
X1478Y143D01*
X1482Y143D01*
X1482Y145D01*
X1486Y145D01*
X1486Y147D01*
X1490Y147D01*
X1490Y149D01*
X1496Y149D01*
X1496Y151D01*
X1430Y151D01*
G37*
D02*
G36*
X1516Y151D02*
X1516Y149D01*
X1522Y149D01*
X1522Y147D01*
X1526Y147D01*
X1526Y145D01*
X1530Y145D01*
X1530Y143D01*
X1532Y143D01*
X1532Y141D01*
X1536Y141D01*
X1536Y139D01*
X1538Y139D01*
X1538Y137D01*
X1540Y137D01*
X1540Y135D01*
X1542Y135D01*
X1542Y131D01*
X1544Y131D01*
X1544Y129D01*
X1546Y129D01*
X1546Y125D01*
X1566Y125D01*
X1566Y129D01*
X1568Y129D01*
X1568Y131D01*
X1570Y131D01*
X1570Y135D01*
X1572Y135D01*
X1572Y137D01*
X1574Y137D01*
X1574Y139D01*
X1576Y139D01*
X1576Y141D01*
X1578Y141D01*
X1578Y143D01*
X1582Y143D01*
X1582Y145D01*
X1586Y145D01*
X1586Y147D01*
X1590Y147D01*
X1590Y149D01*
X1596Y149D01*
X1596Y151D01*
X1516Y151D01*
G37*
D02*
G36*
X1616Y151D02*
X1616Y149D01*
X1622Y149D01*
X1622Y147D01*
X1626Y147D01*
X1626Y145D01*
X1630Y145D01*
X1630Y143D01*
X1632Y143D01*
X1632Y141D01*
X1636Y141D01*
X1636Y139D01*
X1638Y139D01*
X1638Y137D01*
X1640Y137D01*
X1640Y135D01*
X1642Y135D01*
X1642Y131D01*
X1644Y131D01*
X1644Y129D01*
X1646Y129D01*
X1646Y125D01*
X1666Y125D01*
X1666Y129D01*
X1668Y129D01*
X1668Y131D01*
X1670Y131D01*
X1670Y135D01*
X1672Y135D01*
X1672Y137D01*
X1674Y137D01*
X1674Y139D01*
X1676Y139D01*
X1676Y141D01*
X1678Y141D01*
X1678Y143D01*
X1682Y143D01*
X1682Y145D01*
X1686Y145D01*
X1686Y147D01*
X1690Y147D01*
X1690Y149D01*
X1696Y149D01*
X1696Y151D01*
X1616Y151D01*
G37*
D02*
G36*
X1716Y151D02*
X1716Y149D01*
X1722Y149D01*
X1722Y147D01*
X1726Y147D01*
X1726Y145D01*
X1730Y145D01*
X1730Y143D01*
X1732Y143D01*
X1732Y141D01*
X1736Y141D01*
X1736Y139D01*
X1738Y139D01*
X1738Y137D01*
X1740Y137D01*
X1740Y135D01*
X1742Y135D01*
X1742Y131D01*
X1744Y131D01*
X1744Y129D01*
X1746Y129D01*
X1746Y125D01*
X1766Y125D01*
X1766Y129D01*
X1768Y129D01*
X1768Y131D01*
X1770Y131D01*
X1770Y135D01*
X1772Y135D01*
X1772Y137D01*
X1774Y137D01*
X1774Y139D01*
X1776Y139D01*
X1776Y141D01*
X1778Y141D01*
X1778Y143D01*
X1782Y143D01*
X1782Y145D01*
X1786Y145D01*
X1786Y147D01*
X1790Y147D01*
X1790Y149D01*
X1796Y149D01*
X1796Y151D01*
X1716Y151D01*
G37*
D02*
G36*
X1146Y87D02*
X1146Y85D01*
X1144Y85D01*
X1144Y81D01*
X1142Y81D01*
X1142Y79D01*
X1140Y79D01*
X1140Y75D01*
X1138Y75D01*
X1138Y73D01*
X1134Y73D01*
X1134Y71D01*
X1132Y71D01*
X1132Y69D01*
X1130Y69D01*
X1130Y67D01*
X1126Y67D01*
X1126Y47D01*
X1186Y47D01*
X1186Y67D01*
X1182Y67D01*
X1182Y69D01*
X1180Y69D01*
X1180Y71D01*
X1176Y71D01*
X1176Y73D01*
X1174Y73D01*
X1174Y75D01*
X1172Y75D01*
X1172Y79D01*
X1170Y79D01*
X1170Y81D01*
X1168Y81D01*
X1168Y83D01*
X1166Y83D01*
X1166Y87D01*
X1146Y87D01*
G37*
D02*
G36*
X1246Y87D02*
X1246Y85D01*
X1244Y85D01*
X1244Y81D01*
X1242Y81D01*
X1242Y79D01*
X1240Y79D01*
X1240Y75D01*
X1238Y75D01*
X1238Y73D01*
X1234Y73D01*
X1234Y71D01*
X1232Y71D01*
X1232Y69D01*
X1230Y69D01*
X1230Y67D01*
X1226Y67D01*
X1226Y47D01*
X1286Y47D01*
X1286Y67D01*
X1282Y67D01*
X1282Y69D01*
X1280Y69D01*
X1280Y71D01*
X1276Y71D01*
X1276Y73D01*
X1274Y73D01*
X1274Y75D01*
X1272Y75D01*
X1272Y79D01*
X1270Y79D01*
X1270Y81D01*
X1268Y81D01*
X1268Y83D01*
X1266Y83D01*
X1266Y87D01*
X1246Y87D01*
G37*
D02*
G36*
X1346Y87D02*
X1346Y85D01*
X1344Y85D01*
X1344Y81D01*
X1342Y81D01*
X1342Y79D01*
X1340Y79D01*
X1340Y75D01*
X1338Y75D01*
X1338Y73D01*
X1334Y73D01*
X1334Y71D01*
X1332Y71D01*
X1332Y69D01*
X1330Y69D01*
X1330Y67D01*
X1326Y67D01*
X1326Y47D01*
X1386Y47D01*
X1386Y67D01*
X1382Y67D01*
X1382Y69D01*
X1380Y69D01*
X1380Y71D01*
X1376Y71D01*
X1376Y73D01*
X1374Y73D01*
X1374Y75D01*
X1372Y75D01*
X1372Y79D01*
X1370Y79D01*
X1370Y81D01*
X1368Y81D01*
X1368Y83D01*
X1366Y83D01*
X1366Y87D01*
X1346Y87D01*
G37*
D02*
G36*
X1446Y87D02*
X1446Y85D01*
X1444Y85D01*
X1444Y81D01*
X1442Y81D01*
X1442Y79D01*
X1440Y79D01*
X1440Y75D01*
X1438Y75D01*
X1438Y73D01*
X1434Y73D01*
X1434Y71D01*
X1432Y71D01*
X1432Y69D01*
X1430Y69D01*
X1430Y67D01*
X1426Y67D01*
X1426Y47D01*
X1486Y47D01*
X1486Y67D01*
X1482Y67D01*
X1482Y69D01*
X1480Y69D01*
X1480Y71D01*
X1476Y71D01*
X1476Y73D01*
X1474Y73D01*
X1474Y75D01*
X1472Y75D01*
X1472Y79D01*
X1470Y79D01*
X1470Y81D01*
X1468Y81D01*
X1468Y83D01*
X1466Y83D01*
X1466Y87D01*
X1446Y87D01*
G37*
D02*
G36*
X1546Y87D02*
X1546Y85D01*
X1544Y85D01*
X1544Y81D01*
X1542Y81D01*
X1542Y79D01*
X1540Y79D01*
X1540Y75D01*
X1538Y75D01*
X1538Y73D01*
X1534Y73D01*
X1534Y71D01*
X1532Y71D01*
X1532Y69D01*
X1530Y69D01*
X1530Y67D01*
X1526Y67D01*
X1526Y47D01*
X1586Y47D01*
X1586Y67D01*
X1582Y67D01*
X1582Y69D01*
X1580Y69D01*
X1580Y71D01*
X1576Y71D01*
X1576Y73D01*
X1574Y73D01*
X1574Y75D01*
X1572Y75D01*
X1572Y79D01*
X1570Y79D01*
X1570Y81D01*
X1568Y81D01*
X1568Y83D01*
X1566Y83D01*
X1566Y87D01*
X1546Y87D01*
G37*
D02*
G36*
X1646Y87D02*
X1646Y85D01*
X1644Y85D01*
X1644Y81D01*
X1642Y81D01*
X1642Y79D01*
X1640Y79D01*
X1640Y75D01*
X1638Y75D01*
X1638Y73D01*
X1634Y73D01*
X1634Y71D01*
X1632Y71D01*
X1632Y69D01*
X1630Y69D01*
X1630Y67D01*
X1626Y67D01*
X1626Y47D01*
X1686Y47D01*
X1686Y67D01*
X1682Y67D01*
X1682Y69D01*
X1680Y69D01*
X1680Y71D01*
X1676Y71D01*
X1676Y73D01*
X1674Y73D01*
X1674Y75D01*
X1672Y75D01*
X1672Y79D01*
X1670Y79D01*
X1670Y81D01*
X1668Y81D01*
X1668Y83D01*
X1666Y83D01*
X1666Y87D01*
X1646Y87D01*
G37*
D02*
G36*
X1746Y87D02*
X1746Y85D01*
X1744Y85D01*
X1744Y81D01*
X1742Y81D01*
X1742Y79D01*
X1740Y79D01*
X1740Y75D01*
X1738Y75D01*
X1738Y73D01*
X1734Y73D01*
X1734Y71D01*
X1732Y71D01*
X1732Y69D01*
X1730Y69D01*
X1730Y67D01*
X1726Y67D01*
X1726Y47D01*
X1786Y47D01*
X1786Y67D01*
X1782Y67D01*
X1782Y69D01*
X1780Y69D01*
X1780Y71D01*
X1776Y71D01*
X1776Y73D01*
X1774Y73D01*
X1774Y75D01*
X1772Y75D01*
X1772Y79D01*
X1770Y79D01*
X1770Y81D01*
X1768Y81D01*
X1768Y83D01*
X1766Y83D01*
X1766Y87D01*
X1746Y87D01*
G37*
D02*
G36*
X2046Y87D02*
X2046Y85D01*
X2044Y85D01*
X2044Y81D01*
X2042Y81D01*
X2042Y79D01*
X2040Y79D01*
X2040Y75D01*
X2038Y75D01*
X2038Y73D01*
X2034Y73D01*
X2034Y71D01*
X2032Y71D01*
X2032Y69D01*
X2030Y69D01*
X2030Y67D01*
X2026Y67D01*
X2026Y47D01*
X2086Y47D01*
X2086Y67D01*
X2082Y67D01*
X2082Y69D01*
X2080Y69D01*
X2080Y71D01*
X2076Y71D01*
X2076Y73D01*
X2074Y73D01*
X2074Y75D01*
X2072Y75D01*
X2072Y79D01*
X2070Y79D01*
X2070Y81D01*
X2068Y81D01*
X2068Y83D01*
X2066Y83D01*
X2066Y87D01*
X2046Y87D01*
G37*
D02*
G36*
X2146Y87D02*
X2146Y85D01*
X2144Y85D01*
X2144Y81D01*
X2142Y81D01*
X2142Y79D01*
X2140Y79D01*
X2140Y75D01*
X2138Y75D01*
X2138Y73D01*
X2134Y73D01*
X2134Y71D01*
X2132Y71D01*
X2132Y69D01*
X2130Y69D01*
X2130Y67D01*
X2126Y67D01*
X2126Y47D01*
X2186Y47D01*
X2186Y67D01*
X2182Y67D01*
X2182Y69D01*
X2180Y69D01*
X2180Y71D01*
X2176Y71D01*
X2176Y73D01*
X2174Y73D01*
X2174Y75D01*
X2172Y75D01*
X2172Y79D01*
X2170Y79D01*
X2170Y81D01*
X2168Y81D01*
X2168Y83D01*
X2166Y83D01*
X2166Y87D01*
X2146Y87D01*
G37*
D02*
G36*
X2246Y87D02*
X2246Y85D01*
X2244Y85D01*
X2244Y81D01*
X2242Y81D01*
X2242Y79D01*
X2240Y79D01*
X2240Y75D01*
X2238Y75D01*
X2238Y73D01*
X2234Y73D01*
X2234Y71D01*
X2232Y71D01*
X2232Y69D01*
X2230Y69D01*
X2230Y67D01*
X2226Y67D01*
X2226Y47D01*
X2286Y47D01*
X2286Y67D01*
X2282Y67D01*
X2282Y69D01*
X2280Y69D01*
X2280Y71D01*
X2276Y71D01*
X2276Y73D01*
X2274Y73D01*
X2274Y75D01*
X2272Y75D01*
X2272Y79D01*
X2270Y79D01*
X2270Y81D01*
X2268Y81D01*
X2268Y83D01*
X2266Y83D01*
X2266Y87D01*
X2246Y87D01*
G37*
D02*
G36*
X2346Y87D02*
X2346Y85D01*
X2344Y85D01*
X2344Y81D01*
X2342Y81D01*
X2342Y79D01*
X2340Y79D01*
X2340Y75D01*
X2338Y75D01*
X2338Y73D01*
X2334Y73D01*
X2334Y71D01*
X2332Y71D01*
X2332Y69D01*
X2330Y69D01*
X2330Y67D01*
X2326Y67D01*
X2326Y47D01*
X2386Y47D01*
X2386Y67D01*
X2382Y67D01*
X2382Y69D01*
X2380Y69D01*
X2380Y71D01*
X2376Y71D01*
X2376Y73D01*
X2374Y73D01*
X2374Y75D01*
X2372Y75D01*
X2372Y79D01*
X2370Y79D01*
X2370Y81D01*
X2368Y81D01*
X2368Y83D01*
X2366Y83D01*
X2366Y87D01*
X2346Y87D01*
G37*
D02*
G36*
X2446Y87D02*
X2446Y85D01*
X2444Y85D01*
X2444Y81D01*
X2442Y81D01*
X2442Y79D01*
X2440Y79D01*
X2440Y75D01*
X2438Y75D01*
X2438Y73D01*
X2434Y73D01*
X2434Y71D01*
X2432Y71D01*
X2432Y69D01*
X2430Y69D01*
X2430Y67D01*
X2426Y67D01*
X2426Y47D01*
X2486Y47D01*
X2486Y67D01*
X2482Y67D01*
X2482Y69D01*
X2480Y69D01*
X2480Y71D01*
X2476Y71D01*
X2476Y73D01*
X2474Y73D01*
X2474Y75D01*
X2472Y75D01*
X2472Y79D01*
X2470Y79D01*
X2470Y81D01*
X2468Y81D01*
X2468Y83D01*
X2466Y83D01*
X2466Y87D01*
X2446Y87D01*
G37*
D02*
G36*
X1684Y155D02*
X1723Y155D01*
X1723Y129D01*
X1684Y129D01*
X1684Y155D01*
G37*
D02*
G36*
X1684Y91D02*
X1723Y91D01*
X1723Y61D01*
X1684Y61D01*
X1684Y91D01*
G37*
D02*
G36*
X1024Y2055D02*
X1063Y2055D01*
X1063Y2027D01*
X1024Y2027D01*
X1024Y2055D01*
G37*
D02*
G36*
X1024Y1989D02*
X1063Y1989D01*
X1063Y1961D01*
X1024Y1961D01*
X1024Y1989D01*
G37*
D02*
G36*
X1584Y155D02*
X1623Y155D01*
X1623Y129D01*
X1584Y129D01*
X1584Y155D01*
G37*
D02*
G36*
X1584Y91D02*
X1623Y91D01*
X1623Y61D01*
X1584Y61D01*
X1584Y91D01*
G37*
D02*
G36*
X1644Y1528D02*
X1674Y1528D01*
X1674Y1487D01*
X1644Y1487D01*
X1644Y1528D01*
G37*
D02*
G36*
X2523Y1507D02*
X2564Y1507D01*
X2564Y1477D01*
X2523Y1477D01*
X2523Y1507D01*
G37*
D02*
G36*
X2612Y680D02*
X2644Y680D01*
X2644Y639D01*
X2612Y639D01*
X2612Y680D01*
G37*
D02*
G04 End of Copper1*
M02*