G04 MADE WITH FRITZING*
G04 WWW.FRITZING.ORG*
G04 DOUBLE SIDED*
G04 HOLES PLATED*
G04 CONTOUR ON CENTER OF CONTOUR VECTOR*
%ASAXBY*%
%FSLAX23Y23*%
%MOIN*%
%OFA0B0*%
%SFA1.0B1.0*%
%ADD10C,0.075000*%
%ADD11C,0.066194*%
%ADD12C,0.066222*%
%ADD13C,0.070866*%
%ADD14C,0.039370*%
%ADD15C,0.024000*%
%LNCOPPER0*%
G90*
G70*
G54D10*
X132Y2011D03*
G54D11*
X2106Y107D03*
X2206Y107D03*
X2306Y107D03*
X2406Y107D03*
X2506Y107D03*
G54D12*
X1646Y2007D03*
X1546Y2007D03*
X1446Y2007D03*
X1346Y2007D03*
X1246Y2007D03*
X1146Y2007D03*
X1046Y2007D03*
X946Y2007D03*
X846Y2007D03*
X746Y2007D03*
X2506Y2007D03*
X2406Y2007D03*
X2306Y2007D03*
X2206Y2007D03*
X2106Y2007D03*
X2006Y2007D03*
X1906Y2007D03*
X1806Y2007D03*
G54D11*
X1206Y107D03*
X1106Y107D03*
X1306Y107D03*
X1406Y107D03*
X1506Y107D03*
X1606Y107D03*
X1706Y107D03*
X1806Y107D03*
X2006Y107D03*
G54D13*
X1896Y807D03*
X1896Y707D03*
X1696Y1107D03*
X2596Y457D03*
X1696Y1307D03*
X2596Y557D03*
X2546Y907D03*
X2546Y1307D03*
X2596Y657D03*
X2546Y1457D03*
X1896Y607D03*
X1896Y507D03*
X1896Y407D03*
X1696Y1407D03*
X1696Y1507D03*
X1696Y1607D03*
X1696Y1207D03*
G54D14*
X1496Y557D03*
G54D10*
X2546Y1307D03*
X2546Y907D03*
G54D15*
X1494Y1505D02*
X1665Y1506D01*
D02*
X1604Y137D02*
X1597Y259D01*
D02*
X1597Y259D02*
X1494Y357D01*
D02*
X1494Y357D02*
X1494Y1505D01*
D02*
X2295Y1706D02*
X1798Y1106D01*
D02*
X1798Y1106D02*
X1727Y1107D01*
D02*
X2305Y1976D02*
X2295Y1706D01*
D02*
X1676Y107D02*
X1636Y107D01*
D02*
X2213Y136D02*
X2295Y456D01*
D02*
X2295Y456D02*
X2565Y457D01*
D02*
X2116Y135D02*
X2346Y807D01*
D02*
X2346Y807D02*
X2535Y1278D01*
G36*
X2248Y449D02*
X2248Y443D01*
X2246Y443D01*
X2246Y437D01*
X2244Y437D01*
X2244Y431D01*
X2242Y431D01*
X2242Y425D01*
X2240Y425D01*
X2240Y421D01*
X2238Y421D01*
X2238Y415D01*
X2236Y415D01*
X2236Y409D01*
X2234Y409D01*
X2234Y403D01*
X2232Y403D01*
X2232Y397D01*
X2230Y397D01*
X2230Y391D01*
X2228Y391D01*
X2228Y385D01*
X2226Y385D01*
X2226Y379D01*
X2224Y379D01*
X2224Y373D01*
X2222Y373D01*
X2222Y367D01*
X2220Y367D01*
X2220Y361D01*
X2218Y361D01*
X2218Y357D01*
X2216Y357D01*
X2216Y351D01*
X2214Y351D01*
X2214Y345D01*
X2212Y345D01*
X2212Y339D01*
X2210Y339D01*
X2210Y333D01*
X2208Y333D01*
X2208Y327D01*
X2206Y327D01*
X2206Y321D01*
X2204Y321D01*
X2204Y315D01*
X2202Y315D01*
X2202Y309D01*
X2200Y309D01*
X2200Y303D01*
X2198Y303D01*
X2198Y297D01*
X2196Y297D01*
X2196Y291D01*
X2194Y291D01*
X2194Y287D01*
X2192Y287D01*
X2192Y281D01*
X2190Y281D01*
X2190Y275D01*
X2188Y275D01*
X2188Y269D01*
X2186Y269D01*
X2186Y263D01*
X2184Y263D01*
X2184Y257D01*
X2182Y257D01*
X2182Y251D01*
X2180Y251D01*
X2180Y245D01*
X2178Y245D01*
X2178Y239D01*
X2176Y239D01*
X2176Y233D01*
X2174Y233D01*
X2174Y227D01*
X2172Y227D01*
X2172Y221D01*
X2170Y221D01*
X2170Y217D01*
X2168Y217D01*
X2168Y211D01*
X2166Y211D01*
X2166Y205D01*
X2164Y205D01*
X2164Y199D01*
X2162Y199D01*
X2162Y193D01*
X2160Y193D01*
X2160Y187D01*
X2158Y187D01*
X2158Y181D01*
X2156Y181D01*
X2156Y175D01*
X2154Y175D01*
X2154Y169D01*
X2152Y169D01*
X2152Y163D01*
X2150Y163D01*
X2150Y157D01*
X2148Y157D01*
X2148Y151D01*
X2146Y151D01*
X2146Y125D01*
X2166Y125D01*
X2166Y129D01*
X2168Y129D01*
X2168Y131D01*
X2170Y131D01*
X2170Y135D01*
X2172Y135D01*
X2172Y137D01*
X2174Y137D01*
X2174Y139D01*
X2176Y139D01*
X2176Y141D01*
X2178Y141D01*
X2178Y143D01*
X2182Y143D01*
X2182Y145D01*
X2186Y145D01*
X2186Y147D01*
X2190Y147D01*
X2190Y149D01*
X2192Y149D01*
X2192Y153D01*
X2194Y153D01*
X2194Y161D01*
X2196Y161D01*
X2196Y169D01*
X2198Y169D01*
X2198Y177D01*
X2200Y177D01*
X2200Y185D01*
X2202Y185D01*
X2202Y193D01*
X2204Y193D01*
X2204Y199D01*
X2206Y199D01*
X2206Y207D01*
X2208Y207D01*
X2208Y215D01*
X2210Y215D01*
X2210Y223D01*
X2212Y223D01*
X2212Y231D01*
X2214Y231D01*
X2214Y239D01*
X2216Y239D01*
X2216Y247D01*
X2218Y247D01*
X2218Y255D01*
X2220Y255D01*
X2220Y263D01*
X2222Y263D01*
X2222Y271D01*
X2224Y271D01*
X2224Y279D01*
X2226Y279D01*
X2226Y287D01*
X2228Y287D01*
X2228Y295D01*
X2230Y295D01*
X2230Y303D01*
X2232Y303D01*
X2232Y311D01*
X2234Y311D01*
X2234Y317D01*
X2236Y317D01*
X2236Y325D01*
X2238Y325D01*
X2238Y333D01*
X2240Y333D01*
X2240Y341D01*
X2242Y341D01*
X2242Y349D01*
X2244Y349D01*
X2244Y357D01*
X2246Y357D01*
X2246Y365D01*
X2248Y365D01*
X2248Y373D01*
X2250Y373D01*
X2250Y381D01*
X2252Y381D01*
X2252Y389D01*
X2254Y389D01*
X2254Y397D01*
X2256Y397D01*
X2256Y405D01*
X2258Y405D01*
X2258Y413D01*
X2260Y413D01*
X2260Y421D01*
X2262Y421D01*
X2262Y427D01*
X2264Y427D01*
X2264Y435D01*
X2266Y435D01*
X2266Y443D01*
X2268Y443D01*
X2268Y449D01*
X2248Y449D01*
G37*
D02*
G36*
X76Y2059D02*
X76Y2057D01*
X70Y2057D01*
X70Y2055D01*
X68Y2055D01*
X68Y2053D01*
X64Y2053D01*
X64Y2051D01*
X62Y2051D01*
X62Y2049D01*
X60Y2049D01*
X60Y2047D01*
X58Y2047D01*
X58Y2043D01*
X56Y2043D01*
X56Y2041D01*
X54Y2041D01*
X54Y2035D01*
X52Y2035D01*
X52Y1961D01*
X738Y1961D01*
X738Y1963D01*
X730Y1963D01*
X730Y1965D01*
X726Y1965D01*
X726Y1967D01*
X722Y1967D01*
X722Y1969D01*
X720Y1969D01*
X720Y1971D01*
X716Y1971D01*
X716Y1973D01*
X714Y1973D01*
X714Y1975D01*
X712Y1975D01*
X712Y1979D01*
X710Y1979D01*
X710Y1981D01*
X708Y1981D01*
X708Y1983D01*
X706Y1983D01*
X706Y1987D01*
X704Y1987D01*
X704Y1993D01*
X702Y1993D01*
X702Y2003D01*
X700Y2003D01*
X700Y2009D01*
X702Y2009D01*
X702Y2019D01*
X704Y2019D01*
X704Y2025D01*
X706Y2025D01*
X706Y2029D01*
X708Y2029D01*
X708Y2031D01*
X710Y2031D01*
X710Y2035D01*
X712Y2035D01*
X712Y2037D01*
X714Y2037D01*
X714Y2039D01*
X716Y2039D01*
X716Y2059D01*
X76Y2059D01*
G37*
D02*
G36*
X1676Y2059D02*
X1676Y2039D01*
X1678Y2039D01*
X1678Y2037D01*
X1680Y2037D01*
X1680Y2035D01*
X1682Y2035D01*
X1682Y2031D01*
X1684Y2031D01*
X1684Y2029D01*
X1686Y2029D01*
X1686Y2025D01*
X1688Y2025D01*
X1688Y2019D01*
X1690Y2019D01*
X1690Y2007D01*
X1692Y2007D01*
X1692Y2005D01*
X1690Y2005D01*
X1690Y1993D01*
X1688Y1993D01*
X1688Y1987D01*
X1686Y1987D01*
X1686Y1985D01*
X1684Y1985D01*
X1684Y1981D01*
X1682Y1981D01*
X1682Y1979D01*
X1680Y1979D01*
X1680Y1975D01*
X1678Y1975D01*
X1678Y1973D01*
X1674Y1973D01*
X1674Y1971D01*
X1672Y1971D01*
X1672Y1969D01*
X1670Y1969D01*
X1670Y1967D01*
X1666Y1967D01*
X1666Y1965D01*
X1662Y1965D01*
X1662Y1963D01*
X1654Y1963D01*
X1654Y1961D01*
X1798Y1961D01*
X1798Y1963D01*
X1790Y1963D01*
X1790Y1965D01*
X1786Y1965D01*
X1786Y1967D01*
X1782Y1967D01*
X1782Y1969D01*
X1780Y1969D01*
X1780Y1971D01*
X1776Y1971D01*
X1776Y1973D01*
X1774Y1973D01*
X1774Y1975D01*
X1772Y1975D01*
X1772Y1979D01*
X1770Y1979D01*
X1770Y1981D01*
X1768Y1981D01*
X1768Y1983D01*
X1766Y1983D01*
X1766Y1987D01*
X1764Y1987D01*
X1764Y1993D01*
X1762Y1993D01*
X1762Y2003D01*
X1760Y2003D01*
X1760Y2009D01*
X1762Y2009D01*
X1762Y2019D01*
X1764Y2019D01*
X1764Y2025D01*
X1766Y2025D01*
X1766Y2029D01*
X1768Y2029D01*
X1768Y2031D01*
X1770Y2031D01*
X1770Y2035D01*
X1772Y2035D01*
X1772Y2037D01*
X1774Y2037D01*
X1774Y2039D01*
X1776Y2039D01*
X1776Y2059D01*
X1676Y2059D01*
G37*
D02*
G36*
X786Y1987D02*
X786Y1985D01*
X784Y1985D01*
X784Y1981D01*
X782Y1981D01*
X782Y1979D01*
X780Y1979D01*
X780Y1975D01*
X778Y1975D01*
X778Y1973D01*
X774Y1973D01*
X774Y1971D01*
X772Y1971D01*
X772Y1969D01*
X770Y1969D01*
X770Y1967D01*
X766Y1967D01*
X766Y1965D01*
X762Y1965D01*
X762Y1963D01*
X754Y1963D01*
X754Y1961D01*
X838Y1961D01*
X838Y1963D01*
X830Y1963D01*
X830Y1965D01*
X826Y1965D01*
X826Y1967D01*
X822Y1967D01*
X822Y1969D01*
X820Y1969D01*
X820Y1971D01*
X816Y1971D01*
X816Y1973D01*
X814Y1973D01*
X814Y1975D01*
X812Y1975D01*
X812Y1979D01*
X810Y1979D01*
X810Y1981D01*
X808Y1981D01*
X808Y1983D01*
X806Y1983D01*
X806Y1987D01*
X786Y1987D01*
G37*
D02*
G36*
X886Y1987D02*
X886Y1985D01*
X884Y1985D01*
X884Y1981D01*
X882Y1981D01*
X882Y1979D01*
X880Y1979D01*
X880Y1975D01*
X878Y1975D01*
X878Y1973D01*
X876Y1973D01*
X876Y1971D01*
X872Y1971D01*
X872Y1969D01*
X870Y1969D01*
X870Y1967D01*
X866Y1967D01*
X866Y1965D01*
X862Y1965D01*
X862Y1963D01*
X854Y1963D01*
X854Y1961D01*
X938Y1961D01*
X938Y1963D01*
X930Y1963D01*
X930Y1965D01*
X926Y1965D01*
X926Y1967D01*
X922Y1967D01*
X922Y1969D01*
X920Y1969D01*
X920Y1971D01*
X916Y1971D01*
X916Y1973D01*
X914Y1973D01*
X914Y1975D01*
X912Y1975D01*
X912Y1979D01*
X910Y1979D01*
X910Y1981D01*
X908Y1981D01*
X908Y1983D01*
X906Y1983D01*
X906Y1987D01*
X886Y1987D01*
G37*
D02*
G36*
X986Y1987D02*
X986Y1985D01*
X984Y1985D01*
X984Y1981D01*
X982Y1981D01*
X982Y1979D01*
X980Y1979D01*
X980Y1975D01*
X978Y1975D01*
X978Y1973D01*
X976Y1973D01*
X976Y1971D01*
X972Y1971D01*
X972Y1969D01*
X970Y1969D01*
X970Y1967D01*
X966Y1967D01*
X966Y1965D01*
X962Y1965D01*
X962Y1963D01*
X954Y1963D01*
X954Y1961D01*
X1038Y1961D01*
X1038Y1963D01*
X1030Y1963D01*
X1030Y1965D01*
X1026Y1965D01*
X1026Y1967D01*
X1022Y1967D01*
X1022Y1969D01*
X1020Y1969D01*
X1020Y1971D01*
X1016Y1971D01*
X1016Y1973D01*
X1014Y1973D01*
X1014Y1975D01*
X1012Y1975D01*
X1012Y1979D01*
X1010Y1979D01*
X1010Y1981D01*
X1008Y1981D01*
X1008Y1983D01*
X1006Y1983D01*
X1006Y1987D01*
X986Y1987D01*
G37*
D02*
G36*
X1086Y1987D02*
X1086Y1985D01*
X1084Y1985D01*
X1084Y1981D01*
X1082Y1981D01*
X1082Y1979D01*
X1080Y1979D01*
X1080Y1975D01*
X1078Y1975D01*
X1078Y1973D01*
X1076Y1973D01*
X1076Y1971D01*
X1072Y1971D01*
X1072Y1969D01*
X1070Y1969D01*
X1070Y1967D01*
X1066Y1967D01*
X1066Y1965D01*
X1062Y1965D01*
X1062Y1963D01*
X1054Y1963D01*
X1054Y1961D01*
X1138Y1961D01*
X1138Y1963D01*
X1130Y1963D01*
X1130Y1965D01*
X1126Y1965D01*
X1126Y1967D01*
X1122Y1967D01*
X1122Y1969D01*
X1120Y1969D01*
X1120Y1971D01*
X1116Y1971D01*
X1116Y1973D01*
X1114Y1973D01*
X1114Y1975D01*
X1112Y1975D01*
X1112Y1979D01*
X1110Y1979D01*
X1110Y1981D01*
X1108Y1981D01*
X1108Y1983D01*
X1106Y1983D01*
X1106Y1987D01*
X1086Y1987D01*
G37*
D02*
G36*
X1186Y1987D02*
X1186Y1985D01*
X1184Y1985D01*
X1184Y1981D01*
X1182Y1981D01*
X1182Y1979D01*
X1180Y1979D01*
X1180Y1975D01*
X1178Y1975D01*
X1178Y1973D01*
X1176Y1973D01*
X1176Y1971D01*
X1172Y1971D01*
X1172Y1969D01*
X1170Y1969D01*
X1170Y1967D01*
X1166Y1967D01*
X1166Y1965D01*
X1162Y1965D01*
X1162Y1963D01*
X1154Y1963D01*
X1154Y1961D01*
X1238Y1961D01*
X1238Y1963D01*
X1230Y1963D01*
X1230Y1965D01*
X1226Y1965D01*
X1226Y1967D01*
X1222Y1967D01*
X1222Y1969D01*
X1220Y1969D01*
X1220Y1971D01*
X1216Y1971D01*
X1216Y1973D01*
X1214Y1973D01*
X1214Y1975D01*
X1212Y1975D01*
X1212Y1979D01*
X1210Y1979D01*
X1210Y1981D01*
X1208Y1981D01*
X1208Y1983D01*
X1206Y1983D01*
X1206Y1987D01*
X1186Y1987D01*
G37*
D02*
G36*
X1286Y1987D02*
X1286Y1985D01*
X1284Y1985D01*
X1284Y1981D01*
X1282Y1981D01*
X1282Y1979D01*
X1280Y1979D01*
X1280Y1975D01*
X1278Y1975D01*
X1278Y1973D01*
X1276Y1973D01*
X1276Y1971D01*
X1272Y1971D01*
X1272Y1969D01*
X1270Y1969D01*
X1270Y1967D01*
X1266Y1967D01*
X1266Y1965D01*
X1262Y1965D01*
X1262Y1963D01*
X1254Y1963D01*
X1254Y1961D01*
X1338Y1961D01*
X1338Y1963D01*
X1330Y1963D01*
X1330Y1965D01*
X1326Y1965D01*
X1326Y1967D01*
X1322Y1967D01*
X1322Y1969D01*
X1320Y1969D01*
X1320Y1971D01*
X1316Y1971D01*
X1316Y1973D01*
X1314Y1973D01*
X1314Y1975D01*
X1312Y1975D01*
X1312Y1979D01*
X1310Y1979D01*
X1310Y1981D01*
X1308Y1981D01*
X1308Y1983D01*
X1306Y1983D01*
X1306Y1987D01*
X1286Y1987D01*
G37*
D02*
G36*
X1386Y1987D02*
X1386Y1985D01*
X1384Y1985D01*
X1384Y1981D01*
X1382Y1981D01*
X1382Y1979D01*
X1380Y1979D01*
X1380Y1975D01*
X1378Y1975D01*
X1378Y1973D01*
X1376Y1973D01*
X1376Y1971D01*
X1372Y1971D01*
X1372Y1969D01*
X1370Y1969D01*
X1370Y1967D01*
X1366Y1967D01*
X1366Y1965D01*
X1362Y1965D01*
X1362Y1963D01*
X1354Y1963D01*
X1354Y1961D01*
X1438Y1961D01*
X1438Y1963D01*
X1430Y1963D01*
X1430Y1965D01*
X1426Y1965D01*
X1426Y1967D01*
X1422Y1967D01*
X1422Y1969D01*
X1420Y1969D01*
X1420Y1971D01*
X1416Y1971D01*
X1416Y1973D01*
X1414Y1973D01*
X1414Y1975D01*
X1412Y1975D01*
X1412Y1979D01*
X1410Y1979D01*
X1410Y1981D01*
X1408Y1981D01*
X1408Y1983D01*
X1406Y1983D01*
X1406Y1987D01*
X1386Y1987D01*
G37*
D02*
G36*
X1486Y1987D02*
X1486Y1985D01*
X1484Y1985D01*
X1484Y1981D01*
X1482Y1981D01*
X1482Y1979D01*
X1480Y1979D01*
X1480Y1975D01*
X1478Y1975D01*
X1478Y1973D01*
X1476Y1973D01*
X1476Y1971D01*
X1472Y1971D01*
X1472Y1969D01*
X1470Y1969D01*
X1470Y1967D01*
X1466Y1967D01*
X1466Y1965D01*
X1462Y1965D01*
X1462Y1963D01*
X1454Y1963D01*
X1454Y1961D01*
X1538Y1961D01*
X1538Y1963D01*
X1530Y1963D01*
X1530Y1965D01*
X1526Y1965D01*
X1526Y1967D01*
X1522Y1967D01*
X1522Y1969D01*
X1520Y1969D01*
X1520Y1971D01*
X1516Y1971D01*
X1516Y1973D01*
X1514Y1973D01*
X1514Y1975D01*
X1512Y1975D01*
X1512Y1979D01*
X1510Y1979D01*
X1510Y1981D01*
X1508Y1981D01*
X1508Y1983D01*
X1506Y1983D01*
X1506Y1987D01*
X1486Y1987D01*
G37*
D02*
G36*
X1586Y1987D02*
X1586Y1985D01*
X1584Y1985D01*
X1584Y1981D01*
X1582Y1981D01*
X1582Y1979D01*
X1580Y1979D01*
X1580Y1975D01*
X1578Y1975D01*
X1578Y1973D01*
X1576Y1973D01*
X1576Y1971D01*
X1572Y1971D01*
X1572Y1969D01*
X1570Y1969D01*
X1570Y1967D01*
X1566Y1967D01*
X1566Y1965D01*
X1562Y1965D01*
X1562Y1963D01*
X1554Y1963D01*
X1554Y1961D01*
X1638Y1961D01*
X1638Y1963D01*
X1630Y1963D01*
X1630Y1965D01*
X1626Y1965D01*
X1626Y1967D01*
X1622Y1967D01*
X1622Y1969D01*
X1620Y1969D01*
X1620Y1971D01*
X1616Y1971D01*
X1616Y1973D01*
X1614Y1973D01*
X1614Y1975D01*
X1612Y1975D01*
X1612Y1979D01*
X1610Y1979D01*
X1610Y1981D01*
X1608Y1981D01*
X1608Y1983D01*
X1606Y1983D01*
X1606Y1987D01*
X1586Y1987D01*
G37*
D02*
G36*
X1846Y1987D02*
X1846Y1985D01*
X1844Y1985D01*
X1844Y1981D01*
X1842Y1981D01*
X1842Y1979D01*
X1840Y1979D01*
X1840Y1975D01*
X1838Y1975D01*
X1838Y1973D01*
X1836Y1973D01*
X1836Y1971D01*
X1832Y1971D01*
X1832Y1969D01*
X1830Y1969D01*
X1830Y1967D01*
X1826Y1967D01*
X1826Y1965D01*
X1822Y1965D01*
X1822Y1963D01*
X1814Y1963D01*
X1814Y1961D01*
X1898Y1961D01*
X1898Y1963D01*
X1890Y1963D01*
X1890Y1965D01*
X1886Y1965D01*
X1886Y1967D01*
X1882Y1967D01*
X1882Y1969D01*
X1880Y1969D01*
X1880Y1971D01*
X1876Y1971D01*
X1876Y1973D01*
X1874Y1973D01*
X1874Y1975D01*
X1872Y1975D01*
X1872Y1979D01*
X1870Y1979D01*
X1870Y1981D01*
X1868Y1981D01*
X1868Y1983D01*
X1866Y1983D01*
X1866Y1987D01*
X1846Y1987D01*
G37*
D02*
G36*
X1946Y1987D02*
X1946Y1985D01*
X1944Y1985D01*
X1944Y1981D01*
X1942Y1981D01*
X1942Y1979D01*
X1940Y1979D01*
X1940Y1975D01*
X1938Y1975D01*
X1938Y1973D01*
X1936Y1973D01*
X1936Y1971D01*
X1932Y1971D01*
X1932Y1969D01*
X1930Y1969D01*
X1930Y1967D01*
X1926Y1967D01*
X1926Y1965D01*
X1922Y1965D01*
X1922Y1963D01*
X1914Y1963D01*
X1914Y1961D01*
X1998Y1961D01*
X1998Y1963D01*
X1990Y1963D01*
X1990Y1965D01*
X1986Y1965D01*
X1986Y1967D01*
X1982Y1967D01*
X1982Y1969D01*
X1980Y1969D01*
X1980Y1971D01*
X1976Y1971D01*
X1976Y1973D01*
X1974Y1973D01*
X1974Y1975D01*
X1972Y1975D01*
X1972Y1979D01*
X1970Y1979D01*
X1970Y1981D01*
X1968Y1981D01*
X1968Y1983D01*
X1966Y1983D01*
X1966Y1987D01*
X1946Y1987D01*
G37*
D02*
G36*
X2046Y1987D02*
X2046Y1985D01*
X2044Y1985D01*
X2044Y1981D01*
X2042Y1981D01*
X2042Y1979D01*
X2040Y1979D01*
X2040Y1975D01*
X2038Y1975D01*
X2038Y1973D01*
X2036Y1973D01*
X2036Y1971D01*
X2032Y1971D01*
X2032Y1969D01*
X2030Y1969D01*
X2030Y1967D01*
X2026Y1967D01*
X2026Y1965D01*
X2022Y1965D01*
X2022Y1963D01*
X2014Y1963D01*
X2014Y1961D01*
X2098Y1961D01*
X2098Y1963D01*
X2090Y1963D01*
X2090Y1965D01*
X2086Y1965D01*
X2086Y1967D01*
X2082Y1967D01*
X2082Y1969D01*
X2080Y1969D01*
X2080Y1971D01*
X2076Y1971D01*
X2076Y1973D01*
X2074Y1973D01*
X2074Y1975D01*
X2072Y1975D01*
X2072Y1979D01*
X2070Y1979D01*
X2070Y1981D01*
X2068Y1981D01*
X2068Y1983D01*
X2066Y1983D01*
X2066Y1987D01*
X2046Y1987D01*
G37*
D02*
G36*
X2146Y1987D02*
X2146Y1985D01*
X2144Y1985D01*
X2144Y1981D01*
X2142Y1981D01*
X2142Y1979D01*
X2140Y1979D01*
X2140Y1975D01*
X2138Y1975D01*
X2138Y1973D01*
X2136Y1973D01*
X2136Y1971D01*
X2132Y1971D01*
X2132Y1969D01*
X2130Y1969D01*
X2130Y1967D01*
X2126Y1967D01*
X2126Y1965D01*
X2122Y1965D01*
X2122Y1963D01*
X2114Y1963D01*
X2114Y1961D01*
X2198Y1961D01*
X2198Y1963D01*
X2190Y1963D01*
X2190Y1965D01*
X2186Y1965D01*
X2186Y1967D01*
X2182Y1967D01*
X2182Y1969D01*
X2180Y1969D01*
X2180Y1971D01*
X2176Y1971D01*
X2176Y1973D01*
X2174Y1973D01*
X2174Y1975D01*
X2172Y1975D01*
X2172Y1979D01*
X2170Y1979D01*
X2170Y1981D01*
X2168Y1981D01*
X2168Y1983D01*
X2166Y1983D01*
X2166Y1987D01*
X2146Y1987D01*
G37*
D02*
G36*
X2246Y1987D02*
X2246Y1985D01*
X2244Y1985D01*
X2244Y1981D01*
X2242Y1981D01*
X2242Y1979D01*
X2240Y1979D01*
X2240Y1975D01*
X2238Y1975D01*
X2238Y1973D01*
X2234Y1973D01*
X2234Y1971D01*
X2232Y1971D01*
X2232Y1969D01*
X2230Y1969D01*
X2230Y1967D01*
X2226Y1967D01*
X2226Y1965D01*
X2222Y1965D01*
X2222Y1963D01*
X2214Y1963D01*
X2214Y1961D01*
X2280Y1961D01*
X2280Y1971D01*
X2276Y1971D01*
X2276Y1973D01*
X2274Y1973D01*
X2274Y1975D01*
X2272Y1975D01*
X2272Y1979D01*
X2270Y1979D01*
X2270Y1981D01*
X2268Y1981D01*
X2268Y1983D01*
X2266Y1983D01*
X2266Y1987D01*
X2246Y1987D01*
G37*
D02*
G36*
X2346Y1987D02*
X2346Y1985D01*
X2344Y1985D01*
X2344Y1981D01*
X2342Y1981D01*
X2342Y1979D01*
X2340Y1979D01*
X2340Y1975D01*
X2338Y1975D01*
X2338Y1973D01*
X2336Y1973D01*
X2336Y1971D01*
X2332Y1971D01*
X2332Y1969D01*
X2330Y1969D01*
X2330Y1967D01*
X2328Y1967D01*
X2328Y1961D01*
X2398Y1961D01*
X2398Y1963D01*
X2390Y1963D01*
X2390Y1965D01*
X2386Y1965D01*
X2386Y1967D01*
X2382Y1967D01*
X2382Y1969D01*
X2380Y1969D01*
X2380Y1971D01*
X2376Y1971D01*
X2376Y1973D01*
X2374Y1973D01*
X2374Y1975D01*
X2372Y1975D01*
X2372Y1979D01*
X2370Y1979D01*
X2370Y1981D01*
X2368Y1981D01*
X2368Y1983D01*
X2366Y1983D01*
X2366Y1987D01*
X2346Y1987D01*
G37*
D02*
G36*
X2446Y1987D02*
X2446Y1985D01*
X2444Y1985D01*
X2444Y1981D01*
X2442Y1981D01*
X2442Y1979D01*
X2440Y1979D01*
X2440Y1975D01*
X2438Y1975D01*
X2438Y1973D01*
X2436Y1973D01*
X2436Y1971D01*
X2432Y1971D01*
X2432Y1969D01*
X2430Y1969D01*
X2430Y1967D01*
X2426Y1967D01*
X2426Y1965D01*
X2422Y1965D01*
X2422Y1963D01*
X2414Y1963D01*
X2414Y1961D01*
X2498Y1961D01*
X2498Y1963D01*
X2490Y1963D01*
X2490Y1965D01*
X2486Y1965D01*
X2486Y1967D01*
X2482Y1967D01*
X2482Y1969D01*
X2480Y1969D01*
X2480Y1971D01*
X2476Y1971D01*
X2476Y1973D01*
X2474Y1973D01*
X2474Y1975D01*
X2472Y1975D01*
X2472Y1979D01*
X2470Y1979D01*
X2470Y1981D01*
X2468Y1981D01*
X2468Y1983D01*
X2466Y1983D01*
X2466Y1987D01*
X2446Y1987D01*
G37*
D02*
G36*
X2544Y1985D02*
X2544Y1981D01*
X2542Y1981D01*
X2542Y1979D01*
X2540Y1979D01*
X2540Y1975D01*
X2538Y1975D01*
X2538Y1973D01*
X2536Y1973D01*
X2536Y1971D01*
X2532Y1971D01*
X2532Y1969D01*
X2530Y1969D01*
X2530Y1967D01*
X2526Y1967D01*
X2526Y1965D01*
X2522Y1965D01*
X2522Y1963D01*
X2514Y1963D01*
X2514Y1961D01*
X2564Y1961D01*
X2564Y1985D01*
X2544Y1985D01*
G37*
D02*
G36*
X52Y1961D02*
X52Y1959D01*
X2280Y1959D01*
X2280Y1961D01*
X52Y1961D01*
G37*
D02*
G36*
X52Y1961D02*
X52Y1959D01*
X2280Y1959D01*
X2280Y1961D01*
X52Y1961D01*
G37*
D02*
G36*
X52Y1961D02*
X52Y1959D01*
X2280Y1959D01*
X2280Y1961D01*
X52Y1961D01*
G37*
D02*
G36*
X52Y1961D02*
X52Y1959D01*
X2280Y1959D01*
X2280Y1961D01*
X52Y1961D01*
G37*
D02*
G36*
X52Y1961D02*
X52Y1959D01*
X2280Y1959D01*
X2280Y1961D01*
X52Y1961D01*
G37*
D02*
G36*
X52Y1961D02*
X52Y1959D01*
X2280Y1959D01*
X2280Y1961D01*
X52Y1961D01*
G37*
D02*
G36*
X52Y1961D02*
X52Y1959D01*
X2280Y1959D01*
X2280Y1961D01*
X52Y1961D01*
G37*
D02*
G36*
X52Y1961D02*
X52Y1959D01*
X2280Y1959D01*
X2280Y1961D01*
X52Y1961D01*
G37*
D02*
G36*
X52Y1961D02*
X52Y1959D01*
X2280Y1959D01*
X2280Y1961D01*
X52Y1961D01*
G37*
D02*
G36*
X52Y1961D02*
X52Y1959D01*
X2280Y1959D01*
X2280Y1961D01*
X52Y1961D01*
G37*
D02*
G36*
X52Y1961D02*
X52Y1959D01*
X2280Y1959D01*
X2280Y1961D01*
X52Y1961D01*
G37*
D02*
G36*
X52Y1961D02*
X52Y1959D01*
X2280Y1959D01*
X2280Y1961D01*
X52Y1961D01*
G37*
D02*
G36*
X52Y1961D02*
X52Y1959D01*
X2280Y1959D01*
X2280Y1961D01*
X52Y1961D01*
G37*
D02*
G36*
X52Y1961D02*
X52Y1959D01*
X2280Y1959D01*
X2280Y1961D01*
X52Y1961D01*
G37*
D02*
G36*
X52Y1961D02*
X52Y1959D01*
X2280Y1959D01*
X2280Y1961D01*
X52Y1961D01*
G37*
D02*
G36*
X52Y1961D02*
X52Y1959D01*
X2280Y1959D01*
X2280Y1961D01*
X52Y1961D01*
G37*
D02*
G36*
X2328Y1961D02*
X2328Y1959D01*
X2564Y1959D01*
X2564Y1961D01*
X2328Y1961D01*
G37*
D02*
G36*
X2328Y1961D02*
X2328Y1959D01*
X2564Y1959D01*
X2564Y1961D01*
X2328Y1961D01*
G37*
D02*
G36*
X2328Y1961D02*
X2328Y1959D01*
X2564Y1959D01*
X2564Y1961D01*
X2328Y1961D01*
G37*
D02*
G36*
X52Y1959D02*
X52Y1653D01*
X1708Y1653D01*
X1708Y1651D01*
X1714Y1651D01*
X1714Y1649D01*
X1718Y1649D01*
X1718Y1647D01*
X1722Y1647D01*
X1722Y1645D01*
X1724Y1645D01*
X1724Y1643D01*
X1726Y1643D01*
X1726Y1641D01*
X1730Y1641D01*
X1730Y1637D01*
X1732Y1637D01*
X1732Y1635D01*
X1734Y1635D01*
X1734Y1633D01*
X1736Y1633D01*
X1736Y1629D01*
X1738Y1629D01*
X1738Y1625D01*
X1740Y1625D01*
X1740Y1621D01*
X1742Y1621D01*
X1742Y1611D01*
X1744Y1611D01*
X1744Y1601D01*
X1742Y1601D01*
X1742Y1593D01*
X1740Y1593D01*
X1740Y1587D01*
X1738Y1587D01*
X1738Y1583D01*
X1736Y1583D01*
X1736Y1579D01*
X1734Y1579D01*
X1734Y1577D01*
X1732Y1577D01*
X1732Y1575D01*
X1730Y1575D01*
X1730Y1573D01*
X1728Y1573D01*
X1728Y1571D01*
X1726Y1571D01*
X1726Y1569D01*
X1724Y1569D01*
X1724Y1567D01*
X1720Y1567D01*
X1720Y1547D01*
X1722Y1547D01*
X1722Y1545D01*
X1724Y1545D01*
X1724Y1543D01*
X1726Y1543D01*
X1726Y1541D01*
X1730Y1541D01*
X1730Y1537D01*
X1732Y1537D01*
X1732Y1535D01*
X1734Y1535D01*
X1734Y1533D01*
X1736Y1533D01*
X1736Y1529D01*
X1738Y1529D01*
X1738Y1525D01*
X1740Y1525D01*
X1740Y1521D01*
X1742Y1521D01*
X1742Y1511D01*
X1744Y1511D01*
X1744Y1501D01*
X1742Y1501D01*
X1742Y1493D01*
X1740Y1493D01*
X1740Y1487D01*
X1738Y1487D01*
X1738Y1483D01*
X1736Y1483D01*
X1736Y1479D01*
X1734Y1479D01*
X1734Y1477D01*
X1732Y1477D01*
X1732Y1475D01*
X1730Y1475D01*
X1730Y1473D01*
X1728Y1473D01*
X1728Y1471D01*
X1726Y1471D01*
X1726Y1469D01*
X1724Y1469D01*
X1724Y1467D01*
X1720Y1467D01*
X1720Y1447D01*
X1722Y1447D01*
X1722Y1445D01*
X1724Y1445D01*
X1724Y1443D01*
X1726Y1443D01*
X1726Y1441D01*
X1730Y1441D01*
X1730Y1437D01*
X1732Y1437D01*
X1732Y1435D01*
X1734Y1435D01*
X1734Y1433D01*
X1736Y1433D01*
X1736Y1429D01*
X1738Y1429D01*
X1738Y1425D01*
X1740Y1425D01*
X1740Y1421D01*
X1742Y1421D01*
X1742Y1411D01*
X1744Y1411D01*
X1744Y1401D01*
X1742Y1401D01*
X1742Y1393D01*
X1740Y1393D01*
X1740Y1387D01*
X1738Y1387D01*
X1738Y1383D01*
X1736Y1383D01*
X1736Y1379D01*
X1734Y1379D01*
X1734Y1377D01*
X1732Y1377D01*
X1732Y1375D01*
X1730Y1375D01*
X1730Y1373D01*
X1728Y1373D01*
X1728Y1371D01*
X1726Y1371D01*
X1726Y1369D01*
X1724Y1369D01*
X1724Y1367D01*
X1720Y1367D01*
X1720Y1347D01*
X1722Y1347D01*
X1722Y1345D01*
X1724Y1345D01*
X1724Y1343D01*
X1726Y1343D01*
X1726Y1341D01*
X1730Y1341D01*
X1730Y1337D01*
X1732Y1337D01*
X1732Y1335D01*
X1734Y1335D01*
X1734Y1333D01*
X1736Y1333D01*
X1736Y1329D01*
X1738Y1329D01*
X1738Y1325D01*
X1740Y1325D01*
X1740Y1321D01*
X1742Y1321D01*
X1742Y1311D01*
X1744Y1311D01*
X1744Y1301D01*
X1742Y1301D01*
X1742Y1293D01*
X1740Y1293D01*
X1740Y1287D01*
X1738Y1287D01*
X1738Y1283D01*
X1736Y1283D01*
X1736Y1279D01*
X1734Y1279D01*
X1734Y1277D01*
X1732Y1277D01*
X1732Y1275D01*
X1730Y1275D01*
X1730Y1273D01*
X1728Y1273D01*
X1728Y1271D01*
X1726Y1271D01*
X1726Y1269D01*
X1724Y1269D01*
X1724Y1267D01*
X1720Y1267D01*
X1720Y1247D01*
X1722Y1247D01*
X1722Y1245D01*
X1724Y1245D01*
X1724Y1243D01*
X1726Y1243D01*
X1726Y1241D01*
X1730Y1241D01*
X1730Y1237D01*
X1732Y1237D01*
X1732Y1235D01*
X1734Y1235D01*
X1734Y1233D01*
X1736Y1233D01*
X1736Y1229D01*
X1738Y1229D01*
X1738Y1225D01*
X1740Y1225D01*
X1740Y1221D01*
X1742Y1221D01*
X1742Y1211D01*
X1744Y1211D01*
X1744Y1201D01*
X1742Y1201D01*
X1742Y1193D01*
X1740Y1193D01*
X1740Y1187D01*
X1738Y1187D01*
X1738Y1183D01*
X1736Y1183D01*
X1736Y1179D01*
X1734Y1179D01*
X1734Y1177D01*
X1732Y1177D01*
X1732Y1175D01*
X1730Y1175D01*
X1730Y1173D01*
X1728Y1173D01*
X1728Y1171D01*
X1726Y1171D01*
X1726Y1169D01*
X1724Y1169D01*
X1724Y1167D01*
X1720Y1167D01*
X1720Y1147D01*
X1722Y1147D01*
X1722Y1145D01*
X1724Y1145D01*
X1724Y1143D01*
X1726Y1143D01*
X1726Y1141D01*
X1730Y1141D01*
X1730Y1137D01*
X1732Y1137D01*
X1732Y1135D01*
X1734Y1135D01*
X1734Y1133D01*
X1736Y1133D01*
X1736Y1131D01*
X1788Y1131D01*
X1788Y1133D01*
X1790Y1133D01*
X1790Y1135D01*
X1792Y1135D01*
X1792Y1137D01*
X1794Y1137D01*
X1794Y1139D01*
X1796Y1139D01*
X1796Y1143D01*
X1798Y1143D01*
X1798Y1145D01*
X1800Y1145D01*
X1800Y1147D01*
X1802Y1147D01*
X1802Y1149D01*
X1804Y1149D01*
X1804Y1153D01*
X1806Y1153D01*
X1806Y1155D01*
X1808Y1155D01*
X1808Y1157D01*
X1810Y1157D01*
X1810Y1159D01*
X1812Y1159D01*
X1812Y1161D01*
X1814Y1161D01*
X1814Y1165D01*
X1816Y1165D01*
X1816Y1167D01*
X1818Y1167D01*
X1818Y1169D01*
X1820Y1169D01*
X1820Y1171D01*
X1822Y1171D01*
X1822Y1173D01*
X1824Y1173D01*
X1824Y1177D01*
X1826Y1177D01*
X1826Y1179D01*
X1828Y1179D01*
X1828Y1181D01*
X1830Y1181D01*
X1830Y1183D01*
X1832Y1183D01*
X1832Y1185D01*
X1834Y1185D01*
X1834Y1189D01*
X1836Y1189D01*
X1836Y1191D01*
X1838Y1191D01*
X1838Y1193D01*
X1840Y1193D01*
X1840Y1195D01*
X1842Y1195D01*
X1842Y1197D01*
X1844Y1197D01*
X1844Y1201D01*
X1846Y1201D01*
X1846Y1203D01*
X1848Y1203D01*
X1848Y1205D01*
X1850Y1205D01*
X1850Y1207D01*
X1852Y1207D01*
X1852Y1209D01*
X1854Y1209D01*
X1854Y1213D01*
X1856Y1213D01*
X1856Y1215D01*
X1858Y1215D01*
X1858Y1217D01*
X1860Y1217D01*
X1860Y1219D01*
X1862Y1219D01*
X1862Y1223D01*
X1864Y1223D01*
X1864Y1225D01*
X1866Y1225D01*
X1866Y1227D01*
X1868Y1227D01*
X1868Y1229D01*
X1870Y1229D01*
X1870Y1231D01*
X1872Y1231D01*
X1872Y1235D01*
X1874Y1235D01*
X1874Y1237D01*
X1876Y1237D01*
X1876Y1239D01*
X1878Y1239D01*
X1878Y1241D01*
X1880Y1241D01*
X1880Y1243D01*
X1882Y1243D01*
X1882Y1247D01*
X1884Y1247D01*
X1884Y1249D01*
X1886Y1249D01*
X1886Y1251D01*
X1888Y1251D01*
X1888Y1253D01*
X1890Y1253D01*
X1890Y1255D01*
X1892Y1255D01*
X1892Y1259D01*
X1894Y1259D01*
X1894Y1261D01*
X1896Y1261D01*
X1896Y1263D01*
X1898Y1263D01*
X1898Y1265D01*
X1900Y1265D01*
X1900Y1267D01*
X1902Y1267D01*
X1902Y1271D01*
X1904Y1271D01*
X1904Y1273D01*
X1906Y1273D01*
X1906Y1275D01*
X1908Y1275D01*
X1908Y1277D01*
X1910Y1277D01*
X1910Y1279D01*
X1912Y1279D01*
X1912Y1283D01*
X1914Y1283D01*
X1914Y1285D01*
X1916Y1285D01*
X1916Y1287D01*
X1918Y1287D01*
X1918Y1289D01*
X1920Y1289D01*
X1920Y1293D01*
X1922Y1293D01*
X1922Y1295D01*
X1924Y1295D01*
X1924Y1297D01*
X1926Y1297D01*
X1926Y1299D01*
X1928Y1299D01*
X1928Y1301D01*
X1930Y1301D01*
X1930Y1305D01*
X1932Y1305D01*
X1932Y1307D01*
X1934Y1307D01*
X1934Y1309D01*
X1936Y1309D01*
X1936Y1311D01*
X1938Y1311D01*
X1938Y1313D01*
X1940Y1313D01*
X1940Y1317D01*
X1942Y1317D01*
X1942Y1319D01*
X1944Y1319D01*
X1944Y1321D01*
X1946Y1321D01*
X1946Y1323D01*
X1948Y1323D01*
X1948Y1325D01*
X1950Y1325D01*
X1950Y1329D01*
X1952Y1329D01*
X1952Y1331D01*
X1954Y1331D01*
X1954Y1333D01*
X1956Y1333D01*
X1956Y1335D01*
X1958Y1335D01*
X1958Y1337D01*
X1960Y1337D01*
X1960Y1341D01*
X1962Y1341D01*
X1962Y1343D01*
X1964Y1343D01*
X1964Y1345D01*
X1966Y1345D01*
X1966Y1347D01*
X1968Y1347D01*
X1968Y1349D01*
X1970Y1349D01*
X1970Y1353D01*
X1972Y1353D01*
X1972Y1355D01*
X1974Y1355D01*
X1974Y1357D01*
X1976Y1357D01*
X1976Y1359D01*
X1978Y1359D01*
X1978Y1363D01*
X1980Y1363D01*
X1980Y1365D01*
X1982Y1365D01*
X1982Y1367D01*
X1984Y1367D01*
X1984Y1369D01*
X1986Y1369D01*
X1986Y1371D01*
X1988Y1371D01*
X1988Y1375D01*
X1990Y1375D01*
X1990Y1377D01*
X1992Y1377D01*
X1992Y1379D01*
X1994Y1379D01*
X1994Y1381D01*
X1996Y1381D01*
X1996Y1383D01*
X1998Y1383D01*
X1998Y1387D01*
X2000Y1387D01*
X2000Y1389D01*
X2002Y1389D01*
X2002Y1391D01*
X2004Y1391D01*
X2004Y1393D01*
X2006Y1393D01*
X2006Y1395D01*
X2008Y1395D01*
X2008Y1399D01*
X2010Y1399D01*
X2010Y1401D01*
X2012Y1401D01*
X2012Y1403D01*
X2014Y1403D01*
X2014Y1405D01*
X2016Y1405D01*
X2016Y1407D01*
X2018Y1407D01*
X2018Y1411D01*
X2020Y1411D01*
X2020Y1413D01*
X2022Y1413D01*
X2022Y1415D01*
X2024Y1415D01*
X2024Y1417D01*
X2026Y1417D01*
X2026Y1419D01*
X2028Y1419D01*
X2028Y1423D01*
X2030Y1423D01*
X2030Y1425D01*
X2032Y1425D01*
X2032Y1427D01*
X2034Y1427D01*
X2034Y1429D01*
X2036Y1429D01*
X2036Y1433D01*
X2038Y1433D01*
X2038Y1435D01*
X2040Y1435D01*
X2040Y1437D01*
X2042Y1437D01*
X2042Y1439D01*
X2044Y1439D01*
X2044Y1441D01*
X2046Y1441D01*
X2046Y1445D01*
X2048Y1445D01*
X2048Y1447D01*
X2050Y1447D01*
X2050Y1449D01*
X2052Y1449D01*
X2052Y1451D01*
X2054Y1451D01*
X2054Y1453D01*
X2056Y1453D01*
X2056Y1457D01*
X2058Y1457D01*
X2058Y1459D01*
X2060Y1459D01*
X2060Y1461D01*
X2062Y1461D01*
X2062Y1463D01*
X2064Y1463D01*
X2064Y1465D01*
X2066Y1465D01*
X2066Y1469D01*
X2068Y1469D01*
X2068Y1471D01*
X2070Y1471D01*
X2070Y1473D01*
X2072Y1473D01*
X2072Y1475D01*
X2074Y1475D01*
X2074Y1477D01*
X2076Y1477D01*
X2076Y1481D01*
X2078Y1481D01*
X2078Y1483D01*
X2080Y1483D01*
X2080Y1485D01*
X2082Y1485D01*
X2082Y1487D01*
X2084Y1487D01*
X2084Y1489D01*
X2086Y1489D01*
X2086Y1493D01*
X2088Y1493D01*
X2088Y1495D01*
X2090Y1495D01*
X2090Y1497D01*
X2092Y1497D01*
X2092Y1499D01*
X2094Y1499D01*
X2094Y1503D01*
X2096Y1503D01*
X2096Y1505D01*
X2098Y1505D01*
X2098Y1507D01*
X2100Y1507D01*
X2100Y1509D01*
X2102Y1509D01*
X2102Y1511D01*
X2104Y1511D01*
X2104Y1515D01*
X2106Y1515D01*
X2106Y1517D01*
X2108Y1517D01*
X2108Y1519D01*
X2110Y1519D01*
X2110Y1521D01*
X2112Y1521D01*
X2112Y1523D01*
X2114Y1523D01*
X2114Y1527D01*
X2116Y1527D01*
X2116Y1529D01*
X2118Y1529D01*
X2118Y1531D01*
X2120Y1531D01*
X2120Y1533D01*
X2122Y1533D01*
X2122Y1535D01*
X2124Y1535D01*
X2124Y1539D01*
X2126Y1539D01*
X2126Y1541D01*
X2128Y1541D01*
X2128Y1543D01*
X2130Y1543D01*
X2130Y1545D01*
X2132Y1545D01*
X2132Y1547D01*
X2134Y1547D01*
X2134Y1551D01*
X2136Y1551D01*
X2136Y1553D01*
X2138Y1553D01*
X2138Y1555D01*
X2140Y1555D01*
X2140Y1557D01*
X2142Y1557D01*
X2142Y1559D01*
X2144Y1559D01*
X2144Y1563D01*
X2146Y1563D01*
X2146Y1565D01*
X2148Y1565D01*
X2148Y1567D01*
X2150Y1567D01*
X2150Y1569D01*
X2152Y1569D01*
X2152Y1573D01*
X2154Y1573D01*
X2154Y1575D01*
X2156Y1575D01*
X2156Y1577D01*
X2158Y1577D01*
X2158Y1579D01*
X2160Y1579D01*
X2160Y1581D01*
X2162Y1581D01*
X2162Y1585D01*
X2164Y1585D01*
X2164Y1587D01*
X2166Y1587D01*
X2166Y1589D01*
X2168Y1589D01*
X2168Y1591D01*
X2170Y1591D01*
X2170Y1593D01*
X2172Y1593D01*
X2172Y1597D01*
X2174Y1597D01*
X2174Y1599D01*
X2176Y1599D01*
X2176Y1601D01*
X2178Y1601D01*
X2178Y1603D01*
X2180Y1603D01*
X2180Y1605D01*
X2182Y1605D01*
X2182Y1609D01*
X2184Y1609D01*
X2184Y1611D01*
X2186Y1611D01*
X2186Y1613D01*
X2188Y1613D01*
X2188Y1615D01*
X2190Y1615D01*
X2190Y1617D01*
X2192Y1617D01*
X2192Y1621D01*
X2194Y1621D01*
X2194Y1623D01*
X2196Y1623D01*
X2196Y1625D01*
X2198Y1625D01*
X2198Y1627D01*
X2200Y1627D01*
X2200Y1629D01*
X2202Y1629D01*
X2202Y1633D01*
X2204Y1633D01*
X2204Y1635D01*
X2206Y1635D01*
X2206Y1637D01*
X2208Y1637D01*
X2208Y1639D01*
X2210Y1639D01*
X2210Y1643D01*
X2212Y1643D01*
X2212Y1645D01*
X2214Y1645D01*
X2214Y1647D01*
X2216Y1647D01*
X2216Y1649D01*
X2218Y1649D01*
X2218Y1651D01*
X2220Y1651D01*
X2220Y1655D01*
X2222Y1655D01*
X2222Y1657D01*
X2224Y1657D01*
X2224Y1659D01*
X2226Y1659D01*
X2226Y1661D01*
X2228Y1661D01*
X2228Y1663D01*
X2230Y1663D01*
X2230Y1667D01*
X2232Y1667D01*
X2232Y1669D01*
X2234Y1669D01*
X2234Y1671D01*
X2236Y1671D01*
X2236Y1673D01*
X2238Y1673D01*
X2238Y1675D01*
X2240Y1675D01*
X2240Y1679D01*
X2242Y1679D01*
X2242Y1681D01*
X2244Y1681D01*
X2244Y1683D01*
X2246Y1683D01*
X2246Y1685D01*
X2248Y1685D01*
X2248Y1687D01*
X2250Y1687D01*
X2250Y1691D01*
X2252Y1691D01*
X2252Y1693D01*
X2254Y1693D01*
X2254Y1695D01*
X2256Y1695D01*
X2256Y1697D01*
X2258Y1697D01*
X2258Y1699D01*
X2260Y1699D01*
X2260Y1703D01*
X2262Y1703D01*
X2262Y1705D01*
X2264Y1705D01*
X2264Y1707D01*
X2266Y1707D01*
X2266Y1709D01*
X2268Y1709D01*
X2268Y1713D01*
X2270Y1713D01*
X2270Y1715D01*
X2272Y1715D01*
X2272Y1769D01*
X2274Y1769D01*
X2274Y1821D01*
X2276Y1821D01*
X2276Y1875D01*
X2278Y1875D01*
X2278Y1927D01*
X2280Y1927D01*
X2280Y1959D01*
X52Y1959D01*
G37*
D02*
G36*
X2328Y1959D02*
X2328Y1927D01*
X2326Y1927D01*
X2326Y1873D01*
X2324Y1873D01*
X2324Y1821D01*
X2322Y1821D01*
X2322Y1767D01*
X2320Y1767D01*
X2320Y1713D01*
X2318Y1713D01*
X2318Y1697D01*
X2316Y1697D01*
X2316Y1693D01*
X2314Y1693D01*
X2314Y1689D01*
X2312Y1689D01*
X2312Y1687D01*
X2310Y1687D01*
X2310Y1685D01*
X2308Y1685D01*
X2308Y1683D01*
X2306Y1683D01*
X2306Y1681D01*
X2304Y1681D01*
X2304Y1677D01*
X2302Y1677D01*
X2302Y1675D01*
X2300Y1675D01*
X2300Y1673D01*
X2298Y1673D01*
X2298Y1671D01*
X2296Y1671D01*
X2296Y1669D01*
X2294Y1669D01*
X2294Y1665D01*
X2292Y1665D01*
X2292Y1663D01*
X2290Y1663D01*
X2290Y1661D01*
X2288Y1661D01*
X2288Y1659D01*
X2286Y1659D01*
X2286Y1657D01*
X2284Y1657D01*
X2284Y1653D01*
X2282Y1653D01*
X2282Y1651D01*
X2280Y1651D01*
X2280Y1649D01*
X2278Y1649D01*
X2278Y1647D01*
X2276Y1647D01*
X2276Y1645D01*
X2274Y1645D01*
X2274Y1641D01*
X2272Y1641D01*
X2272Y1639D01*
X2270Y1639D01*
X2270Y1637D01*
X2268Y1637D01*
X2268Y1635D01*
X2266Y1635D01*
X2266Y1633D01*
X2264Y1633D01*
X2264Y1629D01*
X2262Y1629D01*
X2262Y1627D01*
X2260Y1627D01*
X2260Y1625D01*
X2258Y1625D01*
X2258Y1623D01*
X2256Y1623D01*
X2256Y1619D01*
X2254Y1619D01*
X2254Y1617D01*
X2252Y1617D01*
X2252Y1615D01*
X2250Y1615D01*
X2250Y1613D01*
X2248Y1613D01*
X2248Y1611D01*
X2246Y1611D01*
X2246Y1607D01*
X2244Y1607D01*
X2244Y1605D01*
X2242Y1605D01*
X2242Y1603D01*
X2240Y1603D01*
X2240Y1601D01*
X2238Y1601D01*
X2238Y1599D01*
X2236Y1599D01*
X2236Y1595D01*
X2234Y1595D01*
X2234Y1593D01*
X2232Y1593D01*
X2232Y1591D01*
X2230Y1591D01*
X2230Y1589D01*
X2228Y1589D01*
X2228Y1587D01*
X2226Y1587D01*
X2226Y1583D01*
X2224Y1583D01*
X2224Y1581D01*
X2222Y1581D01*
X2222Y1579D01*
X2220Y1579D01*
X2220Y1577D01*
X2218Y1577D01*
X2218Y1575D01*
X2216Y1575D01*
X2216Y1571D01*
X2214Y1571D01*
X2214Y1569D01*
X2212Y1569D01*
X2212Y1567D01*
X2210Y1567D01*
X2210Y1565D01*
X2208Y1565D01*
X2208Y1561D01*
X2206Y1561D01*
X2206Y1559D01*
X2204Y1559D01*
X2204Y1557D01*
X2202Y1557D01*
X2202Y1555D01*
X2200Y1555D01*
X2200Y1553D01*
X2198Y1553D01*
X2198Y1549D01*
X2196Y1549D01*
X2196Y1547D01*
X2194Y1547D01*
X2194Y1545D01*
X2192Y1545D01*
X2192Y1543D01*
X2190Y1543D01*
X2190Y1541D01*
X2188Y1541D01*
X2188Y1537D01*
X2186Y1537D01*
X2186Y1535D01*
X2184Y1535D01*
X2184Y1533D01*
X2182Y1533D01*
X2182Y1531D01*
X2180Y1531D01*
X2180Y1529D01*
X2178Y1529D01*
X2178Y1525D01*
X2176Y1525D01*
X2176Y1523D01*
X2174Y1523D01*
X2174Y1521D01*
X2172Y1521D01*
X2172Y1519D01*
X2170Y1519D01*
X2170Y1517D01*
X2168Y1517D01*
X2168Y1513D01*
X2166Y1513D01*
X2166Y1511D01*
X2164Y1511D01*
X2164Y1509D01*
X2162Y1509D01*
X2162Y1507D01*
X2160Y1507D01*
X2160Y1505D01*
X2158Y1505D01*
X2158Y1503D01*
X2558Y1503D01*
X2558Y1501D01*
X2564Y1501D01*
X2564Y1499D01*
X2568Y1499D01*
X2568Y1497D01*
X2572Y1497D01*
X2572Y1495D01*
X2574Y1495D01*
X2574Y1493D01*
X2576Y1493D01*
X2576Y1491D01*
X2580Y1491D01*
X2580Y1487D01*
X2582Y1487D01*
X2582Y1485D01*
X2584Y1485D01*
X2584Y1483D01*
X2586Y1483D01*
X2586Y1479D01*
X2588Y1479D01*
X2588Y1475D01*
X2590Y1475D01*
X2590Y1471D01*
X2592Y1471D01*
X2592Y1461D01*
X2594Y1461D01*
X2594Y1451D01*
X2592Y1451D01*
X2592Y1443D01*
X2590Y1443D01*
X2590Y1437D01*
X2588Y1437D01*
X2588Y1433D01*
X2586Y1433D01*
X2586Y1429D01*
X2584Y1429D01*
X2584Y1427D01*
X2582Y1427D01*
X2582Y1425D01*
X2580Y1425D01*
X2580Y1423D01*
X2578Y1423D01*
X2578Y1421D01*
X2576Y1421D01*
X2576Y1419D01*
X2574Y1419D01*
X2574Y1417D01*
X2570Y1417D01*
X2570Y1415D01*
X2568Y1415D01*
X2568Y1413D01*
X2562Y1413D01*
X2562Y1411D01*
X2556Y1411D01*
X2556Y1409D01*
X2664Y1409D01*
X2664Y1453D01*
X2662Y1453D01*
X2662Y1455D01*
X2660Y1455D01*
X2660Y1457D01*
X2658Y1457D01*
X2658Y1459D01*
X2656Y1459D01*
X2656Y1461D01*
X2654Y1461D01*
X2654Y1463D01*
X2652Y1463D01*
X2652Y1465D01*
X2650Y1465D01*
X2650Y1467D01*
X2648Y1467D01*
X2648Y1469D01*
X2646Y1469D01*
X2646Y1471D01*
X2644Y1471D01*
X2644Y1473D01*
X2642Y1473D01*
X2642Y1475D01*
X2640Y1475D01*
X2640Y1477D01*
X2638Y1477D01*
X2638Y1479D01*
X2636Y1479D01*
X2636Y1481D01*
X2634Y1481D01*
X2634Y1483D01*
X2632Y1483D01*
X2632Y1485D01*
X2630Y1485D01*
X2630Y1487D01*
X2628Y1487D01*
X2628Y1489D01*
X2626Y1489D01*
X2626Y1491D01*
X2624Y1491D01*
X2624Y1493D01*
X2622Y1493D01*
X2622Y1495D01*
X2620Y1495D01*
X2620Y1497D01*
X2618Y1497D01*
X2618Y1499D01*
X2616Y1499D01*
X2616Y1501D01*
X2614Y1501D01*
X2614Y1503D01*
X2612Y1503D01*
X2612Y1505D01*
X2610Y1505D01*
X2610Y1507D01*
X2608Y1507D01*
X2608Y1509D01*
X2606Y1509D01*
X2606Y1511D01*
X2604Y1511D01*
X2604Y1513D01*
X2602Y1513D01*
X2602Y1515D01*
X2600Y1515D01*
X2600Y1517D01*
X2598Y1517D01*
X2598Y1519D01*
X2596Y1519D01*
X2596Y1521D01*
X2594Y1521D01*
X2594Y1523D01*
X2592Y1523D01*
X2592Y1525D01*
X2590Y1525D01*
X2590Y1527D01*
X2588Y1527D01*
X2588Y1529D01*
X2586Y1529D01*
X2586Y1531D01*
X2584Y1531D01*
X2584Y1533D01*
X2582Y1533D01*
X2582Y1535D01*
X2580Y1535D01*
X2580Y1537D01*
X2578Y1537D01*
X2578Y1539D01*
X2576Y1539D01*
X2576Y1541D01*
X2574Y1541D01*
X2574Y1543D01*
X2572Y1543D01*
X2572Y1545D01*
X2570Y1545D01*
X2570Y1547D01*
X2568Y1547D01*
X2568Y1549D01*
X2566Y1549D01*
X2566Y1551D01*
X2564Y1551D01*
X2564Y1959D01*
X2328Y1959D01*
G37*
D02*
G36*
X52Y1653D02*
X52Y1059D01*
X1686Y1059D01*
X1686Y1061D01*
X1680Y1061D01*
X1680Y1063D01*
X1674Y1063D01*
X1674Y1065D01*
X1672Y1065D01*
X1672Y1067D01*
X1668Y1067D01*
X1668Y1069D01*
X1666Y1069D01*
X1666Y1071D01*
X1664Y1071D01*
X1664Y1073D01*
X1662Y1073D01*
X1662Y1075D01*
X1660Y1075D01*
X1660Y1077D01*
X1658Y1077D01*
X1658Y1079D01*
X1656Y1079D01*
X1656Y1083D01*
X1654Y1083D01*
X1654Y1087D01*
X1652Y1087D01*
X1652Y1091D01*
X1650Y1091D01*
X1650Y1101D01*
X1648Y1101D01*
X1648Y1113D01*
X1650Y1113D01*
X1650Y1121D01*
X1652Y1121D01*
X1652Y1127D01*
X1654Y1127D01*
X1654Y1129D01*
X1656Y1129D01*
X1656Y1133D01*
X1658Y1133D01*
X1658Y1135D01*
X1660Y1135D01*
X1660Y1139D01*
X1662Y1139D01*
X1662Y1141D01*
X1666Y1141D01*
X1666Y1143D01*
X1668Y1143D01*
X1668Y1145D01*
X1670Y1145D01*
X1670Y1147D01*
X1672Y1147D01*
X1672Y1167D01*
X1668Y1167D01*
X1668Y1169D01*
X1666Y1169D01*
X1666Y1171D01*
X1664Y1171D01*
X1664Y1173D01*
X1662Y1173D01*
X1662Y1175D01*
X1660Y1175D01*
X1660Y1177D01*
X1658Y1177D01*
X1658Y1179D01*
X1656Y1179D01*
X1656Y1183D01*
X1654Y1183D01*
X1654Y1187D01*
X1652Y1187D01*
X1652Y1191D01*
X1650Y1191D01*
X1650Y1201D01*
X1648Y1201D01*
X1648Y1213D01*
X1650Y1213D01*
X1650Y1221D01*
X1652Y1221D01*
X1652Y1227D01*
X1654Y1227D01*
X1654Y1229D01*
X1656Y1229D01*
X1656Y1233D01*
X1658Y1233D01*
X1658Y1235D01*
X1660Y1235D01*
X1660Y1239D01*
X1662Y1239D01*
X1662Y1241D01*
X1666Y1241D01*
X1666Y1243D01*
X1668Y1243D01*
X1668Y1245D01*
X1670Y1245D01*
X1670Y1247D01*
X1672Y1247D01*
X1672Y1267D01*
X1668Y1267D01*
X1668Y1269D01*
X1666Y1269D01*
X1666Y1271D01*
X1664Y1271D01*
X1664Y1273D01*
X1662Y1273D01*
X1662Y1275D01*
X1660Y1275D01*
X1660Y1277D01*
X1658Y1277D01*
X1658Y1279D01*
X1656Y1279D01*
X1656Y1283D01*
X1654Y1283D01*
X1654Y1287D01*
X1652Y1287D01*
X1652Y1291D01*
X1650Y1291D01*
X1650Y1301D01*
X1648Y1301D01*
X1648Y1313D01*
X1650Y1313D01*
X1650Y1321D01*
X1652Y1321D01*
X1652Y1327D01*
X1654Y1327D01*
X1654Y1329D01*
X1656Y1329D01*
X1656Y1333D01*
X1658Y1333D01*
X1658Y1335D01*
X1660Y1335D01*
X1660Y1339D01*
X1662Y1339D01*
X1662Y1341D01*
X1666Y1341D01*
X1666Y1343D01*
X1668Y1343D01*
X1668Y1345D01*
X1670Y1345D01*
X1670Y1347D01*
X1672Y1347D01*
X1672Y1367D01*
X1668Y1367D01*
X1668Y1369D01*
X1666Y1369D01*
X1666Y1371D01*
X1664Y1371D01*
X1664Y1373D01*
X1662Y1373D01*
X1662Y1375D01*
X1660Y1375D01*
X1660Y1377D01*
X1658Y1377D01*
X1658Y1379D01*
X1656Y1379D01*
X1656Y1383D01*
X1654Y1383D01*
X1654Y1387D01*
X1652Y1387D01*
X1652Y1391D01*
X1650Y1391D01*
X1650Y1401D01*
X1648Y1401D01*
X1648Y1413D01*
X1650Y1413D01*
X1650Y1421D01*
X1652Y1421D01*
X1652Y1427D01*
X1654Y1427D01*
X1654Y1429D01*
X1656Y1429D01*
X1656Y1433D01*
X1658Y1433D01*
X1658Y1435D01*
X1660Y1435D01*
X1660Y1439D01*
X1662Y1439D01*
X1662Y1441D01*
X1666Y1441D01*
X1666Y1443D01*
X1668Y1443D01*
X1668Y1445D01*
X1670Y1445D01*
X1670Y1447D01*
X1672Y1447D01*
X1672Y1467D01*
X1668Y1467D01*
X1668Y1469D01*
X1666Y1469D01*
X1666Y1471D01*
X1664Y1471D01*
X1664Y1473D01*
X1662Y1473D01*
X1662Y1475D01*
X1660Y1475D01*
X1660Y1477D01*
X1658Y1477D01*
X1658Y1479D01*
X1656Y1479D01*
X1656Y1483D01*
X1654Y1483D01*
X1654Y1487D01*
X1652Y1487D01*
X1652Y1491D01*
X1650Y1491D01*
X1650Y1501D01*
X1648Y1501D01*
X1648Y1513D01*
X1650Y1513D01*
X1650Y1521D01*
X1652Y1521D01*
X1652Y1527D01*
X1654Y1527D01*
X1654Y1529D01*
X1656Y1529D01*
X1656Y1533D01*
X1658Y1533D01*
X1658Y1535D01*
X1660Y1535D01*
X1660Y1539D01*
X1662Y1539D01*
X1662Y1541D01*
X1666Y1541D01*
X1666Y1543D01*
X1668Y1543D01*
X1668Y1545D01*
X1670Y1545D01*
X1670Y1547D01*
X1672Y1547D01*
X1672Y1567D01*
X1668Y1567D01*
X1668Y1569D01*
X1666Y1569D01*
X1666Y1571D01*
X1664Y1571D01*
X1664Y1573D01*
X1662Y1573D01*
X1662Y1575D01*
X1660Y1575D01*
X1660Y1577D01*
X1658Y1577D01*
X1658Y1579D01*
X1656Y1579D01*
X1656Y1583D01*
X1654Y1583D01*
X1654Y1587D01*
X1652Y1587D01*
X1652Y1591D01*
X1650Y1591D01*
X1650Y1601D01*
X1648Y1601D01*
X1648Y1613D01*
X1650Y1613D01*
X1650Y1621D01*
X1652Y1621D01*
X1652Y1627D01*
X1654Y1627D01*
X1654Y1629D01*
X1656Y1629D01*
X1656Y1633D01*
X1658Y1633D01*
X1658Y1635D01*
X1660Y1635D01*
X1660Y1639D01*
X1662Y1639D01*
X1662Y1641D01*
X1666Y1641D01*
X1666Y1643D01*
X1668Y1643D01*
X1668Y1645D01*
X1670Y1645D01*
X1670Y1647D01*
X1674Y1647D01*
X1674Y1649D01*
X1678Y1649D01*
X1678Y1651D01*
X1684Y1651D01*
X1684Y1653D01*
X52Y1653D01*
G37*
D02*
G36*
X2158Y1503D02*
X2158Y1501D01*
X2156Y1501D01*
X2156Y1499D01*
X2154Y1499D01*
X2154Y1497D01*
X2152Y1497D01*
X2152Y1495D01*
X2150Y1495D01*
X2150Y1491D01*
X2148Y1491D01*
X2148Y1489D01*
X2146Y1489D01*
X2146Y1487D01*
X2144Y1487D01*
X2144Y1485D01*
X2142Y1485D01*
X2142Y1483D01*
X2140Y1483D01*
X2140Y1479D01*
X2138Y1479D01*
X2138Y1477D01*
X2136Y1477D01*
X2136Y1475D01*
X2134Y1475D01*
X2134Y1473D01*
X2132Y1473D01*
X2132Y1471D01*
X2130Y1471D01*
X2130Y1467D01*
X2128Y1467D01*
X2128Y1465D01*
X2126Y1465D01*
X2126Y1463D01*
X2124Y1463D01*
X2124Y1461D01*
X2122Y1461D01*
X2122Y1459D01*
X2120Y1459D01*
X2120Y1455D01*
X2118Y1455D01*
X2118Y1453D01*
X2116Y1453D01*
X2116Y1451D01*
X2114Y1451D01*
X2114Y1449D01*
X2112Y1449D01*
X2112Y1447D01*
X2110Y1447D01*
X2110Y1443D01*
X2108Y1443D01*
X2108Y1441D01*
X2106Y1441D01*
X2106Y1439D01*
X2104Y1439D01*
X2104Y1437D01*
X2102Y1437D01*
X2102Y1435D01*
X2100Y1435D01*
X2100Y1431D01*
X2098Y1431D01*
X2098Y1429D01*
X2096Y1429D01*
X2096Y1427D01*
X2094Y1427D01*
X2094Y1425D01*
X2092Y1425D01*
X2092Y1421D01*
X2090Y1421D01*
X2090Y1419D01*
X2088Y1419D01*
X2088Y1417D01*
X2086Y1417D01*
X2086Y1415D01*
X2084Y1415D01*
X2084Y1413D01*
X2082Y1413D01*
X2082Y1409D01*
X2536Y1409D01*
X2536Y1411D01*
X2530Y1411D01*
X2530Y1413D01*
X2524Y1413D01*
X2524Y1415D01*
X2522Y1415D01*
X2522Y1417D01*
X2518Y1417D01*
X2518Y1419D01*
X2516Y1419D01*
X2516Y1421D01*
X2514Y1421D01*
X2514Y1423D01*
X2512Y1423D01*
X2512Y1425D01*
X2510Y1425D01*
X2510Y1427D01*
X2508Y1427D01*
X2508Y1429D01*
X2506Y1429D01*
X2506Y1433D01*
X2504Y1433D01*
X2504Y1437D01*
X2502Y1437D01*
X2502Y1441D01*
X2500Y1441D01*
X2500Y1451D01*
X2498Y1451D01*
X2498Y1463D01*
X2500Y1463D01*
X2500Y1471D01*
X2502Y1471D01*
X2502Y1477D01*
X2504Y1477D01*
X2504Y1479D01*
X2506Y1479D01*
X2506Y1483D01*
X2508Y1483D01*
X2508Y1485D01*
X2510Y1485D01*
X2510Y1489D01*
X2512Y1489D01*
X2512Y1491D01*
X2516Y1491D01*
X2516Y1493D01*
X2518Y1493D01*
X2518Y1495D01*
X2520Y1495D01*
X2520Y1497D01*
X2524Y1497D01*
X2524Y1499D01*
X2528Y1499D01*
X2528Y1501D01*
X2534Y1501D01*
X2534Y1503D01*
X2158Y1503D01*
G37*
D02*
G36*
X2080Y1409D02*
X2080Y1407D01*
X2664Y1407D01*
X2664Y1409D01*
X2080Y1409D01*
G37*
D02*
G36*
X2080Y1409D02*
X2080Y1407D01*
X2664Y1407D01*
X2664Y1409D01*
X2080Y1409D01*
G37*
D02*
G36*
X2078Y1407D02*
X2078Y1405D01*
X2076Y1405D01*
X2076Y1403D01*
X2074Y1403D01*
X2074Y1401D01*
X2072Y1401D01*
X2072Y1397D01*
X2070Y1397D01*
X2070Y1395D01*
X2068Y1395D01*
X2068Y1393D01*
X2066Y1393D01*
X2066Y1391D01*
X2064Y1391D01*
X2064Y1389D01*
X2062Y1389D01*
X2062Y1385D01*
X2060Y1385D01*
X2060Y1383D01*
X2058Y1383D01*
X2058Y1381D01*
X2056Y1381D01*
X2056Y1379D01*
X2054Y1379D01*
X2054Y1377D01*
X2052Y1377D01*
X2052Y1373D01*
X2050Y1373D01*
X2050Y1371D01*
X2048Y1371D01*
X2048Y1369D01*
X2046Y1369D01*
X2046Y1367D01*
X2044Y1367D01*
X2044Y1365D01*
X2042Y1365D01*
X2042Y1361D01*
X2040Y1361D01*
X2040Y1359D01*
X2038Y1359D01*
X2038Y1357D01*
X2036Y1357D01*
X2036Y1355D01*
X2558Y1355D01*
X2558Y1353D01*
X2564Y1353D01*
X2564Y1351D01*
X2568Y1351D01*
X2568Y1349D01*
X2572Y1349D01*
X2572Y1347D01*
X2574Y1347D01*
X2574Y1345D01*
X2578Y1345D01*
X2578Y1343D01*
X2580Y1343D01*
X2580Y1341D01*
X2582Y1341D01*
X2582Y1339D01*
X2584Y1339D01*
X2584Y1337D01*
X2586Y1337D01*
X2586Y1333D01*
X2588Y1333D01*
X2588Y1331D01*
X2590Y1331D01*
X2590Y1327D01*
X2592Y1327D01*
X2592Y1321D01*
X2594Y1321D01*
X2594Y1311D01*
X2596Y1311D01*
X2596Y1301D01*
X2594Y1301D01*
X2594Y1291D01*
X2592Y1291D01*
X2592Y1285D01*
X2590Y1285D01*
X2590Y1283D01*
X2588Y1283D01*
X2588Y1279D01*
X2586Y1279D01*
X2586Y1277D01*
X2584Y1277D01*
X2584Y1273D01*
X2582Y1273D01*
X2582Y1271D01*
X2580Y1271D01*
X2580Y1269D01*
X2576Y1269D01*
X2576Y1267D01*
X2574Y1267D01*
X2574Y1265D01*
X2572Y1265D01*
X2572Y1263D01*
X2568Y1263D01*
X2568Y1261D01*
X2564Y1261D01*
X2564Y1259D01*
X2556Y1259D01*
X2556Y1257D01*
X2552Y1257D01*
X2552Y1255D01*
X2550Y1255D01*
X2550Y1249D01*
X2548Y1249D01*
X2548Y1245D01*
X2546Y1245D01*
X2546Y1239D01*
X2544Y1239D01*
X2544Y1235D01*
X2542Y1235D01*
X2542Y1229D01*
X2540Y1229D01*
X2540Y1225D01*
X2538Y1225D01*
X2538Y1219D01*
X2536Y1219D01*
X2536Y1215D01*
X2534Y1215D01*
X2534Y1209D01*
X2532Y1209D01*
X2532Y1205D01*
X2530Y1205D01*
X2530Y1199D01*
X2528Y1199D01*
X2528Y1195D01*
X2526Y1195D01*
X2526Y1189D01*
X2524Y1189D01*
X2524Y1185D01*
X2522Y1185D01*
X2522Y1179D01*
X2520Y1179D01*
X2520Y1175D01*
X2518Y1175D01*
X2518Y1169D01*
X2516Y1169D01*
X2516Y1165D01*
X2514Y1165D01*
X2514Y1159D01*
X2512Y1159D01*
X2512Y1155D01*
X2510Y1155D01*
X2510Y1149D01*
X2508Y1149D01*
X2508Y1145D01*
X2506Y1145D01*
X2506Y1139D01*
X2504Y1139D01*
X2504Y1135D01*
X2502Y1135D01*
X2502Y1129D01*
X2500Y1129D01*
X2500Y1125D01*
X2498Y1125D01*
X2498Y1119D01*
X2496Y1119D01*
X2496Y1115D01*
X2494Y1115D01*
X2494Y1109D01*
X2492Y1109D01*
X2492Y1105D01*
X2490Y1105D01*
X2490Y1099D01*
X2488Y1099D01*
X2488Y1095D01*
X2486Y1095D01*
X2486Y1089D01*
X2484Y1089D01*
X2484Y1085D01*
X2482Y1085D01*
X2482Y1079D01*
X2480Y1079D01*
X2480Y1075D01*
X2478Y1075D01*
X2478Y1069D01*
X2476Y1069D01*
X2476Y1065D01*
X2474Y1065D01*
X2474Y1059D01*
X2472Y1059D01*
X2472Y1055D01*
X2470Y1055D01*
X2470Y1049D01*
X2468Y1049D01*
X2468Y1045D01*
X2466Y1045D01*
X2466Y1039D01*
X2464Y1039D01*
X2464Y1035D01*
X2462Y1035D01*
X2462Y1029D01*
X2460Y1029D01*
X2460Y1025D01*
X2458Y1025D01*
X2458Y1019D01*
X2456Y1019D01*
X2456Y1015D01*
X2454Y1015D01*
X2454Y1009D01*
X2452Y1009D01*
X2452Y1005D01*
X2450Y1005D01*
X2450Y999D01*
X2448Y999D01*
X2448Y995D01*
X2446Y995D01*
X2446Y989D01*
X2444Y989D01*
X2444Y985D01*
X2442Y985D01*
X2442Y979D01*
X2440Y979D01*
X2440Y975D01*
X2438Y975D01*
X2438Y969D01*
X2436Y969D01*
X2436Y965D01*
X2434Y965D01*
X2434Y959D01*
X2432Y959D01*
X2432Y955D01*
X2558Y955D01*
X2558Y953D01*
X2564Y953D01*
X2564Y951D01*
X2568Y951D01*
X2568Y949D01*
X2572Y949D01*
X2572Y947D01*
X2574Y947D01*
X2574Y945D01*
X2578Y945D01*
X2578Y943D01*
X2580Y943D01*
X2580Y941D01*
X2582Y941D01*
X2582Y939D01*
X2584Y939D01*
X2584Y937D01*
X2586Y937D01*
X2586Y933D01*
X2588Y933D01*
X2588Y931D01*
X2590Y931D01*
X2590Y927D01*
X2592Y927D01*
X2592Y921D01*
X2594Y921D01*
X2594Y911D01*
X2596Y911D01*
X2596Y901D01*
X2594Y901D01*
X2594Y891D01*
X2592Y891D01*
X2592Y885D01*
X2590Y885D01*
X2590Y883D01*
X2588Y883D01*
X2588Y879D01*
X2586Y879D01*
X2586Y877D01*
X2584Y877D01*
X2584Y873D01*
X2582Y873D01*
X2582Y871D01*
X2580Y871D01*
X2580Y869D01*
X2576Y869D01*
X2576Y867D01*
X2574Y867D01*
X2574Y865D01*
X2572Y865D01*
X2572Y863D01*
X2568Y863D01*
X2568Y861D01*
X2564Y861D01*
X2564Y859D01*
X2556Y859D01*
X2556Y857D01*
X2664Y857D01*
X2664Y1407D01*
X2078Y1407D01*
G37*
D02*
G36*
X2034Y1355D02*
X2034Y1351D01*
X2032Y1351D01*
X2032Y1349D01*
X2030Y1349D01*
X2030Y1347D01*
X2028Y1347D01*
X2028Y1345D01*
X2026Y1345D01*
X2026Y1343D01*
X2024Y1343D01*
X2024Y1339D01*
X2022Y1339D01*
X2022Y1337D01*
X2020Y1337D01*
X2020Y1335D01*
X2018Y1335D01*
X2018Y1333D01*
X2016Y1333D01*
X2016Y1331D01*
X2014Y1331D01*
X2014Y1327D01*
X2012Y1327D01*
X2012Y1325D01*
X2010Y1325D01*
X2010Y1323D01*
X2008Y1323D01*
X2008Y1321D01*
X2006Y1321D01*
X2006Y1319D01*
X2004Y1319D01*
X2004Y1315D01*
X2002Y1315D01*
X2002Y1313D01*
X2000Y1313D01*
X2000Y1311D01*
X1998Y1311D01*
X1998Y1309D01*
X1996Y1309D01*
X1996Y1307D01*
X1994Y1307D01*
X1994Y1303D01*
X1992Y1303D01*
X1992Y1301D01*
X1990Y1301D01*
X1990Y1299D01*
X1988Y1299D01*
X1988Y1297D01*
X1986Y1297D01*
X1986Y1295D01*
X1984Y1295D01*
X1984Y1291D01*
X1982Y1291D01*
X1982Y1289D01*
X1980Y1289D01*
X1980Y1287D01*
X1978Y1287D01*
X1978Y1285D01*
X1976Y1285D01*
X1976Y1281D01*
X1974Y1281D01*
X1974Y1279D01*
X1972Y1279D01*
X1972Y1277D01*
X1970Y1277D01*
X1970Y1275D01*
X1968Y1275D01*
X1968Y1273D01*
X1966Y1273D01*
X1966Y1269D01*
X1964Y1269D01*
X1964Y1267D01*
X1962Y1267D01*
X1962Y1265D01*
X1960Y1265D01*
X1960Y1263D01*
X1958Y1263D01*
X1958Y1261D01*
X1956Y1261D01*
X1956Y1257D01*
X1954Y1257D01*
X1954Y1255D01*
X1952Y1255D01*
X1952Y1253D01*
X1950Y1253D01*
X1950Y1251D01*
X1948Y1251D01*
X1948Y1249D01*
X1946Y1249D01*
X1946Y1245D01*
X1944Y1245D01*
X1944Y1243D01*
X1942Y1243D01*
X1942Y1241D01*
X1940Y1241D01*
X1940Y1239D01*
X1938Y1239D01*
X1938Y1237D01*
X1936Y1237D01*
X1936Y1233D01*
X1934Y1233D01*
X1934Y1231D01*
X1932Y1231D01*
X1932Y1229D01*
X1930Y1229D01*
X1930Y1227D01*
X1928Y1227D01*
X1928Y1225D01*
X1926Y1225D01*
X1926Y1221D01*
X1924Y1221D01*
X1924Y1219D01*
X1922Y1219D01*
X1922Y1217D01*
X1920Y1217D01*
X1920Y1215D01*
X1918Y1215D01*
X1918Y1211D01*
X1916Y1211D01*
X1916Y1209D01*
X1914Y1209D01*
X1914Y1207D01*
X1912Y1207D01*
X1912Y1205D01*
X1910Y1205D01*
X1910Y1203D01*
X1908Y1203D01*
X1908Y1199D01*
X1906Y1199D01*
X1906Y1197D01*
X1904Y1197D01*
X1904Y1195D01*
X1902Y1195D01*
X1902Y1193D01*
X1900Y1193D01*
X1900Y1191D01*
X1898Y1191D01*
X1898Y1187D01*
X1896Y1187D01*
X1896Y1185D01*
X1894Y1185D01*
X1894Y1183D01*
X1892Y1183D01*
X1892Y1181D01*
X1890Y1181D01*
X1890Y1179D01*
X1888Y1179D01*
X1888Y1175D01*
X1886Y1175D01*
X1886Y1173D01*
X1884Y1173D01*
X1884Y1171D01*
X1882Y1171D01*
X1882Y1169D01*
X1880Y1169D01*
X1880Y1167D01*
X1878Y1167D01*
X1878Y1163D01*
X1876Y1163D01*
X1876Y1161D01*
X1874Y1161D01*
X1874Y1159D01*
X1872Y1159D01*
X1872Y1157D01*
X1870Y1157D01*
X1870Y1155D01*
X1868Y1155D01*
X1868Y1151D01*
X1866Y1151D01*
X1866Y1149D01*
X1864Y1149D01*
X1864Y1147D01*
X1862Y1147D01*
X1862Y1145D01*
X1860Y1145D01*
X1860Y1141D01*
X1858Y1141D01*
X1858Y1139D01*
X1856Y1139D01*
X1856Y1137D01*
X1854Y1137D01*
X1854Y1135D01*
X1852Y1135D01*
X1852Y1133D01*
X1850Y1133D01*
X1850Y1129D01*
X1848Y1129D01*
X1848Y1127D01*
X1846Y1127D01*
X1846Y1125D01*
X1844Y1125D01*
X1844Y1123D01*
X1842Y1123D01*
X1842Y1121D01*
X1840Y1121D01*
X1840Y1117D01*
X1838Y1117D01*
X1838Y1115D01*
X1836Y1115D01*
X1836Y1113D01*
X1834Y1113D01*
X1834Y1111D01*
X1832Y1111D01*
X1832Y1109D01*
X1830Y1109D01*
X1830Y1105D01*
X1828Y1105D01*
X1828Y1103D01*
X1826Y1103D01*
X1826Y1101D01*
X1824Y1101D01*
X1824Y1099D01*
X1822Y1099D01*
X1822Y1097D01*
X1820Y1097D01*
X1820Y1093D01*
X1818Y1093D01*
X1818Y1091D01*
X1816Y1091D01*
X1816Y1089D01*
X1814Y1089D01*
X1814Y1087D01*
X1812Y1087D01*
X1812Y1085D01*
X1808Y1085D01*
X1808Y1083D01*
X1798Y1083D01*
X1798Y1081D01*
X2430Y1081D01*
X2430Y1083D01*
X2432Y1083D01*
X2432Y1089D01*
X2434Y1089D01*
X2434Y1093D01*
X2436Y1093D01*
X2436Y1099D01*
X2438Y1099D01*
X2438Y1103D01*
X2440Y1103D01*
X2440Y1109D01*
X2442Y1109D01*
X2442Y1113D01*
X2444Y1113D01*
X2444Y1119D01*
X2446Y1119D01*
X2446Y1123D01*
X2448Y1123D01*
X2448Y1129D01*
X2450Y1129D01*
X2450Y1133D01*
X2452Y1133D01*
X2452Y1139D01*
X2454Y1139D01*
X2454Y1143D01*
X2456Y1143D01*
X2456Y1149D01*
X2458Y1149D01*
X2458Y1153D01*
X2460Y1153D01*
X2460Y1159D01*
X2462Y1159D01*
X2462Y1163D01*
X2464Y1163D01*
X2464Y1169D01*
X2466Y1169D01*
X2466Y1173D01*
X2468Y1173D01*
X2468Y1179D01*
X2470Y1179D01*
X2470Y1183D01*
X2472Y1183D01*
X2472Y1189D01*
X2474Y1189D01*
X2474Y1193D01*
X2476Y1193D01*
X2476Y1199D01*
X2478Y1199D01*
X2478Y1203D01*
X2480Y1203D01*
X2480Y1209D01*
X2482Y1209D01*
X2482Y1213D01*
X2484Y1213D01*
X2484Y1219D01*
X2486Y1219D01*
X2486Y1223D01*
X2488Y1223D01*
X2488Y1229D01*
X2490Y1229D01*
X2490Y1233D01*
X2492Y1233D01*
X2492Y1239D01*
X2494Y1239D01*
X2494Y1243D01*
X2496Y1243D01*
X2496Y1249D01*
X2498Y1249D01*
X2498Y1253D01*
X2500Y1253D01*
X2500Y1259D01*
X2502Y1259D01*
X2502Y1263D01*
X2504Y1263D01*
X2504Y1283D01*
X2502Y1283D01*
X2502Y1285D01*
X2500Y1285D01*
X2500Y1291D01*
X2498Y1291D01*
X2498Y1299D01*
X2496Y1299D01*
X2496Y1313D01*
X2498Y1313D01*
X2498Y1321D01*
X2500Y1321D01*
X2500Y1327D01*
X2502Y1327D01*
X2502Y1331D01*
X2504Y1331D01*
X2504Y1333D01*
X2506Y1333D01*
X2506Y1337D01*
X2508Y1337D01*
X2508Y1339D01*
X2510Y1339D01*
X2510Y1341D01*
X2512Y1341D01*
X2512Y1343D01*
X2514Y1343D01*
X2514Y1345D01*
X2516Y1345D01*
X2516Y1347D01*
X2520Y1347D01*
X2520Y1349D01*
X2524Y1349D01*
X2524Y1351D01*
X2528Y1351D01*
X2528Y1353D01*
X2534Y1353D01*
X2534Y1355D01*
X2034Y1355D01*
G37*
D02*
G36*
X1736Y1083D02*
X1736Y1081D01*
X1766Y1081D01*
X1766Y1083D01*
X1736Y1083D01*
G37*
D02*
G36*
X1736Y1081D02*
X1736Y1079D01*
X2430Y1079D01*
X2430Y1081D01*
X1736Y1081D01*
G37*
D02*
G36*
X1736Y1081D02*
X1736Y1079D01*
X2430Y1079D01*
X2430Y1081D01*
X1736Y1081D01*
G37*
D02*
G36*
X1734Y1079D02*
X1734Y1077D01*
X1732Y1077D01*
X1732Y1075D01*
X1730Y1075D01*
X1730Y1073D01*
X1728Y1073D01*
X1728Y1071D01*
X1726Y1071D01*
X1726Y1069D01*
X1724Y1069D01*
X1724Y1067D01*
X1720Y1067D01*
X1720Y1065D01*
X1718Y1065D01*
X1718Y1063D01*
X1712Y1063D01*
X1712Y1061D01*
X1706Y1061D01*
X1706Y1059D01*
X2422Y1059D01*
X2422Y1063D01*
X2424Y1063D01*
X2424Y1069D01*
X2426Y1069D01*
X2426Y1073D01*
X2428Y1073D01*
X2428Y1079D01*
X1734Y1079D01*
G37*
D02*
G36*
X52Y1059D02*
X52Y1057D01*
X2420Y1057D01*
X2420Y1059D01*
X52Y1059D01*
G37*
D02*
G36*
X52Y1059D02*
X52Y1057D01*
X2420Y1057D01*
X2420Y1059D01*
X52Y1059D01*
G37*
D02*
G36*
X52Y1057D02*
X52Y853D01*
X1908Y853D01*
X1908Y851D01*
X1914Y851D01*
X1914Y849D01*
X1918Y849D01*
X1918Y847D01*
X1922Y847D01*
X1922Y845D01*
X1924Y845D01*
X1924Y843D01*
X1926Y843D01*
X1926Y841D01*
X1930Y841D01*
X1930Y837D01*
X1932Y837D01*
X1932Y835D01*
X1934Y835D01*
X1934Y833D01*
X1936Y833D01*
X1936Y829D01*
X1938Y829D01*
X1938Y825D01*
X1940Y825D01*
X1940Y821D01*
X1942Y821D01*
X1942Y811D01*
X1944Y811D01*
X1944Y801D01*
X1942Y801D01*
X1942Y793D01*
X1940Y793D01*
X1940Y787D01*
X1938Y787D01*
X1938Y783D01*
X1936Y783D01*
X1936Y779D01*
X1934Y779D01*
X1934Y777D01*
X1932Y777D01*
X1932Y775D01*
X1930Y775D01*
X1930Y773D01*
X1928Y773D01*
X1928Y771D01*
X1926Y771D01*
X1926Y769D01*
X1924Y769D01*
X1924Y767D01*
X1920Y767D01*
X1920Y747D01*
X1922Y747D01*
X1922Y745D01*
X1924Y745D01*
X1924Y743D01*
X1926Y743D01*
X1926Y741D01*
X1930Y741D01*
X1930Y737D01*
X1932Y737D01*
X1932Y735D01*
X1934Y735D01*
X1934Y733D01*
X1936Y733D01*
X1936Y729D01*
X1938Y729D01*
X1938Y725D01*
X1940Y725D01*
X1940Y721D01*
X1942Y721D01*
X1942Y711D01*
X1944Y711D01*
X1944Y701D01*
X1942Y701D01*
X1942Y693D01*
X1940Y693D01*
X1940Y687D01*
X1938Y687D01*
X1938Y683D01*
X1936Y683D01*
X1936Y679D01*
X1934Y679D01*
X1934Y677D01*
X1932Y677D01*
X1932Y675D01*
X1930Y675D01*
X1930Y673D01*
X1928Y673D01*
X1928Y671D01*
X1926Y671D01*
X1926Y669D01*
X1924Y669D01*
X1924Y667D01*
X1920Y667D01*
X1920Y647D01*
X1922Y647D01*
X1922Y645D01*
X1924Y645D01*
X1924Y643D01*
X1926Y643D01*
X1926Y641D01*
X1930Y641D01*
X1930Y637D01*
X1932Y637D01*
X1932Y635D01*
X1934Y635D01*
X1934Y633D01*
X1936Y633D01*
X1936Y629D01*
X1938Y629D01*
X1938Y625D01*
X1940Y625D01*
X1940Y621D01*
X1942Y621D01*
X1942Y611D01*
X1944Y611D01*
X1944Y601D01*
X1942Y601D01*
X1942Y593D01*
X1940Y593D01*
X1940Y587D01*
X1938Y587D01*
X1938Y583D01*
X1936Y583D01*
X1936Y579D01*
X1934Y579D01*
X1934Y577D01*
X1932Y577D01*
X1932Y575D01*
X1930Y575D01*
X1930Y573D01*
X1928Y573D01*
X1928Y571D01*
X1926Y571D01*
X1926Y569D01*
X1924Y569D01*
X1924Y567D01*
X1920Y567D01*
X1920Y547D01*
X1922Y547D01*
X1922Y545D01*
X1924Y545D01*
X1924Y543D01*
X1926Y543D01*
X1926Y541D01*
X1930Y541D01*
X1930Y537D01*
X1932Y537D01*
X1932Y535D01*
X1934Y535D01*
X1934Y533D01*
X1936Y533D01*
X1936Y529D01*
X1938Y529D01*
X1938Y525D01*
X1940Y525D01*
X1940Y521D01*
X1942Y521D01*
X1942Y511D01*
X1944Y511D01*
X1944Y501D01*
X1942Y501D01*
X1942Y493D01*
X1940Y493D01*
X1940Y487D01*
X1938Y487D01*
X1938Y483D01*
X1936Y483D01*
X1936Y479D01*
X1934Y479D01*
X1934Y477D01*
X1932Y477D01*
X1932Y475D01*
X1930Y475D01*
X1930Y473D01*
X1928Y473D01*
X1928Y471D01*
X1926Y471D01*
X1926Y469D01*
X1924Y469D01*
X1924Y467D01*
X1920Y467D01*
X1920Y447D01*
X1922Y447D01*
X1922Y445D01*
X1924Y445D01*
X1924Y443D01*
X1926Y443D01*
X1926Y441D01*
X1930Y441D01*
X1930Y437D01*
X1932Y437D01*
X1932Y435D01*
X1934Y435D01*
X1934Y433D01*
X1936Y433D01*
X1936Y429D01*
X1938Y429D01*
X1938Y425D01*
X1940Y425D01*
X1940Y421D01*
X1942Y421D01*
X1942Y411D01*
X1944Y411D01*
X1944Y401D01*
X1942Y401D01*
X1942Y393D01*
X1940Y393D01*
X1940Y387D01*
X1938Y387D01*
X1938Y383D01*
X1936Y383D01*
X1936Y379D01*
X1934Y379D01*
X1934Y377D01*
X1932Y377D01*
X1932Y375D01*
X1930Y375D01*
X1930Y373D01*
X1928Y373D01*
X1928Y371D01*
X1926Y371D01*
X1926Y369D01*
X1924Y369D01*
X1924Y367D01*
X1920Y367D01*
X1920Y365D01*
X1918Y365D01*
X1918Y363D01*
X1912Y363D01*
X1912Y361D01*
X1906Y361D01*
X1906Y359D01*
X2168Y359D01*
X2168Y365D01*
X2170Y365D01*
X2170Y369D01*
X2172Y369D01*
X2172Y375D01*
X2174Y375D01*
X2174Y381D01*
X2176Y381D01*
X2176Y387D01*
X2178Y387D01*
X2178Y393D01*
X2180Y393D01*
X2180Y399D01*
X2182Y399D01*
X2182Y405D01*
X2184Y405D01*
X2184Y411D01*
X2186Y411D01*
X2186Y417D01*
X2188Y417D01*
X2188Y423D01*
X2190Y423D01*
X2190Y429D01*
X2192Y429D01*
X2192Y435D01*
X2194Y435D01*
X2194Y439D01*
X2196Y439D01*
X2196Y445D01*
X2198Y445D01*
X2198Y451D01*
X2200Y451D01*
X2200Y457D01*
X2202Y457D01*
X2202Y463D01*
X2204Y463D01*
X2204Y469D01*
X2206Y469D01*
X2206Y475D01*
X2208Y475D01*
X2208Y481D01*
X2210Y481D01*
X2210Y487D01*
X2212Y487D01*
X2212Y493D01*
X2214Y493D01*
X2214Y499D01*
X2216Y499D01*
X2216Y503D01*
X2218Y503D01*
X2218Y509D01*
X2220Y509D01*
X2220Y515D01*
X2222Y515D01*
X2222Y521D01*
X2224Y521D01*
X2224Y527D01*
X2226Y527D01*
X2226Y533D01*
X2228Y533D01*
X2228Y539D01*
X2230Y539D01*
X2230Y545D01*
X2232Y545D01*
X2232Y551D01*
X2234Y551D01*
X2234Y557D01*
X2236Y557D01*
X2236Y563D01*
X2238Y563D01*
X2238Y569D01*
X2240Y569D01*
X2240Y573D01*
X2242Y573D01*
X2242Y579D01*
X2244Y579D01*
X2244Y585D01*
X2246Y585D01*
X2246Y591D01*
X2248Y591D01*
X2248Y597D01*
X2250Y597D01*
X2250Y603D01*
X2252Y603D01*
X2252Y609D01*
X2254Y609D01*
X2254Y615D01*
X2256Y615D01*
X2256Y621D01*
X2258Y621D01*
X2258Y627D01*
X2260Y627D01*
X2260Y633D01*
X2262Y633D01*
X2262Y639D01*
X2264Y639D01*
X2264Y643D01*
X2266Y643D01*
X2266Y649D01*
X2268Y649D01*
X2268Y655D01*
X2270Y655D01*
X2270Y661D01*
X2272Y661D01*
X2272Y667D01*
X2274Y667D01*
X2274Y673D01*
X2276Y673D01*
X2276Y679D01*
X2278Y679D01*
X2278Y685D01*
X2280Y685D01*
X2280Y691D01*
X2282Y691D01*
X2282Y697D01*
X2284Y697D01*
X2284Y703D01*
X2286Y703D01*
X2286Y709D01*
X2288Y709D01*
X2288Y713D01*
X2290Y713D01*
X2290Y719D01*
X2292Y719D01*
X2292Y725D01*
X2294Y725D01*
X2294Y731D01*
X2296Y731D01*
X2296Y737D01*
X2298Y737D01*
X2298Y743D01*
X2300Y743D01*
X2300Y749D01*
X2302Y749D01*
X2302Y755D01*
X2304Y755D01*
X2304Y761D01*
X2306Y761D01*
X2306Y767D01*
X2308Y767D01*
X2308Y773D01*
X2310Y773D01*
X2310Y779D01*
X2312Y779D01*
X2312Y783D01*
X2314Y783D01*
X2314Y789D01*
X2316Y789D01*
X2316Y795D01*
X2318Y795D01*
X2318Y801D01*
X2320Y801D01*
X2320Y807D01*
X2322Y807D01*
X2322Y813D01*
X2324Y813D01*
X2324Y819D01*
X2326Y819D01*
X2326Y823D01*
X2328Y823D01*
X2328Y829D01*
X2330Y829D01*
X2330Y833D01*
X2332Y833D01*
X2332Y839D01*
X2334Y839D01*
X2334Y843D01*
X2336Y843D01*
X2336Y849D01*
X2338Y849D01*
X2338Y853D01*
X2340Y853D01*
X2340Y859D01*
X2342Y859D01*
X2342Y863D01*
X2344Y863D01*
X2344Y869D01*
X2346Y869D01*
X2346Y873D01*
X2348Y873D01*
X2348Y879D01*
X2350Y879D01*
X2350Y883D01*
X2352Y883D01*
X2352Y889D01*
X2354Y889D01*
X2354Y893D01*
X2356Y893D01*
X2356Y899D01*
X2358Y899D01*
X2358Y903D01*
X2360Y903D01*
X2360Y909D01*
X2362Y909D01*
X2362Y913D01*
X2364Y913D01*
X2364Y919D01*
X2366Y919D01*
X2366Y923D01*
X2368Y923D01*
X2368Y929D01*
X2370Y929D01*
X2370Y933D01*
X2372Y933D01*
X2372Y939D01*
X2374Y939D01*
X2374Y943D01*
X2376Y943D01*
X2376Y949D01*
X2378Y949D01*
X2378Y953D01*
X2380Y953D01*
X2380Y959D01*
X2382Y959D01*
X2382Y963D01*
X2384Y963D01*
X2384Y969D01*
X2386Y969D01*
X2386Y973D01*
X2388Y973D01*
X2388Y979D01*
X2390Y979D01*
X2390Y983D01*
X2392Y983D01*
X2392Y989D01*
X2394Y989D01*
X2394Y993D01*
X2396Y993D01*
X2396Y999D01*
X2398Y999D01*
X2398Y1003D01*
X2400Y1003D01*
X2400Y1009D01*
X2402Y1009D01*
X2402Y1013D01*
X2404Y1013D01*
X2404Y1019D01*
X2406Y1019D01*
X2406Y1023D01*
X2408Y1023D01*
X2408Y1029D01*
X2410Y1029D01*
X2410Y1033D01*
X2412Y1033D01*
X2412Y1039D01*
X2414Y1039D01*
X2414Y1043D01*
X2416Y1043D01*
X2416Y1049D01*
X2418Y1049D01*
X2418Y1053D01*
X2420Y1053D01*
X2420Y1057D01*
X52Y1057D01*
G37*
D02*
G36*
X2430Y955D02*
X2430Y949D01*
X2428Y949D01*
X2428Y943D01*
X2426Y943D01*
X2426Y939D01*
X2424Y939D01*
X2424Y933D01*
X2422Y933D01*
X2422Y929D01*
X2420Y929D01*
X2420Y923D01*
X2418Y923D01*
X2418Y919D01*
X2416Y919D01*
X2416Y913D01*
X2414Y913D01*
X2414Y909D01*
X2412Y909D01*
X2412Y903D01*
X2410Y903D01*
X2410Y899D01*
X2408Y899D01*
X2408Y893D01*
X2406Y893D01*
X2406Y889D01*
X2404Y889D01*
X2404Y883D01*
X2402Y883D01*
X2402Y879D01*
X2400Y879D01*
X2400Y873D01*
X2398Y873D01*
X2398Y869D01*
X2396Y869D01*
X2396Y863D01*
X2394Y863D01*
X2394Y859D01*
X2392Y859D01*
X2392Y857D01*
X2536Y857D01*
X2536Y859D01*
X2528Y859D01*
X2528Y861D01*
X2524Y861D01*
X2524Y863D01*
X2520Y863D01*
X2520Y865D01*
X2518Y865D01*
X2518Y867D01*
X2514Y867D01*
X2514Y869D01*
X2512Y869D01*
X2512Y871D01*
X2510Y871D01*
X2510Y873D01*
X2508Y873D01*
X2508Y877D01*
X2506Y877D01*
X2506Y879D01*
X2504Y879D01*
X2504Y883D01*
X2502Y883D01*
X2502Y885D01*
X2500Y885D01*
X2500Y891D01*
X2498Y891D01*
X2498Y899D01*
X2496Y899D01*
X2496Y913D01*
X2498Y913D01*
X2498Y921D01*
X2500Y921D01*
X2500Y927D01*
X2502Y927D01*
X2502Y931D01*
X2504Y931D01*
X2504Y933D01*
X2506Y933D01*
X2506Y937D01*
X2508Y937D01*
X2508Y939D01*
X2510Y939D01*
X2510Y941D01*
X2512Y941D01*
X2512Y943D01*
X2514Y943D01*
X2514Y945D01*
X2516Y945D01*
X2516Y947D01*
X2520Y947D01*
X2520Y949D01*
X2524Y949D01*
X2524Y951D01*
X2528Y951D01*
X2528Y953D01*
X2534Y953D01*
X2534Y955D01*
X2430Y955D01*
G37*
D02*
G36*
X2392Y857D02*
X2392Y855D01*
X2664Y855D01*
X2664Y857D01*
X2392Y857D01*
G37*
D02*
G36*
X2392Y857D02*
X2392Y855D01*
X2664Y855D01*
X2664Y857D01*
X2392Y857D01*
G37*
D02*
G36*
X2392Y855D02*
X2392Y853D01*
X2390Y853D01*
X2390Y849D01*
X2388Y849D01*
X2388Y843D01*
X2386Y843D01*
X2386Y839D01*
X2384Y839D01*
X2384Y833D01*
X2382Y833D01*
X2382Y829D01*
X2380Y829D01*
X2380Y823D01*
X2378Y823D01*
X2378Y819D01*
X2376Y819D01*
X2376Y813D01*
X2374Y813D01*
X2374Y809D01*
X2372Y809D01*
X2372Y803D01*
X2370Y803D01*
X2370Y799D01*
X2368Y799D01*
X2368Y793D01*
X2366Y793D01*
X2366Y787D01*
X2364Y787D01*
X2364Y781D01*
X2362Y781D01*
X2362Y775D01*
X2360Y775D01*
X2360Y769D01*
X2358Y769D01*
X2358Y765D01*
X2356Y765D01*
X2356Y759D01*
X2354Y759D01*
X2354Y753D01*
X2352Y753D01*
X2352Y747D01*
X2350Y747D01*
X2350Y741D01*
X2348Y741D01*
X2348Y735D01*
X2346Y735D01*
X2346Y729D01*
X2344Y729D01*
X2344Y723D01*
X2342Y723D01*
X2342Y717D01*
X2340Y717D01*
X2340Y711D01*
X2338Y711D01*
X2338Y705D01*
X2336Y705D01*
X2336Y703D01*
X2608Y703D01*
X2608Y701D01*
X2614Y701D01*
X2614Y699D01*
X2618Y699D01*
X2618Y697D01*
X2622Y697D01*
X2622Y695D01*
X2624Y695D01*
X2624Y693D01*
X2626Y693D01*
X2626Y691D01*
X2630Y691D01*
X2630Y687D01*
X2632Y687D01*
X2632Y685D01*
X2634Y685D01*
X2634Y683D01*
X2636Y683D01*
X2636Y679D01*
X2638Y679D01*
X2638Y675D01*
X2640Y675D01*
X2640Y671D01*
X2642Y671D01*
X2642Y661D01*
X2644Y661D01*
X2644Y651D01*
X2642Y651D01*
X2642Y643D01*
X2640Y643D01*
X2640Y637D01*
X2638Y637D01*
X2638Y633D01*
X2636Y633D01*
X2636Y629D01*
X2634Y629D01*
X2634Y627D01*
X2632Y627D01*
X2632Y625D01*
X2630Y625D01*
X2630Y623D01*
X2628Y623D01*
X2628Y621D01*
X2626Y621D01*
X2626Y619D01*
X2624Y619D01*
X2624Y617D01*
X2620Y617D01*
X2620Y597D01*
X2622Y597D01*
X2622Y595D01*
X2624Y595D01*
X2624Y593D01*
X2626Y593D01*
X2626Y591D01*
X2630Y591D01*
X2630Y587D01*
X2632Y587D01*
X2632Y585D01*
X2634Y585D01*
X2634Y583D01*
X2636Y583D01*
X2636Y579D01*
X2638Y579D01*
X2638Y575D01*
X2640Y575D01*
X2640Y571D01*
X2642Y571D01*
X2642Y561D01*
X2644Y561D01*
X2644Y551D01*
X2642Y551D01*
X2642Y543D01*
X2640Y543D01*
X2640Y537D01*
X2638Y537D01*
X2638Y533D01*
X2636Y533D01*
X2636Y529D01*
X2634Y529D01*
X2634Y527D01*
X2632Y527D01*
X2632Y525D01*
X2630Y525D01*
X2630Y523D01*
X2628Y523D01*
X2628Y521D01*
X2626Y521D01*
X2626Y519D01*
X2624Y519D01*
X2624Y517D01*
X2620Y517D01*
X2620Y497D01*
X2622Y497D01*
X2622Y495D01*
X2624Y495D01*
X2624Y493D01*
X2626Y493D01*
X2626Y491D01*
X2630Y491D01*
X2630Y487D01*
X2632Y487D01*
X2632Y485D01*
X2634Y485D01*
X2634Y483D01*
X2636Y483D01*
X2636Y479D01*
X2638Y479D01*
X2638Y475D01*
X2640Y475D01*
X2640Y471D01*
X2642Y471D01*
X2642Y461D01*
X2644Y461D01*
X2644Y451D01*
X2642Y451D01*
X2642Y443D01*
X2640Y443D01*
X2640Y437D01*
X2638Y437D01*
X2638Y433D01*
X2636Y433D01*
X2636Y429D01*
X2634Y429D01*
X2634Y427D01*
X2632Y427D01*
X2632Y425D01*
X2630Y425D01*
X2630Y423D01*
X2628Y423D01*
X2628Y421D01*
X2626Y421D01*
X2626Y419D01*
X2624Y419D01*
X2624Y417D01*
X2620Y417D01*
X2620Y415D01*
X2618Y415D01*
X2618Y413D01*
X2612Y413D01*
X2612Y411D01*
X2606Y411D01*
X2606Y409D01*
X2664Y409D01*
X2664Y855D01*
X2392Y855D01*
G37*
D02*
G36*
X52Y853D02*
X52Y587D01*
X1506Y587D01*
X1506Y585D01*
X1510Y585D01*
X1510Y583D01*
X1514Y583D01*
X1514Y581D01*
X1516Y581D01*
X1516Y579D01*
X1518Y579D01*
X1518Y577D01*
X1520Y577D01*
X1520Y575D01*
X1522Y575D01*
X1522Y573D01*
X1524Y573D01*
X1524Y569D01*
X1526Y569D01*
X1526Y561D01*
X1528Y561D01*
X1528Y551D01*
X1526Y551D01*
X1526Y543D01*
X1524Y543D01*
X1524Y541D01*
X1522Y541D01*
X1522Y537D01*
X1520Y537D01*
X1520Y535D01*
X1518Y535D01*
X1518Y533D01*
X1516Y533D01*
X1516Y531D01*
X1514Y531D01*
X1514Y529D01*
X1510Y529D01*
X1510Y527D01*
X1504Y527D01*
X1504Y525D01*
X1852Y525D01*
X1852Y527D01*
X1854Y527D01*
X1854Y529D01*
X1856Y529D01*
X1856Y533D01*
X1858Y533D01*
X1858Y535D01*
X1860Y535D01*
X1860Y537D01*
X1862Y537D01*
X1862Y541D01*
X1866Y541D01*
X1866Y543D01*
X1868Y543D01*
X1868Y545D01*
X1870Y545D01*
X1870Y547D01*
X1872Y547D01*
X1872Y567D01*
X1868Y567D01*
X1868Y569D01*
X1866Y569D01*
X1866Y571D01*
X1864Y571D01*
X1864Y573D01*
X1862Y573D01*
X1862Y575D01*
X1860Y575D01*
X1860Y577D01*
X1858Y577D01*
X1858Y579D01*
X1856Y579D01*
X1856Y583D01*
X1854Y583D01*
X1854Y587D01*
X1852Y587D01*
X1852Y591D01*
X1850Y591D01*
X1850Y601D01*
X1848Y601D01*
X1848Y613D01*
X1850Y613D01*
X1850Y621D01*
X1852Y621D01*
X1852Y627D01*
X1854Y627D01*
X1854Y629D01*
X1856Y629D01*
X1856Y633D01*
X1858Y633D01*
X1858Y635D01*
X1860Y635D01*
X1860Y637D01*
X1862Y637D01*
X1862Y641D01*
X1866Y641D01*
X1866Y643D01*
X1868Y643D01*
X1868Y645D01*
X1870Y645D01*
X1870Y647D01*
X1872Y647D01*
X1872Y667D01*
X1868Y667D01*
X1868Y669D01*
X1866Y669D01*
X1866Y671D01*
X1864Y671D01*
X1864Y673D01*
X1862Y673D01*
X1862Y675D01*
X1860Y675D01*
X1860Y677D01*
X1858Y677D01*
X1858Y679D01*
X1856Y679D01*
X1856Y683D01*
X1854Y683D01*
X1854Y687D01*
X1852Y687D01*
X1852Y691D01*
X1850Y691D01*
X1850Y701D01*
X1848Y701D01*
X1848Y713D01*
X1850Y713D01*
X1850Y721D01*
X1852Y721D01*
X1852Y727D01*
X1854Y727D01*
X1854Y729D01*
X1856Y729D01*
X1856Y733D01*
X1858Y733D01*
X1858Y735D01*
X1860Y735D01*
X1860Y737D01*
X1862Y737D01*
X1862Y741D01*
X1866Y741D01*
X1866Y743D01*
X1868Y743D01*
X1868Y745D01*
X1870Y745D01*
X1870Y747D01*
X1872Y747D01*
X1872Y767D01*
X1868Y767D01*
X1868Y769D01*
X1866Y769D01*
X1866Y771D01*
X1864Y771D01*
X1864Y773D01*
X1862Y773D01*
X1862Y775D01*
X1860Y775D01*
X1860Y777D01*
X1858Y777D01*
X1858Y779D01*
X1856Y779D01*
X1856Y783D01*
X1854Y783D01*
X1854Y787D01*
X1852Y787D01*
X1852Y791D01*
X1850Y791D01*
X1850Y801D01*
X1848Y801D01*
X1848Y813D01*
X1850Y813D01*
X1850Y821D01*
X1852Y821D01*
X1852Y827D01*
X1854Y827D01*
X1854Y829D01*
X1856Y829D01*
X1856Y833D01*
X1858Y833D01*
X1858Y835D01*
X1860Y835D01*
X1860Y837D01*
X1862Y837D01*
X1862Y841D01*
X1866Y841D01*
X1866Y843D01*
X1868Y843D01*
X1868Y845D01*
X1870Y845D01*
X1870Y847D01*
X1874Y847D01*
X1874Y849D01*
X1878Y849D01*
X1878Y851D01*
X1884Y851D01*
X1884Y853D01*
X52Y853D01*
G37*
D02*
G36*
X2336Y703D02*
X2336Y699D01*
X2334Y699D01*
X2334Y695D01*
X2332Y695D01*
X2332Y689D01*
X2330Y689D01*
X2330Y683D01*
X2328Y683D01*
X2328Y677D01*
X2326Y677D01*
X2326Y671D01*
X2324Y671D01*
X2324Y665D01*
X2322Y665D01*
X2322Y659D01*
X2320Y659D01*
X2320Y653D01*
X2318Y653D01*
X2318Y647D01*
X2316Y647D01*
X2316Y641D01*
X2314Y641D01*
X2314Y635D01*
X2312Y635D01*
X2312Y631D01*
X2310Y631D01*
X2310Y625D01*
X2308Y625D01*
X2308Y619D01*
X2306Y619D01*
X2306Y613D01*
X2304Y613D01*
X2304Y607D01*
X2302Y607D01*
X2302Y601D01*
X2300Y601D01*
X2300Y595D01*
X2298Y595D01*
X2298Y589D01*
X2296Y589D01*
X2296Y583D01*
X2294Y583D01*
X2294Y577D01*
X2292Y577D01*
X2292Y571D01*
X2290Y571D01*
X2290Y565D01*
X2288Y565D01*
X2288Y561D01*
X2286Y561D01*
X2286Y555D01*
X2284Y555D01*
X2284Y549D01*
X2282Y549D01*
X2282Y543D01*
X2280Y543D01*
X2280Y537D01*
X2278Y537D01*
X2278Y531D01*
X2276Y531D01*
X2276Y525D01*
X2274Y525D01*
X2274Y519D01*
X2272Y519D01*
X2272Y513D01*
X2270Y513D01*
X2270Y507D01*
X2268Y507D01*
X2268Y501D01*
X2266Y501D01*
X2266Y495D01*
X2264Y495D01*
X2264Y491D01*
X2262Y491D01*
X2262Y485D01*
X2260Y485D01*
X2260Y479D01*
X2258Y479D01*
X2258Y473D01*
X2256Y473D01*
X2256Y469D01*
X2276Y469D01*
X2276Y471D01*
X2278Y471D01*
X2278Y473D01*
X2280Y473D01*
X2280Y475D01*
X2284Y475D01*
X2284Y477D01*
X2288Y477D01*
X2288Y479D01*
X2546Y479D01*
X2546Y481D01*
X2556Y481D01*
X2556Y483D01*
X2558Y483D01*
X2558Y485D01*
X2560Y485D01*
X2560Y487D01*
X2562Y487D01*
X2562Y491D01*
X2566Y491D01*
X2566Y493D01*
X2568Y493D01*
X2568Y495D01*
X2570Y495D01*
X2570Y497D01*
X2572Y497D01*
X2572Y517D01*
X2568Y517D01*
X2568Y519D01*
X2566Y519D01*
X2566Y521D01*
X2564Y521D01*
X2564Y523D01*
X2562Y523D01*
X2562Y525D01*
X2560Y525D01*
X2560Y527D01*
X2558Y527D01*
X2558Y529D01*
X2556Y529D01*
X2556Y533D01*
X2554Y533D01*
X2554Y537D01*
X2552Y537D01*
X2552Y541D01*
X2550Y541D01*
X2550Y551D01*
X2548Y551D01*
X2548Y563D01*
X2550Y563D01*
X2550Y571D01*
X2552Y571D01*
X2552Y577D01*
X2554Y577D01*
X2554Y579D01*
X2556Y579D01*
X2556Y583D01*
X2558Y583D01*
X2558Y585D01*
X2560Y585D01*
X2560Y587D01*
X2562Y587D01*
X2562Y591D01*
X2566Y591D01*
X2566Y593D01*
X2568Y593D01*
X2568Y595D01*
X2570Y595D01*
X2570Y597D01*
X2572Y597D01*
X2572Y617D01*
X2568Y617D01*
X2568Y619D01*
X2566Y619D01*
X2566Y621D01*
X2564Y621D01*
X2564Y623D01*
X2562Y623D01*
X2562Y625D01*
X2560Y625D01*
X2560Y627D01*
X2558Y627D01*
X2558Y629D01*
X2556Y629D01*
X2556Y633D01*
X2554Y633D01*
X2554Y637D01*
X2552Y637D01*
X2552Y641D01*
X2550Y641D01*
X2550Y651D01*
X2548Y651D01*
X2548Y663D01*
X2550Y663D01*
X2550Y671D01*
X2552Y671D01*
X2552Y677D01*
X2554Y677D01*
X2554Y679D01*
X2556Y679D01*
X2556Y683D01*
X2558Y683D01*
X2558Y685D01*
X2560Y685D01*
X2560Y687D01*
X2562Y687D01*
X2562Y691D01*
X2566Y691D01*
X2566Y693D01*
X2568Y693D01*
X2568Y695D01*
X2570Y695D01*
X2570Y697D01*
X2574Y697D01*
X2574Y699D01*
X2578Y699D01*
X2578Y701D01*
X2584Y701D01*
X2584Y703D01*
X2336Y703D01*
G37*
D02*
G36*
X52Y587D02*
X52Y525D01*
X1486Y525D01*
X1486Y527D01*
X1482Y527D01*
X1482Y529D01*
X1478Y529D01*
X1478Y531D01*
X1476Y531D01*
X1476Y533D01*
X1474Y533D01*
X1474Y535D01*
X1472Y535D01*
X1472Y537D01*
X1470Y537D01*
X1470Y539D01*
X1468Y539D01*
X1468Y543D01*
X1466Y543D01*
X1466Y549D01*
X1464Y549D01*
X1464Y563D01*
X1466Y563D01*
X1466Y569D01*
X1468Y569D01*
X1468Y573D01*
X1470Y573D01*
X1470Y575D01*
X1472Y575D01*
X1472Y577D01*
X1474Y577D01*
X1474Y579D01*
X1476Y579D01*
X1476Y581D01*
X1478Y581D01*
X1478Y583D01*
X1482Y583D01*
X1482Y585D01*
X1486Y585D01*
X1486Y587D01*
X52Y587D01*
G37*
D02*
G36*
X52Y525D02*
X52Y523D01*
X1852Y523D01*
X1852Y525D01*
X52Y525D01*
G37*
D02*
G36*
X52Y525D02*
X52Y523D01*
X1852Y523D01*
X1852Y525D01*
X52Y525D01*
G37*
D02*
G36*
X52Y523D02*
X52Y359D01*
X1886Y359D01*
X1886Y361D01*
X1880Y361D01*
X1880Y363D01*
X1874Y363D01*
X1874Y365D01*
X1872Y365D01*
X1872Y367D01*
X1868Y367D01*
X1868Y369D01*
X1866Y369D01*
X1866Y371D01*
X1864Y371D01*
X1864Y373D01*
X1862Y373D01*
X1862Y375D01*
X1860Y375D01*
X1860Y377D01*
X1858Y377D01*
X1858Y379D01*
X1856Y379D01*
X1856Y383D01*
X1854Y383D01*
X1854Y387D01*
X1852Y387D01*
X1852Y391D01*
X1850Y391D01*
X1850Y401D01*
X1848Y401D01*
X1848Y413D01*
X1850Y413D01*
X1850Y421D01*
X1852Y421D01*
X1852Y427D01*
X1854Y427D01*
X1854Y429D01*
X1856Y429D01*
X1856Y433D01*
X1858Y433D01*
X1858Y435D01*
X1860Y435D01*
X1860Y437D01*
X1862Y437D01*
X1862Y441D01*
X1866Y441D01*
X1866Y443D01*
X1868Y443D01*
X1868Y445D01*
X1870Y445D01*
X1870Y447D01*
X1872Y447D01*
X1872Y467D01*
X1868Y467D01*
X1868Y469D01*
X1866Y469D01*
X1866Y471D01*
X1864Y471D01*
X1864Y473D01*
X1862Y473D01*
X1862Y475D01*
X1860Y475D01*
X1860Y477D01*
X1858Y477D01*
X1858Y479D01*
X1856Y479D01*
X1856Y483D01*
X1854Y483D01*
X1854Y487D01*
X1852Y487D01*
X1852Y491D01*
X1850Y491D01*
X1850Y501D01*
X1848Y501D01*
X1848Y513D01*
X1850Y513D01*
X1850Y521D01*
X1852Y521D01*
X1852Y523D01*
X52Y523D01*
G37*
D02*
G36*
X2314Y431D02*
X2314Y429D01*
X2312Y429D01*
X2312Y421D01*
X2310Y421D01*
X2310Y413D01*
X2308Y413D01*
X2308Y409D01*
X2586Y409D01*
X2586Y411D01*
X2580Y411D01*
X2580Y413D01*
X2574Y413D01*
X2574Y415D01*
X2572Y415D01*
X2572Y417D01*
X2568Y417D01*
X2568Y419D01*
X2566Y419D01*
X2566Y421D01*
X2564Y421D01*
X2564Y423D01*
X2562Y423D01*
X2562Y425D01*
X2560Y425D01*
X2560Y427D01*
X2558Y427D01*
X2558Y429D01*
X2556Y429D01*
X2556Y431D01*
X2314Y431D01*
G37*
D02*
G36*
X2308Y409D02*
X2308Y407D01*
X2664Y407D01*
X2664Y409D01*
X2308Y409D01*
G37*
D02*
G36*
X2308Y409D02*
X2308Y407D01*
X2664Y407D01*
X2664Y409D01*
X2308Y409D01*
G37*
D02*
G36*
X2306Y407D02*
X2306Y399D01*
X2304Y399D01*
X2304Y391D01*
X2302Y391D01*
X2302Y383D01*
X2300Y383D01*
X2300Y375D01*
X2298Y375D01*
X2298Y367D01*
X2296Y367D01*
X2296Y359D01*
X2294Y359D01*
X2294Y351D01*
X2292Y351D01*
X2292Y343D01*
X2290Y343D01*
X2290Y335D01*
X2288Y335D01*
X2288Y327D01*
X2286Y327D01*
X2286Y319D01*
X2284Y319D01*
X2284Y311D01*
X2282Y311D01*
X2282Y303D01*
X2280Y303D01*
X2280Y297D01*
X2278Y297D01*
X2278Y289D01*
X2276Y289D01*
X2276Y281D01*
X2274Y281D01*
X2274Y273D01*
X2272Y273D01*
X2272Y265D01*
X2270Y265D01*
X2270Y257D01*
X2268Y257D01*
X2268Y249D01*
X2266Y249D01*
X2266Y241D01*
X2264Y241D01*
X2264Y233D01*
X2262Y233D01*
X2262Y225D01*
X2260Y225D01*
X2260Y217D01*
X2258Y217D01*
X2258Y209D01*
X2256Y209D01*
X2256Y201D01*
X2254Y201D01*
X2254Y193D01*
X2252Y193D01*
X2252Y187D01*
X2250Y187D01*
X2250Y179D01*
X2248Y179D01*
X2248Y171D01*
X2246Y171D01*
X2246Y163D01*
X2244Y163D01*
X2244Y155D01*
X2242Y155D01*
X2242Y151D01*
X2516Y151D01*
X2516Y149D01*
X2522Y149D01*
X2522Y147D01*
X2526Y147D01*
X2526Y145D01*
X2530Y145D01*
X2530Y143D01*
X2532Y143D01*
X2532Y141D01*
X2536Y141D01*
X2536Y139D01*
X2538Y139D01*
X2538Y137D01*
X2540Y137D01*
X2540Y135D01*
X2542Y135D01*
X2542Y131D01*
X2544Y131D01*
X2544Y129D01*
X2564Y129D01*
X2564Y147D01*
X2566Y147D01*
X2566Y149D01*
X2568Y149D01*
X2568Y151D01*
X2570Y151D01*
X2570Y153D01*
X2572Y153D01*
X2572Y155D01*
X2574Y155D01*
X2574Y157D01*
X2576Y157D01*
X2576Y159D01*
X2578Y159D01*
X2578Y161D01*
X2580Y161D01*
X2580Y163D01*
X2582Y163D01*
X2582Y165D01*
X2584Y165D01*
X2584Y167D01*
X2586Y167D01*
X2586Y169D01*
X2588Y169D01*
X2588Y171D01*
X2590Y171D01*
X2590Y173D01*
X2592Y173D01*
X2592Y175D01*
X2594Y175D01*
X2594Y177D01*
X2596Y177D01*
X2596Y179D01*
X2598Y179D01*
X2598Y181D01*
X2600Y181D01*
X2600Y183D01*
X2602Y183D01*
X2602Y185D01*
X2604Y185D01*
X2604Y187D01*
X2606Y187D01*
X2606Y189D01*
X2608Y189D01*
X2608Y191D01*
X2610Y191D01*
X2610Y193D01*
X2612Y193D01*
X2612Y195D01*
X2614Y195D01*
X2614Y197D01*
X2616Y197D01*
X2616Y199D01*
X2618Y199D01*
X2618Y201D01*
X2620Y201D01*
X2620Y203D01*
X2622Y203D01*
X2622Y205D01*
X2624Y205D01*
X2624Y207D01*
X2626Y207D01*
X2626Y209D01*
X2628Y209D01*
X2628Y211D01*
X2630Y211D01*
X2630Y213D01*
X2632Y213D01*
X2632Y215D01*
X2634Y215D01*
X2634Y217D01*
X2636Y217D01*
X2636Y219D01*
X2638Y219D01*
X2638Y221D01*
X2640Y221D01*
X2640Y223D01*
X2642Y223D01*
X2642Y225D01*
X2644Y225D01*
X2644Y227D01*
X2646Y227D01*
X2646Y229D01*
X2648Y229D01*
X2648Y231D01*
X2650Y231D01*
X2650Y233D01*
X2652Y233D01*
X2652Y235D01*
X2654Y235D01*
X2654Y237D01*
X2656Y237D01*
X2656Y239D01*
X2658Y239D01*
X2658Y241D01*
X2660Y241D01*
X2660Y243D01*
X2662Y243D01*
X2662Y245D01*
X2664Y245D01*
X2664Y407D01*
X2306Y407D01*
G37*
D02*
G36*
X52Y359D02*
X52Y357D01*
X2166Y357D01*
X2166Y359D01*
X52Y359D01*
G37*
D02*
G36*
X52Y359D02*
X52Y357D01*
X2166Y357D01*
X2166Y359D01*
X52Y359D01*
G37*
D02*
G36*
X52Y357D02*
X52Y151D01*
X2016Y151D01*
X2016Y149D01*
X2022Y149D01*
X2022Y147D01*
X2026Y147D01*
X2026Y145D01*
X2030Y145D01*
X2030Y143D01*
X2032Y143D01*
X2032Y141D01*
X2036Y141D01*
X2036Y139D01*
X2038Y139D01*
X2038Y137D01*
X2040Y137D01*
X2040Y135D01*
X2042Y135D01*
X2042Y131D01*
X2044Y131D01*
X2044Y129D01*
X2046Y129D01*
X2046Y125D01*
X2066Y125D01*
X2066Y129D01*
X2068Y129D01*
X2068Y131D01*
X2070Y131D01*
X2070Y135D01*
X2072Y135D01*
X2072Y137D01*
X2074Y137D01*
X2074Y139D01*
X2076Y139D01*
X2076Y141D01*
X2078Y141D01*
X2078Y143D01*
X2082Y143D01*
X2082Y145D01*
X2086Y145D01*
X2086Y147D01*
X2090Y147D01*
X2090Y149D01*
X2096Y149D01*
X2096Y155D01*
X2098Y155D01*
X2098Y159D01*
X2100Y159D01*
X2100Y165D01*
X2102Y165D01*
X2102Y171D01*
X2104Y171D01*
X2104Y177D01*
X2106Y177D01*
X2106Y183D01*
X2108Y183D01*
X2108Y189D01*
X2110Y189D01*
X2110Y195D01*
X2112Y195D01*
X2112Y201D01*
X2114Y201D01*
X2114Y207D01*
X2116Y207D01*
X2116Y213D01*
X2118Y213D01*
X2118Y219D01*
X2120Y219D01*
X2120Y225D01*
X2122Y225D01*
X2122Y229D01*
X2124Y229D01*
X2124Y235D01*
X2126Y235D01*
X2126Y241D01*
X2128Y241D01*
X2128Y247D01*
X2130Y247D01*
X2130Y253D01*
X2132Y253D01*
X2132Y259D01*
X2134Y259D01*
X2134Y265D01*
X2136Y265D01*
X2136Y271D01*
X2138Y271D01*
X2138Y277D01*
X2140Y277D01*
X2140Y283D01*
X2142Y283D01*
X2142Y289D01*
X2144Y289D01*
X2144Y295D01*
X2146Y295D01*
X2146Y299D01*
X2148Y299D01*
X2148Y305D01*
X2150Y305D01*
X2150Y311D01*
X2152Y311D01*
X2152Y317D01*
X2154Y317D01*
X2154Y323D01*
X2156Y323D01*
X2156Y329D01*
X2158Y329D01*
X2158Y335D01*
X2160Y335D01*
X2160Y341D01*
X2162Y341D01*
X2162Y347D01*
X2164Y347D01*
X2164Y353D01*
X2166Y353D01*
X2166Y357D01*
X52Y357D01*
G37*
D02*
G36*
X52Y151D02*
X52Y71D01*
X54Y71D01*
X54Y67D01*
X56Y67D01*
X56Y63D01*
X58Y63D01*
X58Y61D01*
X60Y61D01*
X60Y59D01*
X62Y59D01*
X62Y57D01*
X64Y57D01*
X64Y55D01*
X66Y55D01*
X66Y53D01*
X70Y53D01*
X70Y51D01*
X74Y51D01*
X74Y49D01*
X80Y49D01*
X80Y47D01*
X1086Y47D01*
X1086Y67D01*
X1082Y67D01*
X1082Y69D01*
X1080Y69D01*
X1080Y71D01*
X1076Y71D01*
X1076Y73D01*
X1074Y73D01*
X1074Y75D01*
X1072Y75D01*
X1072Y79D01*
X1070Y79D01*
X1070Y81D01*
X1068Y81D01*
X1068Y83D01*
X1066Y83D01*
X1066Y87D01*
X1064Y87D01*
X1064Y93D01*
X1062Y93D01*
X1062Y103D01*
X1060Y103D01*
X1060Y109D01*
X1062Y109D01*
X1062Y119D01*
X1064Y119D01*
X1064Y125D01*
X1066Y125D01*
X1066Y129D01*
X1068Y129D01*
X1068Y131D01*
X1070Y131D01*
X1070Y135D01*
X1072Y135D01*
X1072Y137D01*
X1074Y137D01*
X1074Y139D01*
X1076Y139D01*
X1076Y141D01*
X1078Y141D01*
X1078Y143D01*
X1082Y143D01*
X1082Y145D01*
X1086Y145D01*
X1086Y147D01*
X1090Y147D01*
X1090Y149D01*
X1096Y149D01*
X1096Y151D01*
X52Y151D01*
G37*
D02*
G36*
X1116Y151D02*
X1116Y149D01*
X1122Y149D01*
X1122Y147D01*
X1126Y147D01*
X1126Y145D01*
X1130Y145D01*
X1130Y143D01*
X1132Y143D01*
X1132Y141D01*
X1136Y141D01*
X1136Y139D01*
X1138Y139D01*
X1138Y137D01*
X1140Y137D01*
X1140Y135D01*
X1142Y135D01*
X1142Y131D01*
X1144Y131D01*
X1144Y129D01*
X1146Y129D01*
X1146Y125D01*
X1166Y125D01*
X1166Y129D01*
X1168Y129D01*
X1168Y131D01*
X1170Y131D01*
X1170Y135D01*
X1172Y135D01*
X1172Y137D01*
X1174Y137D01*
X1174Y139D01*
X1176Y139D01*
X1176Y141D01*
X1178Y141D01*
X1178Y143D01*
X1182Y143D01*
X1182Y145D01*
X1186Y145D01*
X1186Y147D01*
X1190Y147D01*
X1190Y149D01*
X1196Y149D01*
X1196Y151D01*
X1116Y151D01*
G37*
D02*
G36*
X1216Y151D02*
X1216Y149D01*
X1222Y149D01*
X1222Y147D01*
X1226Y147D01*
X1226Y145D01*
X1230Y145D01*
X1230Y143D01*
X1232Y143D01*
X1232Y141D01*
X1236Y141D01*
X1236Y139D01*
X1238Y139D01*
X1238Y137D01*
X1240Y137D01*
X1240Y135D01*
X1242Y135D01*
X1242Y131D01*
X1244Y131D01*
X1244Y129D01*
X1246Y129D01*
X1246Y125D01*
X1266Y125D01*
X1266Y129D01*
X1268Y129D01*
X1268Y131D01*
X1270Y131D01*
X1270Y135D01*
X1272Y135D01*
X1272Y137D01*
X1274Y137D01*
X1274Y139D01*
X1276Y139D01*
X1276Y141D01*
X1278Y141D01*
X1278Y143D01*
X1282Y143D01*
X1282Y145D01*
X1286Y145D01*
X1286Y147D01*
X1290Y147D01*
X1290Y149D01*
X1296Y149D01*
X1296Y151D01*
X1216Y151D01*
G37*
D02*
G36*
X1316Y151D02*
X1316Y149D01*
X1322Y149D01*
X1322Y147D01*
X1326Y147D01*
X1326Y145D01*
X1330Y145D01*
X1330Y143D01*
X1332Y143D01*
X1332Y141D01*
X1336Y141D01*
X1336Y139D01*
X1338Y139D01*
X1338Y137D01*
X1340Y137D01*
X1340Y135D01*
X1342Y135D01*
X1342Y131D01*
X1344Y131D01*
X1344Y129D01*
X1346Y129D01*
X1346Y125D01*
X1366Y125D01*
X1366Y129D01*
X1368Y129D01*
X1368Y131D01*
X1370Y131D01*
X1370Y135D01*
X1372Y135D01*
X1372Y137D01*
X1374Y137D01*
X1374Y139D01*
X1376Y139D01*
X1376Y141D01*
X1378Y141D01*
X1378Y143D01*
X1382Y143D01*
X1382Y145D01*
X1386Y145D01*
X1386Y147D01*
X1390Y147D01*
X1390Y149D01*
X1396Y149D01*
X1396Y151D01*
X1316Y151D01*
G37*
D02*
G36*
X1416Y151D02*
X1416Y149D01*
X1422Y149D01*
X1422Y147D01*
X1426Y147D01*
X1426Y145D01*
X1430Y145D01*
X1430Y143D01*
X1432Y143D01*
X1432Y141D01*
X1436Y141D01*
X1436Y139D01*
X1438Y139D01*
X1438Y137D01*
X1440Y137D01*
X1440Y135D01*
X1442Y135D01*
X1442Y131D01*
X1444Y131D01*
X1444Y129D01*
X1446Y129D01*
X1446Y125D01*
X1466Y125D01*
X1466Y129D01*
X1468Y129D01*
X1468Y131D01*
X1470Y131D01*
X1470Y135D01*
X1472Y135D01*
X1472Y137D01*
X1474Y137D01*
X1474Y139D01*
X1476Y139D01*
X1476Y141D01*
X1478Y141D01*
X1478Y143D01*
X1482Y143D01*
X1482Y145D01*
X1486Y145D01*
X1486Y147D01*
X1490Y147D01*
X1490Y149D01*
X1496Y149D01*
X1496Y151D01*
X1416Y151D01*
G37*
D02*
G36*
X1516Y151D02*
X1516Y149D01*
X1522Y149D01*
X1522Y147D01*
X1526Y147D01*
X1526Y145D01*
X1530Y145D01*
X1530Y143D01*
X1532Y143D01*
X1532Y141D01*
X1536Y141D01*
X1536Y139D01*
X1538Y139D01*
X1538Y137D01*
X1540Y137D01*
X1540Y135D01*
X1542Y135D01*
X1542Y131D01*
X1544Y131D01*
X1544Y129D01*
X1546Y129D01*
X1546Y125D01*
X1566Y125D01*
X1566Y129D01*
X1568Y129D01*
X1568Y131D01*
X1570Y131D01*
X1570Y135D01*
X1572Y135D01*
X1572Y137D01*
X1574Y137D01*
X1574Y139D01*
X1576Y139D01*
X1576Y141D01*
X1578Y141D01*
X1578Y143D01*
X1582Y143D01*
X1582Y145D01*
X1586Y145D01*
X1586Y147D01*
X1590Y147D01*
X1590Y149D01*
X1596Y149D01*
X1596Y151D01*
X1516Y151D01*
G37*
D02*
G36*
X1616Y151D02*
X1616Y149D01*
X1622Y149D01*
X1622Y147D01*
X1626Y147D01*
X1626Y145D01*
X1630Y145D01*
X1630Y143D01*
X1632Y143D01*
X1632Y141D01*
X1636Y141D01*
X1636Y139D01*
X1638Y139D01*
X1638Y137D01*
X1640Y137D01*
X1640Y135D01*
X1642Y135D01*
X1642Y131D01*
X1644Y131D01*
X1644Y129D01*
X1646Y129D01*
X1646Y125D01*
X1666Y125D01*
X1666Y129D01*
X1668Y129D01*
X1668Y131D01*
X1670Y131D01*
X1670Y135D01*
X1672Y135D01*
X1672Y137D01*
X1674Y137D01*
X1674Y139D01*
X1676Y139D01*
X1676Y141D01*
X1678Y141D01*
X1678Y143D01*
X1682Y143D01*
X1682Y145D01*
X1686Y145D01*
X1686Y147D01*
X1690Y147D01*
X1690Y149D01*
X1696Y149D01*
X1696Y151D01*
X1616Y151D01*
G37*
D02*
G36*
X1716Y151D02*
X1716Y149D01*
X1722Y149D01*
X1722Y147D01*
X1726Y147D01*
X1726Y145D01*
X1730Y145D01*
X1730Y143D01*
X1732Y143D01*
X1732Y141D01*
X1736Y141D01*
X1736Y139D01*
X1738Y139D01*
X1738Y137D01*
X1740Y137D01*
X1740Y135D01*
X1742Y135D01*
X1742Y131D01*
X1744Y131D01*
X1744Y129D01*
X1746Y129D01*
X1746Y125D01*
X1766Y125D01*
X1766Y129D01*
X1768Y129D01*
X1768Y131D01*
X1770Y131D01*
X1770Y135D01*
X1772Y135D01*
X1772Y137D01*
X1774Y137D01*
X1774Y139D01*
X1776Y139D01*
X1776Y141D01*
X1778Y141D01*
X1778Y143D01*
X1782Y143D01*
X1782Y145D01*
X1786Y145D01*
X1786Y147D01*
X1790Y147D01*
X1790Y149D01*
X1796Y149D01*
X1796Y151D01*
X1716Y151D01*
G37*
D02*
G36*
X1816Y151D02*
X1816Y149D01*
X1822Y149D01*
X1822Y147D01*
X1826Y147D01*
X1826Y145D01*
X1830Y145D01*
X1830Y143D01*
X1832Y143D01*
X1832Y141D01*
X1836Y141D01*
X1836Y139D01*
X1838Y139D01*
X1838Y137D01*
X1840Y137D01*
X1840Y135D01*
X1842Y135D01*
X1842Y131D01*
X1844Y131D01*
X1844Y129D01*
X1846Y129D01*
X1846Y125D01*
X1848Y125D01*
X1848Y119D01*
X1850Y119D01*
X1850Y107D01*
X1852Y107D01*
X1852Y105D01*
X1850Y105D01*
X1850Y93D01*
X1848Y93D01*
X1848Y87D01*
X1846Y87D01*
X1846Y85D01*
X1844Y85D01*
X1844Y81D01*
X1842Y81D01*
X1842Y79D01*
X1840Y79D01*
X1840Y75D01*
X1838Y75D01*
X1838Y73D01*
X1834Y73D01*
X1834Y71D01*
X1832Y71D01*
X1832Y69D01*
X1830Y69D01*
X1830Y67D01*
X1826Y67D01*
X1826Y47D01*
X1986Y47D01*
X1986Y67D01*
X1982Y67D01*
X1982Y69D01*
X1980Y69D01*
X1980Y71D01*
X1976Y71D01*
X1976Y73D01*
X1974Y73D01*
X1974Y75D01*
X1972Y75D01*
X1972Y79D01*
X1970Y79D01*
X1970Y81D01*
X1968Y81D01*
X1968Y83D01*
X1966Y83D01*
X1966Y87D01*
X1964Y87D01*
X1964Y93D01*
X1962Y93D01*
X1962Y103D01*
X1960Y103D01*
X1960Y109D01*
X1962Y109D01*
X1962Y119D01*
X1964Y119D01*
X1964Y125D01*
X1966Y125D01*
X1966Y129D01*
X1968Y129D01*
X1968Y131D01*
X1970Y131D01*
X1970Y135D01*
X1972Y135D01*
X1972Y137D01*
X1974Y137D01*
X1974Y139D01*
X1976Y139D01*
X1976Y141D01*
X1978Y141D01*
X1978Y143D01*
X1982Y143D01*
X1982Y145D01*
X1986Y145D01*
X1986Y147D01*
X1990Y147D01*
X1990Y149D01*
X1996Y149D01*
X1996Y151D01*
X1816Y151D01*
G37*
D02*
G36*
X2242Y151D02*
X2242Y131D01*
X2244Y131D01*
X2244Y129D01*
X2246Y129D01*
X2246Y125D01*
X2266Y125D01*
X2266Y129D01*
X2268Y129D01*
X2268Y131D01*
X2270Y131D01*
X2270Y135D01*
X2272Y135D01*
X2272Y137D01*
X2274Y137D01*
X2274Y139D01*
X2276Y139D01*
X2276Y141D01*
X2278Y141D01*
X2278Y143D01*
X2282Y143D01*
X2282Y145D01*
X2286Y145D01*
X2286Y147D01*
X2290Y147D01*
X2290Y149D01*
X2296Y149D01*
X2296Y151D01*
X2242Y151D01*
G37*
D02*
G36*
X2316Y151D02*
X2316Y149D01*
X2322Y149D01*
X2322Y147D01*
X2326Y147D01*
X2326Y145D01*
X2330Y145D01*
X2330Y143D01*
X2332Y143D01*
X2332Y141D01*
X2336Y141D01*
X2336Y139D01*
X2338Y139D01*
X2338Y137D01*
X2340Y137D01*
X2340Y135D01*
X2342Y135D01*
X2342Y131D01*
X2344Y131D01*
X2344Y129D01*
X2346Y129D01*
X2346Y125D01*
X2366Y125D01*
X2366Y129D01*
X2368Y129D01*
X2368Y131D01*
X2370Y131D01*
X2370Y135D01*
X2372Y135D01*
X2372Y137D01*
X2374Y137D01*
X2374Y139D01*
X2376Y139D01*
X2376Y141D01*
X2378Y141D01*
X2378Y143D01*
X2382Y143D01*
X2382Y145D01*
X2386Y145D01*
X2386Y147D01*
X2390Y147D01*
X2390Y149D01*
X2396Y149D01*
X2396Y151D01*
X2316Y151D01*
G37*
D02*
G36*
X2416Y151D02*
X2416Y149D01*
X2422Y149D01*
X2422Y147D01*
X2426Y147D01*
X2426Y145D01*
X2430Y145D01*
X2430Y143D01*
X2432Y143D01*
X2432Y141D01*
X2436Y141D01*
X2436Y139D01*
X2438Y139D01*
X2438Y137D01*
X2440Y137D01*
X2440Y135D01*
X2442Y135D01*
X2442Y131D01*
X2444Y131D01*
X2444Y129D01*
X2446Y129D01*
X2446Y125D01*
X2466Y125D01*
X2466Y129D01*
X2468Y129D01*
X2468Y131D01*
X2470Y131D01*
X2470Y135D01*
X2472Y135D01*
X2472Y137D01*
X2474Y137D01*
X2474Y139D01*
X2476Y139D01*
X2476Y141D01*
X2478Y141D01*
X2478Y143D01*
X2482Y143D01*
X2482Y145D01*
X2486Y145D01*
X2486Y147D01*
X2490Y147D01*
X2490Y149D01*
X2496Y149D01*
X2496Y151D01*
X2416Y151D01*
G37*
D02*
G36*
X1146Y87D02*
X1146Y85D01*
X1144Y85D01*
X1144Y81D01*
X1142Y81D01*
X1142Y79D01*
X1140Y79D01*
X1140Y75D01*
X1138Y75D01*
X1138Y73D01*
X1134Y73D01*
X1134Y71D01*
X1132Y71D01*
X1132Y69D01*
X1130Y69D01*
X1130Y67D01*
X1126Y67D01*
X1126Y47D01*
X1186Y47D01*
X1186Y67D01*
X1182Y67D01*
X1182Y69D01*
X1180Y69D01*
X1180Y71D01*
X1176Y71D01*
X1176Y73D01*
X1174Y73D01*
X1174Y75D01*
X1172Y75D01*
X1172Y79D01*
X1170Y79D01*
X1170Y81D01*
X1168Y81D01*
X1168Y83D01*
X1166Y83D01*
X1166Y87D01*
X1146Y87D01*
G37*
D02*
G36*
X1246Y87D02*
X1246Y85D01*
X1244Y85D01*
X1244Y81D01*
X1242Y81D01*
X1242Y79D01*
X1240Y79D01*
X1240Y75D01*
X1238Y75D01*
X1238Y73D01*
X1234Y73D01*
X1234Y71D01*
X1232Y71D01*
X1232Y69D01*
X1230Y69D01*
X1230Y67D01*
X1226Y67D01*
X1226Y47D01*
X1286Y47D01*
X1286Y67D01*
X1282Y67D01*
X1282Y69D01*
X1280Y69D01*
X1280Y71D01*
X1276Y71D01*
X1276Y73D01*
X1274Y73D01*
X1274Y75D01*
X1272Y75D01*
X1272Y79D01*
X1270Y79D01*
X1270Y81D01*
X1268Y81D01*
X1268Y83D01*
X1266Y83D01*
X1266Y87D01*
X1246Y87D01*
G37*
D02*
G36*
X1346Y87D02*
X1346Y85D01*
X1344Y85D01*
X1344Y81D01*
X1342Y81D01*
X1342Y79D01*
X1340Y79D01*
X1340Y75D01*
X1338Y75D01*
X1338Y73D01*
X1334Y73D01*
X1334Y71D01*
X1332Y71D01*
X1332Y69D01*
X1330Y69D01*
X1330Y67D01*
X1326Y67D01*
X1326Y47D01*
X1386Y47D01*
X1386Y67D01*
X1382Y67D01*
X1382Y69D01*
X1380Y69D01*
X1380Y71D01*
X1376Y71D01*
X1376Y73D01*
X1374Y73D01*
X1374Y75D01*
X1372Y75D01*
X1372Y79D01*
X1370Y79D01*
X1370Y81D01*
X1368Y81D01*
X1368Y83D01*
X1366Y83D01*
X1366Y87D01*
X1346Y87D01*
G37*
D02*
G36*
X1446Y87D02*
X1446Y85D01*
X1444Y85D01*
X1444Y81D01*
X1442Y81D01*
X1442Y79D01*
X1440Y79D01*
X1440Y75D01*
X1438Y75D01*
X1438Y73D01*
X1434Y73D01*
X1434Y71D01*
X1432Y71D01*
X1432Y69D01*
X1430Y69D01*
X1430Y67D01*
X1426Y67D01*
X1426Y47D01*
X1486Y47D01*
X1486Y67D01*
X1482Y67D01*
X1482Y69D01*
X1480Y69D01*
X1480Y71D01*
X1476Y71D01*
X1476Y73D01*
X1474Y73D01*
X1474Y75D01*
X1472Y75D01*
X1472Y79D01*
X1470Y79D01*
X1470Y81D01*
X1468Y81D01*
X1468Y83D01*
X1466Y83D01*
X1466Y87D01*
X1446Y87D01*
G37*
D02*
G36*
X1546Y87D02*
X1546Y85D01*
X1544Y85D01*
X1544Y81D01*
X1542Y81D01*
X1542Y79D01*
X1540Y79D01*
X1540Y75D01*
X1538Y75D01*
X1538Y73D01*
X1534Y73D01*
X1534Y71D01*
X1532Y71D01*
X1532Y69D01*
X1530Y69D01*
X1530Y67D01*
X1526Y67D01*
X1526Y47D01*
X1586Y47D01*
X1586Y67D01*
X1582Y67D01*
X1582Y69D01*
X1580Y69D01*
X1580Y71D01*
X1576Y71D01*
X1576Y73D01*
X1574Y73D01*
X1574Y75D01*
X1572Y75D01*
X1572Y79D01*
X1570Y79D01*
X1570Y81D01*
X1568Y81D01*
X1568Y83D01*
X1566Y83D01*
X1566Y87D01*
X1546Y87D01*
G37*
D02*
G36*
X1646Y87D02*
X1646Y85D01*
X1644Y85D01*
X1644Y81D01*
X1642Y81D01*
X1642Y79D01*
X1640Y79D01*
X1640Y75D01*
X1638Y75D01*
X1638Y73D01*
X1634Y73D01*
X1634Y71D01*
X1632Y71D01*
X1632Y69D01*
X1630Y69D01*
X1630Y67D01*
X1626Y67D01*
X1626Y47D01*
X1686Y47D01*
X1686Y67D01*
X1682Y67D01*
X1682Y69D01*
X1680Y69D01*
X1680Y71D01*
X1676Y71D01*
X1676Y73D01*
X1674Y73D01*
X1674Y75D01*
X1672Y75D01*
X1672Y79D01*
X1670Y79D01*
X1670Y81D01*
X1668Y81D01*
X1668Y83D01*
X1666Y83D01*
X1666Y87D01*
X1646Y87D01*
G37*
D02*
G36*
X1746Y87D02*
X1746Y85D01*
X1744Y85D01*
X1744Y81D01*
X1742Y81D01*
X1742Y79D01*
X1740Y79D01*
X1740Y75D01*
X1738Y75D01*
X1738Y73D01*
X1734Y73D01*
X1734Y71D01*
X1732Y71D01*
X1732Y69D01*
X1730Y69D01*
X1730Y67D01*
X1726Y67D01*
X1726Y47D01*
X1786Y47D01*
X1786Y67D01*
X1782Y67D01*
X1782Y69D01*
X1780Y69D01*
X1780Y71D01*
X1776Y71D01*
X1776Y73D01*
X1774Y73D01*
X1774Y75D01*
X1772Y75D01*
X1772Y79D01*
X1770Y79D01*
X1770Y81D01*
X1768Y81D01*
X1768Y83D01*
X1766Y83D01*
X1766Y87D01*
X1746Y87D01*
G37*
D02*
G36*
X2046Y87D02*
X2046Y85D01*
X2044Y85D01*
X2044Y81D01*
X2042Y81D01*
X2042Y79D01*
X2040Y79D01*
X2040Y75D01*
X2038Y75D01*
X2038Y73D01*
X2034Y73D01*
X2034Y71D01*
X2032Y71D01*
X2032Y69D01*
X2030Y69D01*
X2030Y67D01*
X2026Y67D01*
X2026Y47D01*
X2086Y47D01*
X2086Y67D01*
X2082Y67D01*
X2082Y69D01*
X2080Y69D01*
X2080Y71D01*
X2076Y71D01*
X2076Y73D01*
X2074Y73D01*
X2074Y75D01*
X2072Y75D01*
X2072Y79D01*
X2070Y79D01*
X2070Y81D01*
X2068Y81D01*
X2068Y83D01*
X2066Y83D01*
X2066Y87D01*
X2046Y87D01*
G37*
D02*
G36*
X2146Y87D02*
X2146Y85D01*
X2144Y85D01*
X2144Y81D01*
X2142Y81D01*
X2142Y79D01*
X2140Y79D01*
X2140Y75D01*
X2138Y75D01*
X2138Y73D01*
X2134Y73D01*
X2134Y71D01*
X2132Y71D01*
X2132Y69D01*
X2130Y69D01*
X2130Y67D01*
X2126Y67D01*
X2126Y47D01*
X2186Y47D01*
X2186Y67D01*
X2182Y67D01*
X2182Y69D01*
X2180Y69D01*
X2180Y71D01*
X2176Y71D01*
X2176Y73D01*
X2174Y73D01*
X2174Y75D01*
X2172Y75D01*
X2172Y79D01*
X2170Y79D01*
X2170Y81D01*
X2168Y81D01*
X2168Y83D01*
X2166Y83D01*
X2166Y87D01*
X2146Y87D01*
G37*
D02*
G36*
X2246Y87D02*
X2246Y85D01*
X2244Y85D01*
X2244Y81D01*
X2242Y81D01*
X2242Y79D01*
X2240Y79D01*
X2240Y75D01*
X2238Y75D01*
X2238Y73D01*
X2234Y73D01*
X2234Y71D01*
X2232Y71D01*
X2232Y69D01*
X2230Y69D01*
X2230Y67D01*
X2226Y67D01*
X2226Y47D01*
X2286Y47D01*
X2286Y67D01*
X2282Y67D01*
X2282Y69D01*
X2280Y69D01*
X2280Y71D01*
X2276Y71D01*
X2276Y73D01*
X2274Y73D01*
X2274Y75D01*
X2272Y75D01*
X2272Y79D01*
X2270Y79D01*
X2270Y81D01*
X2268Y81D01*
X2268Y83D01*
X2266Y83D01*
X2266Y87D01*
X2246Y87D01*
G37*
D02*
G36*
X2346Y87D02*
X2346Y85D01*
X2344Y85D01*
X2344Y81D01*
X2342Y81D01*
X2342Y79D01*
X2340Y79D01*
X2340Y75D01*
X2338Y75D01*
X2338Y73D01*
X2334Y73D01*
X2334Y71D01*
X2332Y71D01*
X2332Y69D01*
X2330Y69D01*
X2330Y67D01*
X2326Y67D01*
X2326Y47D01*
X2386Y47D01*
X2386Y67D01*
X2382Y67D01*
X2382Y69D01*
X2380Y69D01*
X2380Y71D01*
X2376Y71D01*
X2376Y73D01*
X2374Y73D01*
X2374Y75D01*
X2372Y75D01*
X2372Y79D01*
X2370Y79D01*
X2370Y81D01*
X2368Y81D01*
X2368Y83D01*
X2366Y83D01*
X2366Y87D01*
X2346Y87D01*
G37*
D02*
G36*
X2446Y87D02*
X2446Y85D01*
X2444Y85D01*
X2444Y81D01*
X2442Y81D01*
X2442Y79D01*
X2440Y79D01*
X2440Y75D01*
X2438Y75D01*
X2438Y73D01*
X2434Y73D01*
X2434Y71D01*
X2432Y71D01*
X2432Y69D01*
X2430Y69D01*
X2430Y67D01*
X2426Y67D01*
X2426Y47D01*
X2486Y47D01*
X2486Y67D01*
X2482Y67D01*
X2482Y69D01*
X2480Y69D01*
X2480Y71D01*
X2476Y71D01*
X2476Y73D01*
X2474Y73D01*
X2474Y75D01*
X2472Y75D01*
X2472Y79D01*
X2470Y79D01*
X2470Y81D01*
X2468Y81D01*
X2468Y83D01*
X2466Y83D01*
X2466Y87D01*
X2446Y87D01*
G37*
D02*
G36*
X1684Y155D02*
X1723Y155D01*
X1723Y129D01*
X1684Y129D01*
X1684Y155D01*
G37*
D02*
G36*
X1684Y91D02*
X1723Y91D01*
X1723Y61D01*
X1684Y61D01*
X1684Y91D01*
G37*
D02*
G36*
X1024Y2055D02*
X1063Y2055D01*
X1063Y2027D01*
X1024Y2027D01*
X1024Y2055D01*
G37*
D02*
G36*
X1024Y1989D02*
X1063Y1989D01*
X1063Y1961D01*
X1024Y1961D01*
X1024Y1989D01*
G37*
D02*
G36*
X1584Y91D02*
X1623Y91D01*
X1623Y61D01*
X1584Y61D01*
X1584Y91D01*
G37*
D02*
G36*
X1712Y1528D02*
X1744Y1528D01*
X1744Y1487D01*
X1712Y1487D01*
X1712Y1528D01*
G37*
D02*
G36*
X2523Y1507D02*
X2564Y1507D01*
X2564Y1477D01*
X2523Y1477D01*
X2523Y1507D01*
G37*
D02*
G36*
X2494Y1478D02*
X2524Y1478D01*
X2524Y1437D01*
X2494Y1437D01*
X2494Y1478D01*
G37*
D02*
G36*
X2562Y1478D02*
X2594Y1478D01*
X2594Y1437D01*
X2562Y1437D01*
X2562Y1478D01*
G37*
D02*
G36*
X2573Y707D02*
X2614Y707D01*
X2614Y679D01*
X2573Y679D01*
X2573Y707D01*
G37*
D02*
G36*
X2544Y680D02*
X2574Y680D01*
X2574Y639D01*
X2544Y639D01*
X2544Y680D01*
G37*
D02*
G36*
X2612Y680D02*
X2644Y680D01*
X2644Y639D01*
X2612Y639D01*
X2612Y680D01*
G37*
D02*
G04 End of Copper0*
M02*